%TF.GenerationSoftware,KiCad,Pcbnew,(7.0.0)*%
%TF.CreationDate,2023-03-13T08:12:35+05:30*%
%TF.ProjectId,Stem,5374656d-2e6b-4696-9361-645f70636258,1.0*%
%TF.SameCoordinates,Original*%
%TF.FileFunction,Legend,Top*%
%TF.FilePolarity,Positive*%
%FSLAX46Y46*%
G04 Gerber Fmt 4.6, Leading zero omitted, Abs format (unit mm)*
G04 Created by KiCad (PCBNEW (7.0.0)) date 2023-03-13 08:12:35*
%MOMM*%
%LPD*%
G01*
G04 APERTURE LIST*
%ADD10C,0.150000*%
%ADD11C,0.120000*%
%ADD12C,0.800000*%
%ADD13C,1.000000*%
%ADD14C,0.100000*%
G04 APERTURE END LIST*
D10*
X151418095Y-108102380D02*
X151418095Y-107102380D01*
X151418095Y-107102380D02*
X151656190Y-107102380D01*
X151656190Y-107102380D02*
X151799047Y-107150000D01*
X151799047Y-107150000D02*
X151894285Y-107245238D01*
X151894285Y-107245238D02*
X151941904Y-107340476D01*
X151941904Y-107340476D02*
X151989523Y-107530952D01*
X151989523Y-107530952D02*
X151989523Y-107673809D01*
X151989523Y-107673809D02*
X151941904Y-107864285D01*
X151941904Y-107864285D02*
X151894285Y-107959523D01*
X151894285Y-107959523D02*
X151799047Y-108054761D01*
X151799047Y-108054761D02*
X151656190Y-108102380D01*
X151656190Y-108102380D02*
X151418095Y-108102380D01*
X152418095Y-108102380D02*
X152418095Y-107435714D01*
X152418095Y-107102380D02*
X152370476Y-107150000D01*
X152370476Y-107150000D02*
X152418095Y-107197619D01*
X152418095Y-107197619D02*
X152465714Y-107150000D01*
X152465714Y-107150000D02*
X152418095Y-107102380D01*
X152418095Y-107102380D02*
X152418095Y-107197619D01*
X152799047Y-107435714D02*
X153037142Y-108102380D01*
X153275237Y-107435714D02*
X153037142Y-108102380D01*
X153037142Y-108102380D02*
X152941904Y-108340476D01*
X152941904Y-108340476D02*
X152894285Y-108388095D01*
X152894285Y-108388095D02*
X152799047Y-108435714D01*
X153656190Y-108102380D02*
X153656190Y-107102380D01*
X153656190Y-107102380D02*
X153894285Y-107102380D01*
X153894285Y-107102380D02*
X154037142Y-107150000D01*
X154037142Y-107150000D02*
X154132380Y-107245238D01*
X154132380Y-107245238D02*
X154179999Y-107340476D01*
X154179999Y-107340476D02*
X154227618Y-107530952D01*
X154227618Y-107530952D02*
X154227618Y-107673809D01*
X154227618Y-107673809D02*
X154179999Y-107864285D01*
X154179999Y-107864285D02*
X154132380Y-107959523D01*
X154132380Y-107959523D02*
X154037142Y-108054761D01*
X154037142Y-108054761D02*
X153894285Y-108102380D01*
X153894285Y-108102380D02*
X153656190Y-108102380D01*
X154656190Y-108102380D02*
X154656190Y-107435714D01*
X154656190Y-107626190D02*
X154703809Y-107530952D01*
X154703809Y-107530952D02*
X154751428Y-107483333D01*
X154751428Y-107483333D02*
X154846666Y-107435714D01*
X154846666Y-107435714D02*
X154941904Y-107435714D01*
X155418095Y-108102380D02*
X155322857Y-108054761D01*
X155322857Y-108054761D02*
X155275238Y-108007142D01*
X155275238Y-108007142D02*
X155227619Y-107911904D01*
X155227619Y-107911904D02*
X155227619Y-107626190D01*
X155227619Y-107626190D02*
X155275238Y-107530952D01*
X155275238Y-107530952D02*
X155322857Y-107483333D01*
X155322857Y-107483333D02*
X155418095Y-107435714D01*
X155418095Y-107435714D02*
X155560952Y-107435714D01*
X155560952Y-107435714D02*
X155656190Y-107483333D01*
X155656190Y-107483333D02*
X155703809Y-107530952D01*
X155703809Y-107530952D02*
X155751428Y-107626190D01*
X155751428Y-107626190D02*
X155751428Y-107911904D01*
X155751428Y-107911904D02*
X155703809Y-108007142D01*
X155703809Y-108007142D02*
X155656190Y-108054761D01*
X155656190Y-108054761D02*
X155560952Y-108102380D01*
X155560952Y-108102380D02*
X155418095Y-108102380D01*
X156180000Y-108102380D02*
X156180000Y-107435714D01*
X156180000Y-107102380D02*
X156132381Y-107150000D01*
X156132381Y-107150000D02*
X156180000Y-107197619D01*
X156180000Y-107197619D02*
X156227619Y-107150000D01*
X156227619Y-107150000D02*
X156180000Y-107102380D01*
X156180000Y-107102380D02*
X156180000Y-107197619D01*
X157084761Y-108102380D02*
X157084761Y-107102380D01*
X157084761Y-108054761D02*
X156989523Y-108102380D01*
X156989523Y-108102380D02*
X156799047Y-108102380D01*
X156799047Y-108102380D02*
X156703809Y-108054761D01*
X156703809Y-108054761D02*
X156656190Y-108007142D01*
X156656190Y-108007142D02*
X156608571Y-107911904D01*
X156608571Y-107911904D02*
X156608571Y-107626190D01*
X156608571Y-107626190D02*
X156656190Y-107530952D01*
X156656190Y-107530952D02*
X156703809Y-107483333D01*
X156703809Y-107483333D02*
X156799047Y-107435714D01*
X156799047Y-107435714D02*
X156989523Y-107435714D01*
X156989523Y-107435714D02*
X157084761Y-107483333D01*
X151475238Y-108702380D02*
X151808571Y-109702380D01*
X151808571Y-109702380D02*
X152141904Y-108702380D01*
X153265714Y-108702380D02*
X153360952Y-108702380D01*
X153360952Y-108702380D02*
X153456190Y-108750000D01*
X153456190Y-108750000D02*
X153503809Y-108797619D01*
X153503809Y-108797619D02*
X153551428Y-108892857D01*
X153551428Y-108892857D02*
X153599047Y-109083333D01*
X153599047Y-109083333D02*
X153599047Y-109321428D01*
X153599047Y-109321428D02*
X153551428Y-109511904D01*
X153551428Y-109511904D02*
X153503809Y-109607142D01*
X153503809Y-109607142D02*
X153456190Y-109654761D01*
X153456190Y-109654761D02*
X153360952Y-109702380D01*
X153360952Y-109702380D02*
X153265714Y-109702380D01*
X153265714Y-109702380D02*
X153170476Y-109654761D01*
X153170476Y-109654761D02*
X153122857Y-109607142D01*
X153122857Y-109607142D02*
X153075238Y-109511904D01*
X153075238Y-109511904D02*
X153027619Y-109321428D01*
X153027619Y-109321428D02*
X153027619Y-109083333D01*
X153027619Y-109083333D02*
X153075238Y-108892857D01*
X153075238Y-108892857D02*
X153122857Y-108797619D01*
X153122857Y-108797619D02*
X153170476Y-108750000D01*
X153170476Y-108750000D02*
X153265714Y-108702380D01*
X154027619Y-109607142D02*
X154075238Y-109654761D01*
X154075238Y-109654761D02*
X154027619Y-109702380D01*
X154027619Y-109702380D02*
X153980000Y-109654761D01*
X153980000Y-109654761D02*
X154027619Y-109607142D01*
X154027619Y-109607142D02*
X154027619Y-109702380D01*
X155027618Y-109702380D02*
X154456190Y-109702380D01*
X154741904Y-109702380D02*
X154741904Y-108702380D01*
X154741904Y-108702380D02*
X154646666Y-108845238D01*
X154646666Y-108845238D02*
X154551428Y-108940476D01*
X154551428Y-108940476D02*
X154456190Y-108988095D01*
G36*
X160380000Y-109120000D02*
G01*
X157380000Y-107120000D01*
X157280000Y-107120000D01*
X160380000Y-105120000D01*
X160380000Y-109120000D01*
G37*
X160380000Y-109120000D02*
X157380000Y-107120000D01*
X157280000Y-107120000D01*
X160380000Y-105120000D01*
X160380000Y-109120000D01*
X160380000Y-105120000D02*
X160380000Y-109120000D01*
X160380000Y-109120000D02*
X157280000Y-107120000D01*
X157280000Y-107120000D02*
X160380000Y-105120000D01*
%TO.C,MA*%
X126924595Y-86812380D02*
X126924595Y-85812380D01*
X126924595Y-85812380D02*
X127257928Y-86526666D01*
X127257928Y-86526666D02*
X127591261Y-85812380D01*
X127591261Y-85812380D02*
X127591261Y-86812380D01*
X128019833Y-86526666D02*
X128496023Y-86526666D01*
X127924595Y-86812380D02*
X128257928Y-85812380D01*
X128257928Y-85812380D02*
X128591261Y-86812380D01*
%TO.C,MB*%
X165940167Y-94962380D02*
X165940167Y-93962380D01*
X165940167Y-93962380D02*
X166273500Y-94676666D01*
X166273500Y-94676666D02*
X166606833Y-93962380D01*
X166606833Y-93962380D02*
X166606833Y-94962380D01*
X167416357Y-94438571D02*
X167559214Y-94486190D01*
X167559214Y-94486190D02*
X167606833Y-94533809D01*
X167606833Y-94533809D02*
X167654452Y-94629047D01*
X167654452Y-94629047D02*
X167654452Y-94771904D01*
X167654452Y-94771904D02*
X167606833Y-94867142D01*
X167606833Y-94867142D02*
X167559214Y-94914761D01*
X167559214Y-94914761D02*
X167463976Y-94962380D01*
X167463976Y-94962380D02*
X167083024Y-94962380D01*
X167083024Y-94962380D02*
X167083024Y-93962380D01*
X167083024Y-93962380D02*
X167416357Y-93962380D01*
X167416357Y-93962380D02*
X167511595Y-94010000D01*
X167511595Y-94010000D02*
X167559214Y-94057619D01*
X167559214Y-94057619D02*
X167606833Y-94152857D01*
X167606833Y-94152857D02*
X167606833Y-94248095D01*
X167606833Y-94248095D02*
X167559214Y-94343333D01*
X167559214Y-94343333D02*
X167511595Y-94390952D01*
X167511595Y-94390952D02*
X167416357Y-94438571D01*
X167416357Y-94438571D02*
X167083024Y-94438571D01*
D11*
%TO.C,J3*%
X168103500Y-80610000D02*
X168103500Y-44990000D01*
X168103500Y-83210000D02*
X166773500Y-83210000D01*
X168103500Y-81880000D02*
X168103500Y-83210000D01*
X168103500Y-80610000D02*
X165443500Y-80610000D01*
X165443500Y-80610000D02*
X165443500Y-44990000D01*
X168103500Y-44990000D02*
X165443500Y-44990000D01*
%TO.C,U2*%
X144690000Y-42302000D02*
X147230000Y-42302000D01*
X138340000Y-87260000D02*
X140880000Y-87260000D01*
X142150000Y-42302000D02*
X142150000Y-44334000D01*
X156120000Y-91070000D02*
X153580000Y-91070000D01*
X161230000Y-89770000D02*
X161230000Y-42270000D01*
X144690000Y-44334000D02*
X144690000Y-42302000D01*
X138340000Y-41540000D02*
X156120000Y-41540000D01*
X135230000Y-91770000D02*
X159230000Y-91770000D01*
X154730000Y-65270000D02*
X139730000Y-65270000D01*
X156120000Y-46620000D02*
X138340000Y-46620000D01*
X142150000Y-44334000D02*
X144690000Y-44334000D01*
X143230000Y-85770000D02*
X143230000Y-91770000D01*
X135230000Y-40270000D02*
X159230000Y-40270000D01*
X133230000Y-42270000D02*
X133230000Y-89770000D01*
X140880000Y-87260000D02*
X140880000Y-91070000D01*
X139610000Y-45858000D02*
X139610000Y-42302000D01*
X153580000Y-87260000D02*
X156120000Y-87260000D01*
X140880000Y-91070000D02*
X138340000Y-91070000D01*
X152310000Y-42302000D02*
X152310000Y-45858000D01*
X138340000Y-46620000D02*
X138340000Y-41540000D01*
X156120000Y-41540000D02*
X156120000Y-46620000D01*
X138340000Y-91070000D02*
X138340000Y-87260000D01*
X151230000Y-85770000D02*
X151230000Y-91770000D01*
X139730000Y-65270000D02*
X139730000Y-47270000D01*
X139730000Y-47270000D02*
X154730000Y-47270000D01*
X156120000Y-87260000D02*
X156120000Y-91070000D01*
X143230000Y-85770000D02*
X151230000Y-85770000D01*
X149770000Y-42302000D02*
X154850000Y-42302000D01*
X139610000Y-42302000D02*
X142150000Y-42302000D01*
X147230000Y-44334000D02*
X149770000Y-44334000D01*
X149770000Y-44334000D02*
X149770000Y-42302000D01*
X153580000Y-91070000D02*
X153580000Y-87260000D01*
X154730000Y-47270000D02*
X154730000Y-65270000D01*
X154850000Y-42302000D02*
X154850000Y-45858000D01*
X147230000Y-42302000D02*
X147230000Y-44334000D01*
X135230000Y-40270000D02*
G75*
G03*
X133230000Y-42270000I-1J-1999999D01*
G01*
X161230000Y-42270000D02*
G75*
G03*
X159230000Y-40270000I-2000000J0D01*
G01*
X133230000Y-89770000D02*
G75*
G03*
X135230000Y-91770000I1999999J-1D01*
G01*
X159230000Y-91770000D02*
G75*
G03*
X161230000Y-89770000I0J2000000D01*
G01*
D12*
X142550000Y-63130000D02*
G75*
G03*
X142550000Y-63130000I-400000J0D01*
G01*
D11*
X137030000Y-42270000D02*
G75*
G03*
X137030000Y-42270000I-1500000J0D01*
G01*
D13*
X139910000Y-89165000D02*
G75*
G03*
X139910000Y-89165000I-300000J0D01*
G01*
D11*
X137030000Y-89770000D02*
G75*
G03*
X137030000Y-89770000I-1500000J0D01*
G01*
X160430000Y-42270000D02*
G75*
G03*
X160430000Y-42270000I-1500000J0D01*
G01*
X160430000Y-89770000D02*
G75*
G03*
X160430000Y-89770000I-1500000J0D01*
G01*
D13*
X155150000Y-89165000D02*
G75*
G03*
X155150000Y-89165000I-300000J0D01*
G01*
%TO.C,CS1*%
X162790000Y-103500000D02*
X162790000Y-93340000D01*
X162790000Y-93340000D02*
X145010000Y-93340000D01*
X147550000Y-98420000D02*
X145010000Y-103500000D01*
X129770000Y-93340000D02*
X142470000Y-93340000D01*
X145010000Y-98420000D02*
X142470000Y-103500000D01*
X142470000Y-103500000D02*
X129770000Y-103500000D01*
X145010000Y-103500000D02*
X162790000Y-103500000D01*
X129770000Y-103500000D02*
X129770000Y-93340000D01*
X145010000Y-93340000D02*
X147550000Y-98420000D01*
X142470000Y-93340000D02*
X145010000Y-98420000D01*
D11*
%TO.C,MA*%
X128186500Y-87545000D02*
X127186500Y-87545000D01*
X125686500Y-87545000D02*
X123886500Y-87545000D01*
X123876500Y-87535000D02*
X123876500Y-93505000D01*
X124636500Y-89795000D02*
X124636500Y-92745000D01*
X124836500Y-87245000D02*
X123586500Y-87245000D01*
X128186500Y-88295000D02*
X128186500Y-87545000D01*
X123886500Y-88295000D02*
X125686500Y-88295000D01*
X127186500Y-88295000D02*
X128186500Y-88295000D01*
X125686500Y-88295000D02*
X125686500Y-87545000D01*
X124636500Y-92745000D02*
X127686500Y-92745000D01*
X123886500Y-87545000D02*
X123886500Y-88295000D01*
X123876500Y-93505000D02*
X131496500Y-93505000D01*
X131496500Y-87535000D02*
X123876500Y-87535000D01*
X129686500Y-88295000D02*
X131486500Y-88295000D01*
X131496500Y-93505000D02*
X131496500Y-87535000D01*
X131486500Y-89795000D02*
X130736500Y-89795000D01*
X131486500Y-88295000D02*
X131486500Y-87545000D01*
X130736500Y-89795000D02*
X130736500Y-92745000D01*
X127186500Y-87545000D02*
X127186500Y-88295000D01*
X123886500Y-89795000D02*
X124636500Y-89795000D01*
X130736500Y-92745000D02*
X127686500Y-92745000D01*
X129686500Y-87545000D02*
X129686500Y-88295000D01*
X123586500Y-87245000D02*
X123586500Y-88495000D01*
X131486500Y-87545000D02*
X129686500Y-87545000D01*
D14*
%TO.C,J4*%
X127580000Y-112125000D02*
X127580000Y-111625000D01*
X134180000Y-112125000D02*
X134180000Y-111625000D01*
X127580000Y-112125000D02*
X128080000Y-112125000D01*
X134180000Y-112125000D02*
X133680000Y-112125000D01*
%TO.C,J5*%
X167180000Y-112125000D02*
X167180000Y-111625000D01*
X167180000Y-112125000D02*
X166680000Y-112125000D01*
X160580000Y-112125000D02*
X160580000Y-111625000D01*
X160580000Y-112125000D02*
X161080000Y-112125000D01*
D11*
%TO.C,U1*%
X149870000Y-69710000D02*
X144570000Y-69710000D01*
X144570000Y-90150000D02*
X146220000Y-90150000D01*
X148220000Y-90150000D02*
X149870000Y-90150000D01*
X149870000Y-90150000D02*
X149870000Y-69710000D01*
X144570000Y-69710000D02*
X144570000Y-90150000D01*
X148220000Y-90150000D02*
G75*
G03*
X146220000Y-90150000I-1000000J0D01*
G01*
%TO.C,J2*%
X126356500Y-46330000D02*
X126356500Y-45000000D01*
X126356500Y-83220000D02*
X129016500Y-83220000D01*
X126356500Y-47600000D02*
X129016500Y-47600000D01*
X126356500Y-47600000D02*
X126356500Y-83220000D01*
X126356500Y-45000000D02*
X127686500Y-45000000D01*
X129016500Y-47600000D02*
X129016500Y-83220000D01*
%TO.C,MB*%
X167273500Y-93495000D02*
X167273500Y-92745000D01*
X170573500Y-93495000D02*
X170573500Y-92745000D01*
X169823500Y-88295000D02*
X166773500Y-88295000D01*
X163723500Y-88295000D02*
X166773500Y-88295000D01*
X168773500Y-92745000D02*
X168773500Y-93495000D01*
X162963500Y-93505000D02*
X170583500Y-93505000D01*
X170583500Y-93505000D02*
X170583500Y-87535000D01*
X170573500Y-91245000D02*
X169823500Y-91245000D01*
X169623500Y-93795000D02*
X170873500Y-93795000D01*
X169823500Y-91245000D02*
X169823500Y-88295000D01*
X162973500Y-92745000D02*
X162973500Y-93495000D01*
X163723500Y-91245000D02*
X163723500Y-88295000D01*
X166273500Y-93495000D02*
X167273500Y-93495000D01*
X164773500Y-92745000D02*
X162973500Y-92745000D01*
X162973500Y-93495000D02*
X164773500Y-93495000D01*
X164773500Y-93495000D02*
X164773500Y-92745000D01*
X170873500Y-93795000D02*
X170873500Y-92545000D01*
X162973500Y-91245000D02*
X163723500Y-91245000D01*
X166273500Y-92745000D02*
X166273500Y-93495000D01*
X162963500Y-87535000D02*
X162963500Y-93505000D01*
X170573500Y-92745000D02*
X168773500Y-92745000D01*
X167273500Y-92745000D02*
X166273500Y-92745000D01*
X168773500Y-93495000D02*
X170573500Y-93495000D01*
X170583500Y-87535000D02*
X162963500Y-87535000D01*
%TD*%
M02*
