%TF.GenerationSoftware,KiCad,Pcbnew,(7.0.0)*%
%TF.CreationDate,2023-03-13T08:12:33+05:30*%
%TF.ProjectId,Stem,5374656d-2e6b-4696-9361-645f70636258,1.0*%
%TF.SameCoordinates,Original*%
%TF.FileFunction,Drillmap*%
%TF.FilePolarity,Positive*%
%FSLAX45Y45*%
G04 Gerber Fmt 4.5, Leading zero omitted, Abs format (unit mm)*
G04 Created by KiCad (PCBNEW (7.0.0)) date 2023-03-13 08:12:33*
%MOMM*%
%LPD*%
G01*
G04 APERTURE LIST*
%ADD10C,0.100000*%
%ADD11C,0.200000*%
%ADD12C,0.040000*%
%ADD13C,0.076200*%
%ADD14C,0.080000*%
%ADD15C,0.102000*%
%ADD16C,0.154000*%
G04 APERTURE END LIST*
D10*
X11238000Y-4282000D02*
X18218000Y-4282000D01*
X18218000Y-4282000D02*
X18218000Y-11242000D01*
X18218000Y-11242000D02*
X11238000Y-11242000D01*
X11238000Y-11242000D02*
X11238000Y-4282000D01*
D11*
D12*
X13008000Y-9822000D02*
X13048000Y-9862000D01*
X13048000Y-9822000D02*
X13008000Y-9862000D01*
X13688000Y-9822000D02*
X13728000Y-9862000D01*
X13728000Y-9822000D02*
X13688000Y-9862000D01*
X13708000Y-7152000D02*
X13748000Y-7192000D01*
X13748000Y-7152000D02*
X13708000Y-7192000D01*
X13968000Y-6942000D02*
X14008000Y-6982000D01*
X14008000Y-6942000D02*
X13968000Y-6982000D01*
X14768000Y-9152000D02*
X14808000Y-9192000D01*
X14808000Y-9152000D02*
X14768000Y-9192000D01*
X14768000Y-9512000D02*
X14808000Y-9552000D01*
X14808000Y-9512000D02*
X14768000Y-9552000D01*
X15208000Y-9342000D02*
X15248000Y-9382000D01*
X15248000Y-9342000D02*
X15208000Y-9382000D01*
X15498000Y-9822000D02*
X15538000Y-9862000D01*
X15538000Y-9822000D02*
X15498000Y-9862000D01*
X15718000Y-7992000D02*
X15758000Y-8032000D01*
X15758000Y-7992000D02*
X15718000Y-8032000D01*
D13*
X13491100Y-4631000D02*
G75*
G03*
X13491100Y-4631000I-38100J0D01*
G01*
X13491100Y-4885000D02*
G75*
G03*
X13491100Y-4885000I-38100J0D01*
G01*
X13491100Y-5139000D02*
G75*
G03*
X13491100Y-5139000I-38100J0D01*
G01*
X13491100Y-5393000D02*
G75*
G03*
X13491100Y-5393000I-38100J0D01*
G01*
X13491100Y-5647000D02*
G75*
G03*
X13491100Y-5647000I-38100J0D01*
G01*
X13491100Y-5901000D02*
G75*
G03*
X13491100Y-5901000I-38100J0D01*
G01*
X13491100Y-6155000D02*
G75*
G03*
X13491100Y-6155000I-38100J0D01*
G01*
X13491100Y-6409000D02*
G75*
G03*
X13491100Y-6409000I-38100J0D01*
G01*
X13491100Y-6663000D02*
G75*
G03*
X13491100Y-6663000I-38100J0D01*
G01*
X13491100Y-6917000D02*
G75*
G03*
X13491100Y-6917000I-38100J0D01*
G01*
X13491100Y-7171000D02*
G75*
G03*
X13491100Y-7171000I-38100J0D01*
G01*
X13491100Y-7425000D02*
G75*
G03*
X13491100Y-7425000I-38100J0D01*
G01*
X13491100Y-7679000D02*
G75*
G03*
X13491100Y-7679000I-38100J0D01*
G01*
X13491100Y-7933000D02*
G75*
G03*
X13491100Y-7933000I-38100J0D01*
G01*
X13491100Y-8187000D02*
G75*
G03*
X13491100Y-8187000I-38100J0D01*
G01*
X16031100Y-4631000D02*
G75*
G03*
X16031100Y-4631000I-38100J0D01*
G01*
X16031100Y-4885000D02*
G75*
G03*
X16031100Y-4885000I-38100J0D01*
G01*
X16031100Y-5139000D02*
G75*
G03*
X16031100Y-5139000I-38100J0D01*
G01*
X16031100Y-5393000D02*
G75*
G03*
X16031100Y-5393000I-38100J0D01*
G01*
X16031100Y-5647000D02*
G75*
G03*
X16031100Y-5647000I-38100J0D01*
G01*
X16031100Y-5901000D02*
G75*
G03*
X16031100Y-5901000I-38100J0D01*
G01*
X16031100Y-6155000D02*
G75*
G03*
X16031100Y-6155000I-38100J0D01*
G01*
X16031100Y-6409000D02*
G75*
G03*
X16031100Y-6409000I-38100J0D01*
G01*
X16031100Y-6663000D02*
G75*
G03*
X16031100Y-6663000I-38100J0D01*
G01*
X16031100Y-6917000D02*
G75*
G03*
X16031100Y-6917000I-38100J0D01*
G01*
X16031100Y-7171000D02*
G75*
G03*
X16031100Y-7171000I-38100J0D01*
G01*
X16031100Y-7425000D02*
G75*
G03*
X16031100Y-7425000I-38100J0D01*
G01*
X16031100Y-7679000D02*
G75*
G03*
X16031100Y-7679000I-38100J0D01*
G01*
X16031100Y-7933000D02*
G75*
G03*
X16031100Y-7933000I-38100J0D01*
G01*
X16031100Y-8187000D02*
G75*
G03*
X16031100Y-8187000I-38100J0D01*
G01*
D14*
X14341000Y-7064000D02*
X14341000Y-7144000D01*
X14301000Y-7104000D02*
X14381000Y-7104000D01*
X14341000Y-7318000D02*
X14341000Y-7398000D01*
X14301000Y-7358000D02*
X14381000Y-7358000D01*
X14341000Y-7572000D02*
X14341000Y-7652000D01*
X14301000Y-7612000D02*
X14381000Y-7612000D01*
X14341000Y-7826000D02*
X14341000Y-7906000D01*
X14301000Y-7866000D02*
X14381000Y-7866000D01*
X14341000Y-8080000D02*
X14341000Y-8160000D01*
X14301000Y-8120000D02*
X14381000Y-8120000D01*
X14341000Y-8334000D02*
X14341000Y-8414000D01*
X14301000Y-8374000D02*
X14381000Y-8374000D01*
X14341000Y-8588000D02*
X14341000Y-8668000D01*
X14301000Y-8628000D02*
X14381000Y-8628000D01*
X14341000Y-8842000D02*
X14341000Y-8922000D01*
X14301000Y-8882000D02*
X14381000Y-8882000D01*
X15103000Y-7064000D02*
X15103000Y-7144000D01*
X15063000Y-7104000D02*
X15143000Y-7104000D01*
X15103000Y-7318000D02*
X15103000Y-7398000D01*
X15063000Y-7358000D02*
X15143000Y-7358000D01*
X15103000Y-7572000D02*
X15103000Y-7652000D01*
X15063000Y-7612000D02*
X15143000Y-7612000D01*
X15103000Y-7826000D02*
X15103000Y-7906000D01*
X15063000Y-7866000D02*
X15143000Y-7866000D01*
X15103000Y-8080000D02*
X15103000Y-8160000D01*
X15063000Y-8120000D02*
X15143000Y-8120000D01*
X15103000Y-8334000D02*
X15103000Y-8414000D01*
X15063000Y-8374000D02*
X15143000Y-8374000D01*
X15103000Y-8588000D02*
X15103000Y-8668000D01*
X15063000Y-8628000D02*
X15143000Y-8628000D01*
X15103000Y-8842000D02*
X15103000Y-8922000D01*
X15063000Y-8882000D02*
X15143000Y-8882000D01*
D10*
X12679006Y-9034856D02*
X12679006Y-8964144D01*
X12608294Y-8964144D01*
X12608294Y-9034856D01*
X12679006Y-9034856D01*
X12804006Y-4668356D02*
X12804006Y-4597644D01*
X12733294Y-4597644D01*
X12733294Y-4668356D01*
X12804006Y-4668356D01*
X12804006Y-4922356D02*
X12804006Y-4851644D01*
X12733294Y-4851644D01*
X12733294Y-4922356D01*
X12804006Y-4922356D01*
X12804006Y-5176356D02*
X12804006Y-5105644D01*
X12733294Y-5105644D01*
X12733294Y-5176356D01*
X12804006Y-5176356D01*
X12804006Y-5430356D02*
X12804006Y-5359644D01*
X12733294Y-5359644D01*
X12733294Y-5430356D01*
X12804006Y-5430356D01*
X12804006Y-5684356D02*
X12804006Y-5613644D01*
X12733294Y-5613644D01*
X12733294Y-5684356D01*
X12804006Y-5684356D01*
X12804006Y-5938356D02*
X12804006Y-5867644D01*
X12733294Y-5867644D01*
X12733294Y-5938356D01*
X12804006Y-5938356D01*
X12804006Y-6192356D02*
X12804006Y-6121644D01*
X12733294Y-6121644D01*
X12733294Y-6192356D01*
X12804006Y-6192356D01*
X12804006Y-6446356D02*
X12804006Y-6375644D01*
X12733294Y-6375644D01*
X12733294Y-6446356D01*
X12804006Y-6446356D01*
X12804006Y-6700356D02*
X12804006Y-6629644D01*
X12733294Y-6629644D01*
X12733294Y-6700356D01*
X12804006Y-6700356D01*
X12804006Y-6954356D02*
X12804006Y-6883644D01*
X12733294Y-6883644D01*
X12733294Y-6954356D01*
X12804006Y-6954356D01*
X12804006Y-7208356D02*
X12804006Y-7137644D01*
X12733294Y-7137644D01*
X12733294Y-7208356D01*
X12804006Y-7208356D01*
X12804006Y-7462356D02*
X12804006Y-7391644D01*
X12733294Y-7391644D01*
X12733294Y-7462356D01*
X12804006Y-7462356D01*
X12804006Y-7716356D02*
X12804006Y-7645644D01*
X12733294Y-7645644D01*
X12733294Y-7716356D01*
X12804006Y-7716356D01*
X12804006Y-7970356D02*
X12804006Y-7899644D01*
X12733294Y-7899644D01*
X12733294Y-7970356D01*
X12804006Y-7970356D01*
X12804006Y-8224356D02*
X12804006Y-8153644D01*
X12733294Y-8153644D01*
X12733294Y-8224356D01*
X12804006Y-8224356D01*
X12929006Y-9034856D02*
X12929006Y-8964144D01*
X12858294Y-8964144D01*
X12858294Y-9034856D01*
X12929006Y-9034856D01*
X14633356Y-6127356D02*
X14633356Y-6056644D01*
X14562644Y-6056644D01*
X14562644Y-6127356D01*
X14633356Y-6127356D01*
X14883356Y-6127356D02*
X14883356Y-6056644D01*
X14812644Y-6056644D01*
X14812644Y-6127356D01*
X14883356Y-6127356D01*
X15495856Y-5807356D02*
X15495856Y-5736644D01*
X15425144Y-5736644D01*
X15425144Y-5807356D01*
X15495856Y-5807356D01*
X15749856Y-5807356D02*
X15749856Y-5736644D01*
X15679144Y-5736644D01*
X15679144Y-5807356D01*
X15749856Y-5807356D01*
X16587706Y-9139856D02*
X16587706Y-9069144D01*
X16516994Y-9069144D01*
X16516994Y-9139856D01*
X16587706Y-9139856D01*
X16712706Y-4667356D02*
X16712706Y-4596644D01*
X16641994Y-4596644D01*
X16641994Y-4667356D01*
X16712706Y-4667356D01*
X16712706Y-4921356D02*
X16712706Y-4850644D01*
X16641994Y-4850644D01*
X16641994Y-4921356D01*
X16712706Y-4921356D01*
X16712706Y-5175356D02*
X16712706Y-5104644D01*
X16641994Y-5104644D01*
X16641994Y-5175356D01*
X16712706Y-5175356D01*
X16712706Y-5429356D02*
X16712706Y-5358644D01*
X16641994Y-5358644D01*
X16641994Y-5429356D01*
X16712706Y-5429356D01*
X16712706Y-5683356D02*
X16712706Y-5612644D01*
X16641994Y-5612644D01*
X16641994Y-5683356D01*
X16712706Y-5683356D01*
X16712706Y-5937356D02*
X16712706Y-5866644D01*
X16641994Y-5866644D01*
X16641994Y-5937356D01*
X16712706Y-5937356D01*
X16712706Y-6191356D02*
X16712706Y-6120644D01*
X16641994Y-6120644D01*
X16641994Y-6191356D01*
X16712706Y-6191356D01*
X16712706Y-6445356D02*
X16712706Y-6374644D01*
X16641994Y-6374644D01*
X16641994Y-6445356D01*
X16712706Y-6445356D01*
X16712706Y-6699356D02*
X16712706Y-6628644D01*
X16641994Y-6628644D01*
X16641994Y-6699356D01*
X16712706Y-6699356D01*
X16712706Y-6953356D02*
X16712706Y-6882644D01*
X16641994Y-6882644D01*
X16641994Y-6953356D01*
X16712706Y-6953356D01*
X16712706Y-7207356D02*
X16712706Y-7136644D01*
X16641994Y-7136644D01*
X16641994Y-7207356D01*
X16712706Y-7207356D01*
X16712706Y-7461356D02*
X16712706Y-7390644D01*
X16641994Y-7390644D01*
X16641994Y-7461356D01*
X16712706Y-7461356D01*
X16712706Y-7715356D02*
X16712706Y-7644644D01*
X16641994Y-7644644D01*
X16641994Y-7715356D01*
X16712706Y-7715356D01*
X16712706Y-7969356D02*
X16712706Y-7898644D01*
X16641994Y-7898644D01*
X16641994Y-7969356D01*
X16712706Y-7969356D01*
X16712706Y-8223356D02*
X16712706Y-8152644D01*
X16641994Y-8152644D01*
X16641994Y-8223356D01*
X16712706Y-8223356D01*
X16837706Y-9139856D02*
X16837706Y-9069144D01*
X16766994Y-9069144D01*
X16766994Y-9139856D01*
X16837706Y-9139856D01*
D15*
X13088000Y-10371500D02*
X13139000Y-10320500D01*
X13088000Y-10269500D01*
X13037000Y-10320500D01*
X13088000Y-10371500D01*
X13088000Y-10625500D02*
X13139000Y-10574500D01*
X13088000Y-10523500D01*
X13037000Y-10574500D01*
X13088000Y-10625500D01*
X13088000Y-10879500D02*
X13139000Y-10828500D01*
X13088000Y-10777500D01*
X13037000Y-10828500D01*
X13088000Y-10879500D01*
X13088000Y-11133500D02*
X13139000Y-11082500D01*
X13088000Y-11031500D01*
X13037000Y-11082500D01*
X13088000Y-11133500D01*
X16388000Y-10371500D02*
X16439000Y-10320500D01*
X16388000Y-10269500D01*
X16337000Y-10320500D01*
X16388000Y-10371500D01*
X16388000Y-10625500D02*
X16439000Y-10574500D01*
X16388000Y-10523500D01*
X16337000Y-10574500D01*
X16388000Y-10625500D01*
X16388000Y-10879500D02*
X16439000Y-10828500D01*
X16388000Y-10777500D01*
X16337000Y-10828500D01*
X16388000Y-10879500D01*
X16388000Y-11133500D02*
X16439000Y-11082500D01*
X16388000Y-11031500D01*
X16337000Y-11082500D01*
X16388000Y-11133500D01*
D16*
X13907250Y-6596250D02*
X14061250Y-6750250D01*
X14061250Y-6596250D02*
X13907250Y-6750250D01*
X14061250Y-6673250D02*
G75*
G03*
X14061250Y-6673250I-77000J0D01*
G01*
X13937250Y-8886250D02*
X14091250Y-9040250D01*
X14091250Y-8886250D02*
X13937250Y-9040250D01*
X14091250Y-8963250D02*
G75*
G03*
X14091250Y-8963250I-77000J0D01*
G01*
X14247250Y-6596250D02*
X14401250Y-6750250D01*
X14401250Y-6596250D02*
X14247250Y-6750250D01*
X14401250Y-6673250D02*
G75*
G03*
X14401250Y-6673250I-77000J0D01*
G01*
X15007250Y-6596250D02*
X15161250Y-6750250D01*
X15161250Y-6596250D02*
X15007250Y-6750250D01*
X15161250Y-6673250D02*
G75*
G03*
X15161250Y-6673250I-77000J0D01*
G01*
X15357250Y-6596250D02*
X15511250Y-6750250D01*
X15511250Y-6596250D02*
X15357250Y-6750250D01*
X15511250Y-6673250D02*
G75*
G03*
X15511250Y-6673250I-77000J0D01*
G01*
X15357250Y-8886250D02*
X15511250Y-9040250D01*
X15511250Y-8886250D02*
X15357250Y-9040250D01*
X15511250Y-8963250D02*
G75*
G03*
X15511250Y-8963250I-77000J0D01*
G01*
D11*
X11480619Y-11540476D02*
X11480619Y-11340476D01*
X11480619Y-11340476D02*
X11528238Y-11340476D01*
X11528238Y-11340476D02*
X11556809Y-11350000D01*
X11556809Y-11350000D02*
X11575857Y-11369048D01*
X11575857Y-11369048D02*
X11585381Y-11388095D01*
X11585381Y-11388095D02*
X11594905Y-11426190D01*
X11594905Y-11426190D02*
X11594905Y-11454762D01*
X11594905Y-11454762D02*
X11585381Y-11492857D01*
X11585381Y-11492857D02*
X11575857Y-11511905D01*
X11575857Y-11511905D02*
X11556809Y-11530952D01*
X11556809Y-11530952D02*
X11528238Y-11540476D01*
X11528238Y-11540476D02*
X11480619Y-11540476D01*
X11680619Y-11540476D02*
X11680619Y-11407143D01*
X11680619Y-11445238D02*
X11690143Y-11426190D01*
X11690143Y-11426190D02*
X11699667Y-11416667D01*
X11699667Y-11416667D02*
X11718714Y-11407143D01*
X11718714Y-11407143D02*
X11737762Y-11407143D01*
X11804428Y-11540476D02*
X11804428Y-11407143D01*
X11804428Y-11340476D02*
X11794905Y-11350000D01*
X11794905Y-11350000D02*
X11804428Y-11359524D01*
X11804428Y-11359524D02*
X11813952Y-11350000D01*
X11813952Y-11350000D02*
X11804428Y-11340476D01*
X11804428Y-11340476D02*
X11804428Y-11359524D01*
X11928238Y-11540476D02*
X11909190Y-11530952D01*
X11909190Y-11530952D02*
X11899667Y-11511905D01*
X11899667Y-11511905D02*
X11899667Y-11340476D01*
X12033000Y-11540476D02*
X12013952Y-11530952D01*
X12013952Y-11530952D02*
X12004428Y-11511905D01*
X12004428Y-11511905D02*
X12004428Y-11340476D01*
X12229190Y-11540476D02*
X12229190Y-11340476D01*
X12229190Y-11340476D02*
X12295857Y-11483333D01*
X12295857Y-11483333D02*
X12362524Y-11340476D01*
X12362524Y-11340476D02*
X12362524Y-11540476D01*
X12543476Y-11540476D02*
X12543476Y-11435714D01*
X12543476Y-11435714D02*
X12533952Y-11416667D01*
X12533952Y-11416667D02*
X12514905Y-11407143D01*
X12514905Y-11407143D02*
X12476809Y-11407143D01*
X12476809Y-11407143D02*
X12457762Y-11416667D01*
X12543476Y-11530952D02*
X12524428Y-11540476D01*
X12524428Y-11540476D02*
X12476809Y-11540476D01*
X12476809Y-11540476D02*
X12457762Y-11530952D01*
X12457762Y-11530952D02*
X12448238Y-11511905D01*
X12448238Y-11511905D02*
X12448238Y-11492857D01*
X12448238Y-11492857D02*
X12457762Y-11473809D01*
X12457762Y-11473809D02*
X12476809Y-11464286D01*
X12476809Y-11464286D02*
X12524428Y-11464286D01*
X12524428Y-11464286D02*
X12543476Y-11454762D01*
X12638714Y-11407143D02*
X12638714Y-11607143D01*
X12638714Y-11416667D02*
X12657762Y-11407143D01*
X12657762Y-11407143D02*
X12695857Y-11407143D01*
X12695857Y-11407143D02*
X12714905Y-11416667D01*
X12714905Y-11416667D02*
X12724428Y-11426190D01*
X12724428Y-11426190D02*
X12733952Y-11445238D01*
X12733952Y-11445238D02*
X12733952Y-11502381D01*
X12733952Y-11502381D02*
X12724428Y-11521428D01*
X12724428Y-11521428D02*
X12714905Y-11530952D01*
X12714905Y-11530952D02*
X12695857Y-11540476D01*
X12695857Y-11540476D02*
X12657762Y-11540476D01*
X12657762Y-11540476D02*
X12638714Y-11530952D01*
X12819667Y-11521428D02*
X12829190Y-11530952D01*
X12829190Y-11530952D02*
X12819667Y-11540476D01*
X12819667Y-11540476D02*
X12810143Y-11530952D01*
X12810143Y-11530952D02*
X12819667Y-11521428D01*
X12819667Y-11521428D02*
X12819667Y-11540476D01*
X12819667Y-11416667D02*
X12829190Y-11426190D01*
X12829190Y-11426190D02*
X12819667Y-11435714D01*
X12819667Y-11435714D02*
X12810143Y-11426190D01*
X12810143Y-11426190D02*
X12819667Y-11416667D01*
X12819667Y-11416667D02*
X12819667Y-11435714D01*
D12*
X11193000Y-11867000D02*
X11233000Y-11907000D01*
X11233000Y-11867000D02*
X11193000Y-11907000D01*
D11*
X11518714Y-11760476D02*
X11537762Y-11760476D01*
X11537762Y-11760476D02*
X11556809Y-11770000D01*
X11556809Y-11770000D02*
X11566333Y-11779524D01*
X11566333Y-11779524D02*
X11575857Y-11798571D01*
X11575857Y-11798571D02*
X11585381Y-11836667D01*
X11585381Y-11836667D02*
X11585381Y-11884286D01*
X11585381Y-11884286D02*
X11575857Y-11922381D01*
X11575857Y-11922381D02*
X11566333Y-11941428D01*
X11566333Y-11941428D02*
X11556809Y-11950952D01*
X11556809Y-11950952D02*
X11537762Y-11960476D01*
X11537762Y-11960476D02*
X11518714Y-11960476D01*
X11518714Y-11960476D02*
X11499667Y-11950952D01*
X11499667Y-11950952D02*
X11490143Y-11941428D01*
X11490143Y-11941428D02*
X11480619Y-11922381D01*
X11480619Y-11922381D02*
X11471095Y-11884286D01*
X11471095Y-11884286D02*
X11471095Y-11836667D01*
X11471095Y-11836667D02*
X11480619Y-11798571D01*
X11480619Y-11798571D02*
X11490143Y-11779524D01*
X11490143Y-11779524D02*
X11499667Y-11770000D01*
X11499667Y-11770000D02*
X11518714Y-11760476D01*
X11671095Y-11941428D02*
X11680619Y-11950952D01*
X11680619Y-11950952D02*
X11671095Y-11960476D01*
X11671095Y-11960476D02*
X11661571Y-11950952D01*
X11661571Y-11950952D02*
X11671095Y-11941428D01*
X11671095Y-11941428D02*
X11671095Y-11960476D01*
X11852048Y-11827143D02*
X11852048Y-11960476D01*
X11804428Y-11750952D02*
X11756809Y-11893809D01*
X11756809Y-11893809D02*
X11880619Y-11893809D01*
X11994905Y-11760476D02*
X12013952Y-11760476D01*
X12013952Y-11760476D02*
X12033000Y-11770000D01*
X12033000Y-11770000D02*
X12042524Y-11779524D01*
X12042524Y-11779524D02*
X12052048Y-11798571D01*
X12052048Y-11798571D02*
X12061571Y-11836667D01*
X12061571Y-11836667D02*
X12061571Y-11884286D01*
X12061571Y-11884286D02*
X12052048Y-11922381D01*
X12052048Y-11922381D02*
X12042524Y-11941428D01*
X12042524Y-11941428D02*
X12033000Y-11950952D01*
X12033000Y-11950952D02*
X12013952Y-11960476D01*
X12013952Y-11960476D02*
X11994905Y-11960476D01*
X11994905Y-11960476D02*
X11975857Y-11950952D01*
X11975857Y-11950952D02*
X11966333Y-11941428D01*
X11966333Y-11941428D02*
X11956809Y-11922381D01*
X11956809Y-11922381D02*
X11947286Y-11884286D01*
X11947286Y-11884286D02*
X11947286Y-11836667D01*
X11947286Y-11836667D02*
X11956809Y-11798571D01*
X11956809Y-11798571D02*
X11966333Y-11779524D01*
X11966333Y-11779524D02*
X11975857Y-11770000D01*
X11975857Y-11770000D02*
X11994905Y-11760476D01*
X12185381Y-11760476D02*
X12204429Y-11760476D01*
X12204429Y-11760476D02*
X12223476Y-11770000D01*
X12223476Y-11770000D02*
X12233000Y-11779524D01*
X12233000Y-11779524D02*
X12242524Y-11798571D01*
X12242524Y-11798571D02*
X12252048Y-11836667D01*
X12252048Y-11836667D02*
X12252048Y-11884286D01*
X12252048Y-11884286D02*
X12242524Y-11922381D01*
X12242524Y-11922381D02*
X12233000Y-11941428D01*
X12233000Y-11941428D02*
X12223476Y-11950952D01*
X12223476Y-11950952D02*
X12204429Y-11960476D01*
X12204429Y-11960476D02*
X12185381Y-11960476D01*
X12185381Y-11960476D02*
X12166333Y-11950952D01*
X12166333Y-11950952D02*
X12156809Y-11941428D01*
X12156809Y-11941428D02*
X12147286Y-11922381D01*
X12147286Y-11922381D02*
X12137762Y-11884286D01*
X12137762Y-11884286D02*
X12137762Y-11836667D01*
X12137762Y-11836667D02*
X12147286Y-11798571D01*
X12147286Y-11798571D02*
X12156809Y-11779524D01*
X12156809Y-11779524D02*
X12166333Y-11770000D01*
X12166333Y-11770000D02*
X12185381Y-11760476D01*
X12337762Y-11960476D02*
X12337762Y-11827143D01*
X12337762Y-11846190D02*
X12347286Y-11836667D01*
X12347286Y-11836667D02*
X12366333Y-11827143D01*
X12366333Y-11827143D02*
X12394905Y-11827143D01*
X12394905Y-11827143D02*
X12413952Y-11836667D01*
X12413952Y-11836667D02*
X12423476Y-11855714D01*
X12423476Y-11855714D02*
X12423476Y-11960476D01*
X12423476Y-11855714D02*
X12433000Y-11836667D01*
X12433000Y-11836667D02*
X12452048Y-11827143D01*
X12452048Y-11827143D02*
X12480619Y-11827143D01*
X12480619Y-11827143D02*
X12499667Y-11836667D01*
X12499667Y-11836667D02*
X12509190Y-11855714D01*
X12509190Y-11855714D02*
X12509190Y-11960476D01*
X12604429Y-11960476D02*
X12604429Y-11827143D01*
X12604429Y-11846190D02*
X12613952Y-11836667D01*
X12613952Y-11836667D02*
X12633000Y-11827143D01*
X12633000Y-11827143D02*
X12661571Y-11827143D01*
X12661571Y-11827143D02*
X12680619Y-11836667D01*
X12680619Y-11836667D02*
X12690143Y-11855714D01*
X12690143Y-11855714D02*
X12690143Y-11960476D01*
X12690143Y-11855714D02*
X12699667Y-11836667D01*
X12699667Y-11836667D02*
X12718714Y-11827143D01*
X12718714Y-11827143D02*
X12747286Y-11827143D01*
X12747286Y-11827143D02*
X12766333Y-11836667D01*
X12766333Y-11836667D02*
X12775857Y-11855714D01*
X12775857Y-11855714D02*
X12775857Y-11960476D01*
X13133952Y-11750952D02*
X12962524Y-12008095D01*
X13358714Y-11760476D02*
X13377762Y-11760476D01*
X13377762Y-11760476D02*
X13396810Y-11770000D01*
X13396810Y-11770000D02*
X13406333Y-11779524D01*
X13406333Y-11779524D02*
X13415857Y-11798571D01*
X13415857Y-11798571D02*
X13425381Y-11836667D01*
X13425381Y-11836667D02*
X13425381Y-11884286D01*
X13425381Y-11884286D02*
X13415857Y-11922381D01*
X13415857Y-11922381D02*
X13406333Y-11941428D01*
X13406333Y-11941428D02*
X13396810Y-11950952D01*
X13396810Y-11950952D02*
X13377762Y-11960476D01*
X13377762Y-11960476D02*
X13358714Y-11960476D01*
X13358714Y-11960476D02*
X13339667Y-11950952D01*
X13339667Y-11950952D02*
X13330143Y-11941428D01*
X13330143Y-11941428D02*
X13320619Y-11922381D01*
X13320619Y-11922381D02*
X13311095Y-11884286D01*
X13311095Y-11884286D02*
X13311095Y-11836667D01*
X13311095Y-11836667D02*
X13320619Y-11798571D01*
X13320619Y-11798571D02*
X13330143Y-11779524D01*
X13330143Y-11779524D02*
X13339667Y-11770000D01*
X13339667Y-11770000D02*
X13358714Y-11760476D01*
X13511095Y-11941428D02*
X13520619Y-11950952D01*
X13520619Y-11950952D02*
X13511095Y-11960476D01*
X13511095Y-11960476D02*
X13501571Y-11950952D01*
X13501571Y-11950952D02*
X13511095Y-11941428D01*
X13511095Y-11941428D02*
X13511095Y-11960476D01*
X13644429Y-11760476D02*
X13663476Y-11760476D01*
X13663476Y-11760476D02*
X13682524Y-11770000D01*
X13682524Y-11770000D02*
X13692048Y-11779524D01*
X13692048Y-11779524D02*
X13701571Y-11798571D01*
X13701571Y-11798571D02*
X13711095Y-11836667D01*
X13711095Y-11836667D02*
X13711095Y-11884286D01*
X13711095Y-11884286D02*
X13701571Y-11922381D01*
X13701571Y-11922381D02*
X13692048Y-11941428D01*
X13692048Y-11941428D02*
X13682524Y-11950952D01*
X13682524Y-11950952D02*
X13663476Y-11960476D01*
X13663476Y-11960476D02*
X13644429Y-11960476D01*
X13644429Y-11960476D02*
X13625381Y-11950952D01*
X13625381Y-11950952D02*
X13615857Y-11941428D01*
X13615857Y-11941428D02*
X13606333Y-11922381D01*
X13606333Y-11922381D02*
X13596810Y-11884286D01*
X13596810Y-11884286D02*
X13596810Y-11836667D01*
X13596810Y-11836667D02*
X13606333Y-11798571D01*
X13606333Y-11798571D02*
X13615857Y-11779524D01*
X13615857Y-11779524D02*
X13625381Y-11770000D01*
X13625381Y-11770000D02*
X13644429Y-11760476D01*
X13901571Y-11960476D02*
X13787286Y-11960476D01*
X13844429Y-11960476D02*
X13844429Y-11760476D01*
X13844429Y-11760476D02*
X13825381Y-11789048D01*
X13825381Y-11789048D02*
X13806333Y-11808095D01*
X13806333Y-11808095D02*
X13787286Y-11817619D01*
X14082524Y-11760476D02*
X13987286Y-11760476D01*
X13987286Y-11760476D02*
X13977762Y-11855714D01*
X13977762Y-11855714D02*
X13987286Y-11846190D01*
X13987286Y-11846190D02*
X14006333Y-11836667D01*
X14006333Y-11836667D02*
X14053952Y-11836667D01*
X14053952Y-11836667D02*
X14073000Y-11846190D01*
X14073000Y-11846190D02*
X14082524Y-11855714D01*
X14082524Y-11855714D02*
X14092048Y-11874762D01*
X14092048Y-11874762D02*
X14092048Y-11922381D01*
X14092048Y-11922381D02*
X14082524Y-11941428D01*
X14082524Y-11941428D02*
X14073000Y-11950952D01*
X14073000Y-11950952D02*
X14053952Y-11960476D01*
X14053952Y-11960476D02*
X14006333Y-11960476D01*
X14006333Y-11960476D02*
X13987286Y-11950952D01*
X13987286Y-11950952D02*
X13977762Y-11941428D01*
X14158714Y-11760476D02*
X14292048Y-11760476D01*
X14292048Y-11760476D02*
X14206333Y-11960476D01*
X14358714Y-11760476D02*
X14358714Y-11798571D01*
X14434905Y-11760476D02*
X14434905Y-11798571D01*
X14697762Y-12036667D02*
X14688238Y-12027143D01*
X14688238Y-12027143D02*
X14669191Y-11998571D01*
X14669191Y-11998571D02*
X14659667Y-11979524D01*
X14659667Y-11979524D02*
X14650143Y-11950952D01*
X14650143Y-11950952D02*
X14640619Y-11903333D01*
X14640619Y-11903333D02*
X14640619Y-11865238D01*
X14640619Y-11865238D02*
X14650143Y-11817619D01*
X14650143Y-11817619D02*
X14659667Y-11789048D01*
X14659667Y-11789048D02*
X14669191Y-11770000D01*
X14669191Y-11770000D02*
X14688238Y-11741428D01*
X14688238Y-11741428D02*
X14697762Y-11731905D01*
X14783476Y-11960476D02*
X14821571Y-11960476D01*
X14821571Y-11960476D02*
X14840619Y-11950952D01*
X14840619Y-11950952D02*
X14850143Y-11941428D01*
X14850143Y-11941428D02*
X14869191Y-11912857D01*
X14869191Y-11912857D02*
X14878714Y-11874762D01*
X14878714Y-11874762D02*
X14878714Y-11798571D01*
X14878714Y-11798571D02*
X14869191Y-11779524D01*
X14869191Y-11779524D02*
X14859667Y-11770000D01*
X14859667Y-11770000D02*
X14840619Y-11760476D01*
X14840619Y-11760476D02*
X14802524Y-11760476D01*
X14802524Y-11760476D02*
X14783476Y-11770000D01*
X14783476Y-11770000D02*
X14773952Y-11779524D01*
X14773952Y-11779524D02*
X14764429Y-11798571D01*
X14764429Y-11798571D02*
X14764429Y-11846190D01*
X14764429Y-11846190D02*
X14773952Y-11865238D01*
X14773952Y-11865238D02*
X14783476Y-11874762D01*
X14783476Y-11874762D02*
X14802524Y-11884286D01*
X14802524Y-11884286D02*
X14840619Y-11884286D01*
X14840619Y-11884286D02*
X14859667Y-11874762D01*
X14859667Y-11874762D02*
X14869191Y-11865238D01*
X14869191Y-11865238D02*
X14878714Y-11846190D01*
X15084429Y-11960476D02*
X15084429Y-11760476D01*
X15170143Y-11960476D02*
X15170143Y-11855714D01*
X15170143Y-11855714D02*
X15160619Y-11836667D01*
X15160619Y-11836667D02*
X15141572Y-11827143D01*
X15141572Y-11827143D02*
X15113000Y-11827143D01*
X15113000Y-11827143D02*
X15093952Y-11836667D01*
X15093952Y-11836667D02*
X15084429Y-11846190D01*
X15293952Y-11960476D02*
X15274905Y-11950952D01*
X15274905Y-11950952D02*
X15265381Y-11941428D01*
X15265381Y-11941428D02*
X15255857Y-11922381D01*
X15255857Y-11922381D02*
X15255857Y-11865238D01*
X15255857Y-11865238D02*
X15265381Y-11846190D01*
X15265381Y-11846190D02*
X15274905Y-11836667D01*
X15274905Y-11836667D02*
X15293952Y-11827143D01*
X15293952Y-11827143D02*
X15322524Y-11827143D01*
X15322524Y-11827143D02*
X15341572Y-11836667D01*
X15341572Y-11836667D02*
X15351095Y-11846190D01*
X15351095Y-11846190D02*
X15360619Y-11865238D01*
X15360619Y-11865238D02*
X15360619Y-11922381D01*
X15360619Y-11922381D02*
X15351095Y-11941428D01*
X15351095Y-11941428D02*
X15341572Y-11950952D01*
X15341572Y-11950952D02*
X15322524Y-11960476D01*
X15322524Y-11960476D02*
X15293952Y-11960476D01*
X15474905Y-11960476D02*
X15455857Y-11950952D01*
X15455857Y-11950952D02*
X15446333Y-11931905D01*
X15446333Y-11931905D02*
X15446333Y-11760476D01*
X15627286Y-11950952D02*
X15608238Y-11960476D01*
X15608238Y-11960476D02*
X15570143Y-11960476D01*
X15570143Y-11960476D02*
X15551095Y-11950952D01*
X15551095Y-11950952D02*
X15541572Y-11931905D01*
X15541572Y-11931905D02*
X15541572Y-11855714D01*
X15541572Y-11855714D02*
X15551095Y-11836667D01*
X15551095Y-11836667D02*
X15570143Y-11827143D01*
X15570143Y-11827143D02*
X15608238Y-11827143D01*
X15608238Y-11827143D02*
X15627286Y-11836667D01*
X15627286Y-11836667D02*
X15636810Y-11855714D01*
X15636810Y-11855714D02*
X15636810Y-11874762D01*
X15636810Y-11874762D02*
X15541572Y-11893809D01*
X15713000Y-11950952D02*
X15732048Y-11960476D01*
X15732048Y-11960476D02*
X15770143Y-11960476D01*
X15770143Y-11960476D02*
X15789191Y-11950952D01*
X15789191Y-11950952D02*
X15798714Y-11931905D01*
X15798714Y-11931905D02*
X15798714Y-11922381D01*
X15798714Y-11922381D02*
X15789191Y-11903333D01*
X15789191Y-11903333D02*
X15770143Y-11893809D01*
X15770143Y-11893809D02*
X15741572Y-11893809D01*
X15741572Y-11893809D02*
X15722524Y-11884286D01*
X15722524Y-11884286D02*
X15713000Y-11865238D01*
X15713000Y-11865238D02*
X15713000Y-11855714D01*
X15713000Y-11855714D02*
X15722524Y-11836667D01*
X15722524Y-11836667D02*
X15741572Y-11827143D01*
X15741572Y-11827143D02*
X15770143Y-11827143D01*
X15770143Y-11827143D02*
X15789191Y-11836667D01*
X15865381Y-12036667D02*
X15874905Y-12027143D01*
X15874905Y-12027143D02*
X15893953Y-11998571D01*
X15893953Y-11998571D02*
X15903476Y-11979524D01*
X15903476Y-11979524D02*
X15913000Y-11950952D01*
X15913000Y-11950952D02*
X15922524Y-11903333D01*
X15922524Y-11903333D02*
X15922524Y-11865238D01*
X15922524Y-11865238D02*
X15913000Y-11817619D01*
X15913000Y-11817619D02*
X15903476Y-11789048D01*
X15903476Y-11789048D02*
X15893953Y-11770000D01*
X15893953Y-11770000D02*
X15874905Y-11741428D01*
X15874905Y-11741428D02*
X15865381Y-11731905D01*
D13*
X11233000Y-12151000D02*
G75*
G03*
X11233000Y-12151000I-38100J0D01*
G01*
D11*
X11518714Y-12024476D02*
X11537762Y-12024476D01*
X11537762Y-12024476D02*
X11556809Y-12034000D01*
X11556809Y-12034000D02*
X11566333Y-12043524D01*
X11566333Y-12043524D02*
X11575857Y-12062571D01*
X11575857Y-12062571D02*
X11585381Y-12100667D01*
X11585381Y-12100667D02*
X11585381Y-12148286D01*
X11585381Y-12148286D02*
X11575857Y-12186381D01*
X11575857Y-12186381D02*
X11566333Y-12205428D01*
X11566333Y-12205428D02*
X11556809Y-12214952D01*
X11556809Y-12214952D02*
X11537762Y-12224476D01*
X11537762Y-12224476D02*
X11518714Y-12224476D01*
X11518714Y-12224476D02*
X11499667Y-12214952D01*
X11499667Y-12214952D02*
X11490143Y-12205428D01*
X11490143Y-12205428D02*
X11480619Y-12186381D01*
X11480619Y-12186381D02*
X11471095Y-12148286D01*
X11471095Y-12148286D02*
X11471095Y-12100667D01*
X11471095Y-12100667D02*
X11480619Y-12062571D01*
X11480619Y-12062571D02*
X11490143Y-12043524D01*
X11490143Y-12043524D02*
X11499667Y-12034000D01*
X11499667Y-12034000D02*
X11518714Y-12024476D01*
X11671095Y-12205428D02*
X11680619Y-12214952D01*
X11680619Y-12214952D02*
X11671095Y-12224476D01*
X11671095Y-12224476D02*
X11661571Y-12214952D01*
X11661571Y-12214952D02*
X11671095Y-12205428D01*
X11671095Y-12205428D02*
X11671095Y-12224476D01*
X11747286Y-12024476D02*
X11880619Y-12024476D01*
X11880619Y-12024476D02*
X11794905Y-12224476D01*
X12042524Y-12024476D02*
X12004428Y-12024476D01*
X12004428Y-12024476D02*
X11985381Y-12034000D01*
X11985381Y-12034000D02*
X11975857Y-12043524D01*
X11975857Y-12043524D02*
X11956809Y-12072095D01*
X11956809Y-12072095D02*
X11947286Y-12110190D01*
X11947286Y-12110190D02*
X11947286Y-12186381D01*
X11947286Y-12186381D02*
X11956809Y-12205428D01*
X11956809Y-12205428D02*
X11966333Y-12214952D01*
X11966333Y-12214952D02*
X11985381Y-12224476D01*
X11985381Y-12224476D02*
X12023476Y-12224476D01*
X12023476Y-12224476D02*
X12042524Y-12214952D01*
X12042524Y-12214952D02*
X12052048Y-12205428D01*
X12052048Y-12205428D02*
X12061571Y-12186381D01*
X12061571Y-12186381D02*
X12061571Y-12138762D01*
X12061571Y-12138762D02*
X12052048Y-12119714D01*
X12052048Y-12119714D02*
X12042524Y-12110190D01*
X12042524Y-12110190D02*
X12023476Y-12100667D01*
X12023476Y-12100667D02*
X11985381Y-12100667D01*
X11985381Y-12100667D02*
X11966333Y-12110190D01*
X11966333Y-12110190D02*
X11956809Y-12119714D01*
X11956809Y-12119714D02*
X11947286Y-12138762D01*
X12137762Y-12043524D02*
X12147286Y-12034000D01*
X12147286Y-12034000D02*
X12166333Y-12024476D01*
X12166333Y-12024476D02*
X12213952Y-12024476D01*
X12213952Y-12024476D02*
X12233000Y-12034000D01*
X12233000Y-12034000D02*
X12242524Y-12043524D01*
X12242524Y-12043524D02*
X12252048Y-12062571D01*
X12252048Y-12062571D02*
X12252048Y-12081619D01*
X12252048Y-12081619D02*
X12242524Y-12110190D01*
X12242524Y-12110190D02*
X12128238Y-12224476D01*
X12128238Y-12224476D02*
X12252048Y-12224476D01*
X12337762Y-12224476D02*
X12337762Y-12091143D01*
X12337762Y-12110190D02*
X12347286Y-12100667D01*
X12347286Y-12100667D02*
X12366333Y-12091143D01*
X12366333Y-12091143D02*
X12394905Y-12091143D01*
X12394905Y-12091143D02*
X12413952Y-12100667D01*
X12413952Y-12100667D02*
X12423476Y-12119714D01*
X12423476Y-12119714D02*
X12423476Y-12224476D01*
X12423476Y-12119714D02*
X12433000Y-12100667D01*
X12433000Y-12100667D02*
X12452048Y-12091143D01*
X12452048Y-12091143D02*
X12480619Y-12091143D01*
X12480619Y-12091143D02*
X12499667Y-12100667D01*
X12499667Y-12100667D02*
X12509190Y-12119714D01*
X12509190Y-12119714D02*
X12509190Y-12224476D01*
X12604429Y-12224476D02*
X12604429Y-12091143D01*
X12604429Y-12110190D02*
X12613952Y-12100667D01*
X12613952Y-12100667D02*
X12633000Y-12091143D01*
X12633000Y-12091143D02*
X12661571Y-12091143D01*
X12661571Y-12091143D02*
X12680619Y-12100667D01*
X12680619Y-12100667D02*
X12690143Y-12119714D01*
X12690143Y-12119714D02*
X12690143Y-12224476D01*
X12690143Y-12119714D02*
X12699667Y-12100667D01*
X12699667Y-12100667D02*
X12718714Y-12091143D01*
X12718714Y-12091143D02*
X12747286Y-12091143D01*
X12747286Y-12091143D02*
X12766333Y-12100667D01*
X12766333Y-12100667D02*
X12775857Y-12119714D01*
X12775857Y-12119714D02*
X12775857Y-12224476D01*
X13133952Y-12014952D02*
X12962524Y-12272095D01*
X13358714Y-12024476D02*
X13377762Y-12024476D01*
X13377762Y-12024476D02*
X13396810Y-12034000D01*
X13396810Y-12034000D02*
X13406333Y-12043524D01*
X13406333Y-12043524D02*
X13415857Y-12062571D01*
X13415857Y-12062571D02*
X13425381Y-12100667D01*
X13425381Y-12100667D02*
X13425381Y-12148286D01*
X13425381Y-12148286D02*
X13415857Y-12186381D01*
X13415857Y-12186381D02*
X13406333Y-12205428D01*
X13406333Y-12205428D02*
X13396810Y-12214952D01*
X13396810Y-12214952D02*
X13377762Y-12224476D01*
X13377762Y-12224476D02*
X13358714Y-12224476D01*
X13358714Y-12224476D02*
X13339667Y-12214952D01*
X13339667Y-12214952D02*
X13330143Y-12205428D01*
X13330143Y-12205428D02*
X13320619Y-12186381D01*
X13320619Y-12186381D02*
X13311095Y-12148286D01*
X13311095Y-12148286D02*
X13311095Y-12100667D01*
X13311095Y-12100667D02*
X13320619Y-12062571D01*
X13320619Y-12062571D02*
X13330143Y-12043524D01*
X13330143Y-12043524D02*
X13339667Y-12034000D01*
X13339667Y-12034000D02*
X13358714Y-12024476D01*
X13511095Y-12205428D02*
X13520619Y-12214952D01*
X13520619Y-12214952D02*
X13511095Y-12224476D01*
X13511095Y-12224476D02*
X13501571Y-12214952D01*
X13501571Y-12214952D02*
X13511095Y-12205428D01*
X13511095Y-12205428D02*
X13511095Y-12224476D01*
X13644429Y-12024476D02*
X13663476Y-12024476D01*
X13663476Y-12024476D02*
X13682524Y-12034000D01*
X13682524Y-12034000D02*
X13692048Y-12043524D01*
X13692048Y-12043524D02*
X13701571Y-12062571D01*
X13701571Y-12062571D02*
X13711095Y-12100667D01*
X13711095Y-12100667D02*
X13711095Y-12148286D01*
X13711095Y-12148286D02*
X13701571Y-12186381D01*
X13701571Y-12186381D02*
X13692048Y-12205428D01*
X13692048Y-12205428D02*
X13682524Y-12214952D01*
X13682524Y-12214952D02*
X13663476Y-12224476D01*
X13663476Y-12224476D02*
X13644429Y-12224476D01*
X13644429Y-12224476D02*
X13625381Y-12214952D01*
X13625381Y-12214952D02*
X13615857Y-12205428D01*
X13615857Y-12205428D02*
X13606333Y-12186381D01*
X13606333Y-12186381D02*
X13596810Y-12148286D01*
X13596810Y-12148286D02*
X13596810Y-12100667D01*
X13596810Y-12100667D02*
X13606333Y-12062571D01*
X13606333Y-12062571D02*
X13615857Y-12043524D01*
X13615857Y-12043524D02*
X13625381Y-12034000D01*
X13625381Y-12034000D02*
X13644429Y-12024476D01*
X13777762Y-12024476D02*
X13901571Y-12024476D01*
X13901571Y-12024476D02*
X13834905Y-12100667D01*
X13834905Y-12100667D02*
X13863476Y-12100667D01*
X13863476Y-12100667D02*
X13882524Y-12110190D01*
X13882524Y-12110190D02*
X13892048Y-12119714D01*
X13892048Y-12119714D02*
X13901571Y-12138762D01*
X13901571Y-12138762D02*
X13901571Y-12186381D01*
X13901571Y-12186381D02*
X13892048Y-12205428D01*
X13892048Y-12205428D02*
X13882524Y-12214952D01*
X13882524Y-12214952D02*
X13863476Y-12224476D01*
X13863476Y-12224476D02*
X13806333Y-12224476D01*
X13806333Y-12224476D02*
X13787286Y-12214952D01*
X13787286Y-12214952D02*
X13777762Y-12205428D01*
X14025381Y-12024476D02*
X14044429Y-12024476D01*
X14044429Y-12024476D02*
X14063476Y-12034000D01*
X14063476Y-12034000D02*
X14073000Y-12043524D01*
X14073000Y-12043524D02*
X14082524Y-12062571D01*
X14082524Y-12062571D02*
X14092048Y-12100667D01*
X14092048Y-12100667D02*
X14092048Y-12148286D01*
X14092048Y-12148286D02*
X14082524Y-12186381D01*
X14082524Y-12186381D02*
X14073000Y-12205428D01*
X14073000Y-12205428D02*
X14063476Y-12214952D01*
X14063476Y-12214952D02*
X14044429Y-12224476D01*
X14044429Y-12224476D02*
X14025381Y-12224476D01*
X14025381Y-12224476D02*
X14006333Y-12214952D01*
X14006333Y-12214952D02*
X13996810Y-12205428D01*
X13996810Y-12205428D02*
X13987286Y-12186381D01*
X13987286Y-12186381D02*
X13977762Y-12148286D01*
X13977762Y-12148286D02*
X13977762Y-12100667D01*
X13977762Y-12100667D02*
X13987286Y-12062571D01*
X13987286Y-12062571D02*
X13996810Y-12043524D01*
X13996810Y-12043524D02*
X14006333Y-12034000D01*
X14006333Y-12034000D02*
X14025381Y-12024476D01*
X14215857Y-12024476D02*
X14234905Y-12024476D01*
X14234905Y-12024476D02*
X14253952Y-12034000D01*
X14253952Y-12034000D02*
X14263476Y-12043524D01*
X14263476Y-12043524D02*
X14273000Y-12062571D01*
X14273000Y-12062571D02*
X14282524Y-12100667D01*
X14282524Y-12100667D02*
X14282524Y-12148286D01*
X14282524Y-12148286D02*
X14273000Y-12186381D01*
X14273000Y-12186381D02*
X14263476Y-12205428D01*
X14263476Y-12205428D02*
X14253952Y-12214952D01*
X14253952Y-12214952D02*
X14234905Y-12224476D01*
X14234905Y-12224476D02*
X14215857Y-12224476D01*
X14215857Y-12224476D02*
X14196810Y-12214952D01*
X14196810Y-12214952D02*
X14187286Y-12205428D01*
X14187286Y-12205428D02*
X14177762Y-12186381D01*
X14177762Y-12186381D02*
X14168238Y-12148286D01*
X14168238Y-12148286D02*
X14168238Y-12100667D01*
X14168238Y-12100667D02*
X14177762Y-12062571D01*
X14177762Y-12062571D02*
X14187286Y-12043524D01*
X14187286Y-12043524D02*
X14196810Y-12034000D01*
X14196810Y-12034000D02*
X14215857Y-12024476D01*
X14358714Y-12024476D02*
X14358714Y-12062571D01*
X14434905Y-12024476D02*
X14434905Y-12062571D01*
X14697762Y-12300667D02*
X14688238Y-12291143D01*
X14688238Y-12291143D02*
X14669191Y-12262571D01*
X14669191Y-12262571D02*
X14659667Y-12243524D01*
X14659667Y-12243524D02*
X14650143Y-12214952D01*
X14650143Y-12214952D02*
X14640619Y-12167333D01*
X14640619Y-12167333D02*
X14640619Y-12129238D01*
X14640619Y-12129238D02*
X14650143Y-12081619D01*
X14650143Y-12081619D02*
X14659667Y-12053048D01*
X14659667Y-12053048D02*
X14669191Y-12034000D01*
X14669191Y-12034000D02*
X14688238Y-12005428D01*
X14688238Y-12005428D02*
X14697762Y-11995905D01*
X14754905Y-12024476D02*
X14878714Y-12024476D01*
X14878714Y-12024476D02*
X14812048Y-12100667D01*
X14812048Y-12100667D02*
X14840619Y-12100667D01*
X14840619Y-12100667D02*
X14859667Y-12110190D01*
X14859667Y-12110190D02*
X14869191Y-12119714D01*
X14869191Y-12119714D02*
X14878714Y-12138762D01*
X14878714Y-12138762D02*
X14878714Y-12186381D01*
X14878714Y-12186381D02*
X14869191Y-12205428D01*
X14869191Y-12205428D02*
X14859667Y-12214952D01*
X14859667Y-12214952D02*
X14840619Y-12224476D01*
X14840619Y-12224476D02*
X14783476Y-12224476D01*
X14783476Y-12224476D02*
X14764429Y-12214952D01*
X14764429Y-12214952D02*
X14754905Y-12205428D01*
X15002524Y-12024476D02*
X15021572Y-12024476D01*
X15021572Y-12024476D02*
X15040619Y-12034000D01*
X15040619Y-12034000D02*
X15050143Y-12043524D01*
X15050143Y-12043524D02*
X15059667Y-12062571D01*
X15059667Y-12062571D02*
X15069191Y-12100667D01*
X15069191Y-12100667D02*
X15069191Y-12148286D01*
X15069191Y-12148286D02*
X15059667Y-12186381D01*
X15059667Y-12186381D02*
X15050143Y-12205428D01*
X15050143Y-12205428D02*
X15040619Y-12214952D01*
X15040619Y-12214952D02*
X15021572Y-12224476D01*
X15021572Y-12224476D02*
X15002524Y-12224476D01*
X15002524Y-12224476D02*
X14983476Y-12214952D01*
X14983476Y-12214952D02*
X14973952Y-12205428D01*
X14973952Y-12205428D02*
X14964429Y-12186381D01*
X14964429Y-12186381D02*
X14954905Y-12148286D01*
X14954905Y-12148286D02*
X14954905Y-12100667D01*
X14954905Y-12100667D02*
X14964429Y-12062571D01*
X14964429Y-12062571D02*
X14973952Y-12043524D01*
X14973952Y-12043524D02*
X14983476Y-12034000D01*
X14983476Y-12034000D02*
X15002524Y-12024476D01*
X15274905Y-12224476D02*
X15274905Y-12024476D01*
X15360619Y-12224476D02*
X15360619Y-12119714D01*
X15360619Y-12119714D02*
X15351095Y-12100667D01*
X15351095Y-12100667D02*
X15332048Y-12091143D01*
X15332048Y-12091143D02*
X15303476Y-12091143D01*
X15303476Y-12091143D02*
X15284429Y-12100667D01*
X15284429Y-12100667D02*
X15274905Y-12110190D01*
X15484429Y-12224476D02*
X15465381Y-12214952D01*
X15465381Y-12214952D02*
X15455857Y-12205428D01*
X15455857Y-12205428D02*
X15446333Y-12186381D01*
X15446333Y-12186381D02*
X15446333Y-12129238D01*
X15446333Y-12129238D02*
X15455857Y-12110190D01*
X15455857Y-12110190D02*
X15465381Y-12100667D01*
X15465381Y-12100667D02*
X15484429Y-12091143D01*
X15484429Y-12091143D02*
X15513000Y-12091143D01*
X15513000Y-12091143D02*
X15532048Y-12100667D01*
X15532048Y-12100667D02*
X15541572Y-12110190D01*
X15541572Y-12110190D02*
X15551095Y-12129238D01*
X15551095Y-12129238D02*
X15551095Y-12186381D01*
X15551095Y-12186381D02*
X15541572Y-12205428D01*
X15541572Y-12205428D02*
X15532048Y-12214952D01*
X15532048Y-12214952D02*
X15513000Y-12224476D01*
X15513000Y-12224476D02*
X15484429Y-12224476D01*
X15665381Y-12224476D02*
X15646333Y-12214952D01*
X15646333Y-12214952D02*
X15636810Y-12195905D01*
X15636810Y-12195905D02*
X15636810Y-12024476D01*
X15817762Y-12214952D02*
X15798714Y-12224476D01*
X15798714Y-12224476D02*
X15760619Y-12224476D01*
X15760619Y-12224476D02*
X15741572Y-12214952D01*
X15741572Y-12214952D02*
X15732048Y-12195905D01*
X15732048Y-12195905D02*
X15732048Y-12119714D01*
X15732048Y-12119714D02*
X15741572Y-12100667D01*
X15741572Y-12100667D02*
X15760619Y-12091143D01*
X15760619Y-12091143D02*
X15798714Y-12091143D01*
X15798714Y-12091143D02*
X15817762Y-12100667D01*
X15817762Y-12100667D02*
X15827286Y-12119714D01*
X15827286Y-12119714D02*
X15827286Y-12138762D01*
X15827286Y-12138762D02*
X15732048Y-12157809D01*
X15903476Y-12214952D02*
X15922524Y-12224476D01*
X15922524Y-12224476D02*
X15960619Y-12224476D01*
X15960619Y-12224476D02*
X15979667Y-12214952D01*
X15979667Y-12214952D02*
X15989191Y-12195905D01*
X15989191Y-12195905D02*
X15989191Y-12186381D01*
X15989191Y-12186381D02*
X15979667Y-12167333D01*
X15979667Y-12167333D02*
X15960619Y-12157809D01*
X15960619Y-12157809D02*
X15932048Y-12157809D01*
X15932048Y-12157809D02*
X15913000Y-12148286D01*
X15913000Y-12148286D02*
X15903476Y-12129238D01*
X15903476Y-12129238D02*
X15903476Y-12119714D01*
X15903476Y-12119714D02*
X15913000Y-12100667D01*
X15913000Y-12100667D02*
X15932048Y-12091143D01*
X15932048Y-12091143D02*
X15960619Y-12091143D01*
X15960619Y-12091143D02*
X15979667Y-12100667D01*
X16055857Y-12300667D02*
X16065381Y-12291143D01*
X16065381Y-12291143D02*
X16084429Y-12262571D01*
X16084429Y-12262571D02*
X16093953Y-12243524D01*
X16093953Y-12243524D02*
X16103476Y-12214952D01*
X16103476Y-12214952D02*
X16113000Y-12167333D01*
X16113000Y-12167333D02*
X16113000Y-12129238D01*
X16113000Y-12129238D02*
X16103476Y-12081619D01*
X16103476Y-12081619D02*
X16093953Y-12053048D01*
X16093953Y-12053048D02*
X16084429Y-12034000D01*
X16084429Y-12034000D02*
X16065381Y-12005428D01*
X16065381Y-12005428D02*
X16055857Y-11995905D01*
D14*
X11193000Y-12375000D02*
X11193000Y-12455000D01*
X11153000Y-12415000D02*
X11233000Y-12415000D01*
D11*
X11518714Y-12288476D02*
X11537762Y-12288476D01*
X11537762Y-12288476D02*
X11556809Y-12298000D01*
X11556809Y-12298000D02*
X11566333Y-12307524D01*
X11566333Y-12307524D02*
X11575857Y-12326571D01*
X11575857Y-12326571D02*
X11585381Y-12364667D01*
X11585381Y-12364667D02*
X11585381Y-12412286D01*
X11585381Y-12412286D02*
X11575857Y-12450381D01*
X11575857Y-12450381D02*
X11566333Y-12469428D01*
X11566333Y-12469428D02*
X11556809Y-12478952D01*
X11556809Y-12478952D02*
X11537762Y-12488476D01*
X11537762Y-12488476D02*
X11518714Y-12488476D01*
X11518714Y-12488476D02*
X11499667Y-12478952D01*
X11499667Y-12478952D02*
X11490143Y-12469428D01*
X11490143Y-12469428D02*
X11480619Y-12450381D01*
X11480619Y-12450381D02*
X11471095Y-12412286D01*
X11471095Y-12412286D02*
X11471095Y-12364667D01*
X11471095Y-12364667D02*
X11480619Y-12326571D01*
X11480619Y-12326571D02*
X11490143Y-12307524D01*
X11490143Y-12307524D02*
X11499667Y-12298000D01*
X11499667Y-12298000D02*
X11518714Y-12288476D01*
X11671095Y-12469428D02*
X11680619Y-12478952D01*
X11680619Y-12478952D02*
X11671095Y-12488476D01*
X11671095Y-12488476D02*
X11661571Y-12478952D01*
X11661571Y-12478952D02*
X11671095Y-12469428D01*
X11671095Y-12469428D02*
X11671095Y-12488476D01*
X11794905Y-12374190D02*
X11775857Y-12364667D01*
X11775857Y-12364667D02*
X11766333Y-12355143D01*
X11766333Y-12355143D02*
X11756809Y-12336095D01*
X11756809Y-12336095D02*
X11756809Y-12326571D01*
X11756809Y-12326571D02*
X11766333Y-12307524D01*
X11766333Y-12307524D02*
X11775857Y-12298000D01*
X11775857Y-12298000D02*
X11794905Y-12288476D01*
X11794905Y-12288476D02*
X11833000Y-12288476D01*
X11833000Y-12288476D02*
X11852048Y-12298000D01*
X11852048Y-12298000D02*
X11861571Y-12307524D01*
X11861571Y-12307524D02*
X11871095Y-12326571D01*
X11871095Y-12326571D02*
X11871095Y-12336095D01*
X11871095Y-12336095D02*
X11861571Y-12355143D01*
X11861571Y-12355143D02*
X11852048Y-12364667D01*
X11852048Y-12364667D02*
X11833000Y-12374190D01*
X11833000Y-12374190D02*
X11794905Y-12374190D01*
X11794905Y-12374190D02*
X11775857Y-12383714D01*
X11775857Y-12383714D02*
X11766333Y-12393238D01*
X11766333Y-12393238D02*
X11756809Y-12412286D01*
X11756809Y-12412286D02*
X11756809Y-12450381D01*
X11756809Y-12450381D02*
X11766333Y-12469428D01*
X11766333Y-12469428D02*
X11775857Y-12478952D01*
X11775857Y-12478952D02*
X11794905Y-12488476D01*
X11794905Y-12488476D02*
X11833000Y-12488476D01*
X11833000Y-12488476D02*
X11852048Y-12478952D01*
X11852048Y-12478952D02*
X11861571Y-12469428D01*
X11861571Y-12469428D02*
X11871095Y-12450381D01*
X11871095Y-12450381D02*
X11871095Y-12412286D01*
X11871095Y-12412286D02*
X11861571Y-12393238D01*
X11861571Y-12393238D02*
X11852048Y-12383714D01*
X11852048Y-12383714D02*
X11833000Y-12374190D01*
X11994905Y-12288476D02*
X12013952Y-12288476D01*
X12013952Y-12288476D02*
X12033000Y-12298000D01*
X12033000Y-12298000D02*
X12042524Y-12307524D01*
X12042524Y-12307524D02*
X12052048Y-12326571D01*
X12052048Y-12326571D02*
X12061571Y-12364667D01*
X12061571Y-12364667D02*
X12061571Y-12412286D01*
X12061571Y-12412286D02*
X12052048Y-12450381D01*
X12052048Y-12450381D02*
X12042524Y-12469428D01*
X12042524Y-12469428D02*
X12033000Y-12478952D01*
X12033000Y-12478952D02*
X12013952Y-12488476D01*
X12013952Y-12488476D02*
X11994905Y-12488476D01*
X11994905Y-12488476D02*
X11975857Y-12478952D01*
X11975857Y-12478952D02*
X11966333Y-12469428D01*
X11966333Y-12469428D02*
X11956809Y-12450381D01*
X11956809Y-12450381D02*
X11947286Y-12412286D01*
X11947286Y-12412286D02*
X11947286Y-12364667D01*
X11947286Y-12364667D02*
X11956809Y-12326571D01*
X11956809Y-12326571D02*
X11966333Y-12307524D01*
X11966333Y-12307524D02*
X11975857Y-12298000D01*
X11975857Y-12298000D02*
X11994905Y-12288476D01*
X12185381Y-12288476D02*
X12204429Y-12288476D01*
X12204429Y-12288476D02*
X12223476Y-12298000D01*
X12223476Y-12298000D02*
X12233000Y-12307524D01*
X12233000Y-12307524D02*
X12242524Y-12326571D01*
X12242524Y-12326571D02*
X12252048Y-12364667D01*
X12252048Y-12364667D02*
X12252048Y-12412286D01*
X12252048Y-12412286D02*
X12242524Y-12450381D01*
X12242524Y-12450381D02*
X12233000Y-12469428D01*
X12233000Y-12469428D02*
X12223476Y-12478952D01*
X12223476Y-12478952D02*
X12204429Y-12488476D01*
X12204429Y-12488476D02*
X12185381Y-12488476D01*
X12185381Y-12488476D02*
X12166333Y-12478952D01*
X12166333Y-12478952D02*
X12156809Y-12469428D01*
X12156809Y-12469428D02*
X12147286Y-12450381D01*
X12147286Y-12450381D02*
X12137762Y-12412286D01*
X12137762Y-12412286D02*
X12137762Y-12364667D01*
X12137762Y-12364667D02*
X12147286Y-12326571D01*
X12147286Y-12326571D02*
X12156809Y-12307524D01*
X12156809Y-12307524D02*
X12166333Y-12298000D01*
X12166333Y-12298000D02*
X12185381Y-12288476D01*
X12337762Y-12488476D02*
X12337762Y-12355143D01*
X12337762Y-12374190D02*
X12347286Y-12364667D01*
X12347286Y-12364667D02*
X12366333Y-12355143D01*
X12366333Y-12355143D02*
X12394905Y-12355143D01*
X12394905Y-12355143D02*
X12413952Y-12364667D01*
X12413952Y-12364667D02*
X12423476Y-12383714D01*
X12423476Y-12383714D02*
X12423476Y-12488476D01*
X12423476Y-12383714D02*
X12433000Y-12364667D01*
X12433000Y-12364667D02*
X12452048Y-12355143D01*
X12452048Y-12355143D02*
X12480619Y-12355143D01*
X12480619Y-12355143D02*
X12499667Y-12364667D01*
X12499667Y-12364667D02*
X12509190Y-12383714D01*
X12509190Y-12383714D02*
X12509190Y-12488476D01*
X12604429Y-12488476D02*
X12604429Y-12355143D01*
X12604429Y-12374190D02*
X12613952Y-12364667D01*
X12613952Y-12364667D02*
X12633000Y-12355143D01*
X12633000Y-12355143D02*
X12661571Y-12355143D01*
X12661571Y-12355143D02*
X12680619Y-12364667D01*
X12680619Y-12364667D02*
X12690143Y-12383714D01*
X12690143Y-12383714D02*
X12690143Y-12488476D01*
X12690143Y-12383714D02*
X12699667Y-12364667D01*
X12699667Y-12364667D02*
X12718714Y-12355143D01*
X12718714Y-12355143D02*
X12747286Y-12355143D01*
X12747286Y-12355143D02*
X12766333Y-12364667D01*
X12766333Y-12364667D02*
X12775857Y-12383714D01*
X12775857Y-12383714D02*
X12775857Y-12488476D01*
X13133952Y-12278952D02*
X12962524Y-12536095D01*
X13358714Y-12288476D02*
X13377762Y-12288476D01*
X13377762Y-12288476D02*
X13396810Y-12298000D01*
X13396810Y-12298000D02*
X13406333Y-12307524D01*
X13406333Y-12307524D02*
X13415857Y-12326571D01*
X13415857Y-12326571D02*
X13425381Y-12364667D01*
X13425381Y-12364667D02*
X13425381Y-12412286D01*
X13425381Y-12412286D02*
X13415857Y-12450381D01*
X13415857Y-12450381D02*
X13406333Y-12469428D01*
X13406333Y-12469428D02*
X13396810Y-12478952D01*
X13396810Y-12478952D02*
X13377762Y-12488476D01*
X13377762Y-12488476D02*
X13358714Y-12488476D01*
X13358714Y-12488476D02*
X13339667Y-12478952D01*
X13339667Y-12478952D02*
X13330143Y-12469428D01*
X13330143Y-12469428D02*
X13320619Y-12450381D01*
X13320619Y-12450381D02*
X13311095Y-12412286D01*
X13311095Y-12412286D02*
X13311095Y-12364667D01*
X13311095Y-12364667D02*
X13320619Y-12326571D01*
X13320619Y-12326571D02*
X13330143Y-12307524D01*
X13330143Y-12307524D02*
X13339667Y-12298000D01*
X13339667Y-12298000D02*
X13358714Y-12288476D01*
X13511095Y-12469428D02*
X13520619Y-12478952D01*
X13520619Y-12478952D02*
X13511095Y-12488476D01*
X13511095Y-12488476D02*
X13501571Y-12478952D01*
X13501571Y-12478952D02*
X13511095Y-12469428D01*
X13511095Y-12469428D02*
X13511095Y-12488476D01*
X13644429Y-12288476D02*
X13663476Y-12288476D01*
X13663476Y-12288476D02*
X13682524Y-12298000D01*
X13682524Y-12298000D02*
X13692048Y-12307524D01*
X13692048Y-12307524D02*
X13701571Y-12326571D01*
X13701571Y-12326571D02*
X13711095Y-12364667D01*
X13711095Y-12364667D02*
X13711095Y-12412286D01*
X13711095Y-12412286D02*
X13701571Y-12450381D01*
X13701571Y-12450381D02*
X13692048Y-12469428D01*
X13692048Y-12469428D02*
X13682524Y-12478952D01*
X13682524Y-12478952D02*
X13663476Y-12488476D01*
X13663476Y-12488476D02*
X13644429Y-12488476D01*
X13644429Y-12488476D02*
X13625381Y-12478952D01*
X13625381Y-12478952D02*
X13615857Y-12469428D01*
X13615857Y-12469428D02*
X13606333Y-12450381D01*
X13606333Y-12450381D02*
X13596810Y-12412286D01*
X13596810Y-12412286D02*
X13596810Y-12364667D01*
X13596810Y-12364667D02*
X13606333Y-12326571D01*
X13606333Y-12326571D02*
X13615857Y-12307524D01*
X13615857Y-12307524D02*
X13625381Y-12298000D01*
X13625381Y-12298000D02*
X13644429Y-12288476D01*
X13777762Y-12288476D02*
X13901571Y-12288476D01*
X13901571Y-12288476D02*
X13834905Y-12364667D01*
X13834905Y-12364667D02*
X13863476Y-12364667D01*
X13863476Y-12364667D02*
X13882524Y-12374190D01*
X13882524Y-12374190D02*
X13892048Y-12383714D01*
X13892048Y-12383714D02*
X13901571Y-12402762D01*
X13901571Y-12402762D02*
X13901571Y-12450381D01*
X13901571Y-12450381D02*
X13892048Y-12469428D01*
X13892048Y-12469428D02*
X13882524Y-12478952D01*
X13882524Y-12478952D02*
X13863476Y-12488476D01*
X13863476Y-12488476D02*
X13806333Y-12488476D01*
X13806333Y-12488476D02*
X13787286Y-12478952D01*
X13787286Y-12478952D02*
X13777762Y-12469428D01*
X14092048Y-12488476D02*
X13977762Y-12488476D01*
X14034905Y-12488476D02*
X14034905Y-12288476D01*
X14034905Y-12288476D02*
X14015857Y-12317048D01*
X14015857Y-12317048D02*
X13996810Y-12336095D01*
X13996810Y-12336095D02*
X13977762Y-12345619D01*
X14273000Y-12288476D02*
X14177762Y-12288476D01*
X14177762Y-12288476D02*
X14168238Y-12383714D01*
X14168238Y-12383714D02*
X14177762Y-12374190D01*
X14177762Y-12374190D02*
X14196810Y-12364667D01*
X14196810Y-12364667D02*
X14244429Y-12364667D01*
X14244429Y-12364667D02*
X14263476Y-12374190D01*
X14263476Y-12374190D02*
X14273000Y-12383714D01*
X14273000Y-12383714D02*
X14282524Y-12402762D01*
X14282524Y-12402762D02*
X14282524Y-12450381D01*
X14282524Y-12450381D02*
X14273000Y-12469428D01*
X14273000Y-12469428D02*
X14263476Y-12478952D01*
X14263476Y-12478952D02*
X14244429Y-12488476D01*
X14244429Y-12488476D02*
X14196810Y-12488476D01*
X14196810Y-12488476D02*
X14177762Y-12478952D01*
X14177762Y-12478952D02*
X14168238Y-12469428D01*
X14358714Y-12288476D02*
X14358714Y-12326571D01*
X14434905Y-12288476D02*
X14434905Y-12326571D01*
X14697762Y-12564667D02*
X14688238Y-12555143D01*
X14688238Y-12555143D02*
X14669191Y-12526571D01*
X14669191Y-12526571D02*
X14659667Y-12507524D01*
X14659667Y-12507524D02*
X14650143Y-12478952D01*
X14650143Y-12478952D02*
X14640619Y-12431333D01*
X14640619Y-12431333D02*
X14640619Y-12393238D01*
X14640619Y-12393238D02*
X14650143Y-12345619D01*
X14650143Y-12345619D02*
X14659667Y-12317048D01*
X14659667Y-12317048D02*
X14669191Y-12298000D01*
X14669191Y-12298000D02*
X14688238Y-12269428D01*
X14688238Y-12269428D02*
X14697762Y-12259905D01*
X14878714Y-12488476D02*
X14764429Y-12488476D01*
X14821571Y-12488476D02*
X14821571Y-12288476D01*
X14821571Y-12288476D02*
X14802524Y-12317048D01*
X14802524Y-12317048D02*
X14783476Y-12336095D01*
X14783476Y-12336095D02*
X14764429Y-12345619D01*
X15050143Y-12288476D02*
X15012048Y-12288476D01*
X15012048Y-12288476D02*
X14993000Y-12298000D01*
X14993000Y-12298000D02*
X14983476Y-12307524D01*
X14983476Y-12307524D02*
X14964429Y-12336095D01*
X14964429Y-12336095D02*
X14954905Y-12374190D01*
X14954905Y-12374190D02*
X14954905Y-12450381D01*
X14954905Y-12450381D02*
X14964429Y-12469428D01*
X14964429Y-12469428D02*
X14973952Y-12478952D01*
X14973952Y-12478952D02*
X14993000Y-12488476D01*
X14993000Y-12488476D02*
X15031095Y-12488476D01*
X15031095Y-12488476D02*
X15050143Y-12478952D01*
X15050143Y-12478952D02*
X15059667Y-12469428D01*
X15059667Y-12469428D02*
X15069191Y-12450381D01*
X15069191Y-12450381D02*
X15069191Y-12402762D01*
X15069191Y-12402762D02*
X15059667Y-12383714D01*
X15059667Y-12383714D02*
X15050143Y-12374190D01*
X15050143Y-12374190D02*
X15031095Y-12364667D01*
X15031095Y-12364667D02*
X14993000Y-12364667D01*
X14993000Y-12364667D02*
X14973952Y-12374190D01*
X14973952Y-12374190D02*
X14964429Y-12383714D01*
X14964429Y-12383714D02*
X14954905Y-12402762D01*
X15274905Y-12488476D02*
X15274905Y-12288476D01*
X15360619Y-12488476D02*
X15360619Y-12383714D01*
X15360619Y-12383714D02*
X15351095Y-12364667D01*
X15351095Y-12364667D02*
X15332048Y-12355143D01*
X15332048Y-12355143D02*
X15303476Y-12355143D01*
X15303476Y-12355143D02*
X15284429Y-12364667D01*
X15284429Y-12364667D02*
X15274905Y-12374190D01*
X15484429Y-12488476D02*
X15465381Y-12478952D01*
X15465381Y-12478952D02*
X15455857Y-12469428D01*
X15455857Y-12469428D02*
X15446333Y-12450381D01*
X15446333Y-12450381D02*
X15446333Y-12393238D01*
X15446333Y-12393238D02*
X15455857Y-12374190D01*
X15455857Y-12374190D02*
X15465381Y-12364667D01*
X15465381Y-12364667D02*
X15484429Y-12355143D01*
X15484429Y-12355143D02*
X15513000Y-12355143D01*
X15513000Y-12355143D02*
X15532048Y-12364667D01*
X15532048Y-12364667D02*
X15541572Y-12374190D01*
X15541572Y-12374190D02*
X15551095Y-12393238D01*
X15551095Y-12393238D02*
X15551095Y-12450381D01*
X15551095Y-12450381D02*
X15541572Y-12469428D01*
X15541572Y-12469428D02*
X15532048Y-12478952D01*
X15532048Y-12478952D02*
X15513000Y-12488476D01*
X15513000Y-12488476D02*
X15484429Y-12488476D01*
X15665381Y-12488476D02*
X15646333Y-12478952D01*
X15646333Y-12478952D02*
X15636810Y-12459905D01*
X15636810Y-12459905D02*
X15636810Y-12288476D01*
X15817762Y-12478952D02*
X15798714Y-12488476D01*
X15798714Y-12488476D02*
X15760619Y-12488476D01*
X15760619Y-12488476D02*
X15741572Y-12478952D01*
X15741572Y-12478952D02*
X15732048Y-12459905D01*
X15732048Y-12459905D02*
X15732048Y-12383714D01*
X15732048Y-12383714D02*
X15741572Y-12364667D01*
X15741572Y-12364667D02*
X15760619Y-12355143D01*
X15760619Y-12355143D02*
X15798714Y-12355143D01*
X15798714Y-12355143D02*
X15817762Y-12364667D01*
X15817762Y-12364667D02*
X15827286Y-12383714D01*
X15827286Y-12383714D02*
X15827286Y-12402762D01*
X15827286Y-12402762D02*
X15732048Y-12421809D01*
X15903476Y-12478952D02*
X15922524Y-12488476D01*
X15922524Y-12488476D02*
X15960619Y-12488476D01*
X15960619Y-12488476D02*
X15979667Y-12478952D01*
X15979667Y-12478952D02*
X15989191Y-12459905D01*
X15989191Y-12459905D02*
X15989191Y-12450381D01*
X15989191Y-12450381D02*
X15979667Y-12431333D01*
X15979667Y-12431333D02*
X15960619Y-12421809D01*
X15960619Y-12421809D02*
X15932048Y-12421809D01*
X15932048Y-12421809D02*
X15913000Y-12412286D01*
X15913000Y-12412286D02*
X15903476Y-12393238D01*
X15903476Y-12393238D02*
X15903476Y-12383714D01*
X15903476Y-12383714D02*
X15913000Y-12364667D01*
X15913000Y-12364667D02*
X15932048Y-12355143D01*
X15932048Y-12355143D02*
X15960619Y-12355143D01*
X15960619Y-12355143D02*
X15979667Y-12364667D01*
X16055857Y-12564667D02*
X16065381Y-12555143D01*
X16065381Y-12555143D02*
X16084429Y-12526571D01*
X16084429Y-12526571D02*
X16093953Y-12507524D01*
X16093953Y-12507524D02*
X16103476Y-12478952D01*
X16103476Y-12478952D02*
X16113000Y-12431333D01*
X16113000Y-12431333D02*
X16113000Y-12393238D01*
X16113000Y-12393238D02*
X16103476Y-12345619D01*
X16103476Y-12345619D02*
X16093953Y-12317048D01*
X16093953Y-12317048D02*
X16084429Y-12298000D01*
X16084429Y-12298000D02*
X16065381Y-12269428D01*
X16065381Y-12269428D02*
X16055857Y-12259905D01*
D10*
X11218356Y-12714356D02*
X11218356Y-12643644D01*
X11147644Y-12643644D01*
X11147644Y-12714356D01*
X11218356Y-12714356D01*
D11*
X11585381Y-12752476D02*
X11471095Y-12752476D01*
X11528238Y-12752476D02*
X11528238Y-12552476D01*
X11528238Y-12552476D02*
X11509190Y-12581048D01*
X11509190Y-12581048D02*
X11490143Y-12600095D01*
X11490143Y-12600095D02*
X11471095Y-12609619D01*
X11671095Y-12733428D02*
X11680619Y-12742952D01*
X11680619Y-12742952D02*
X11671095Y-12752476D01*
X11671095Y-12752476D02*
X11661571Y-12742952D01*
X11661571Y-12742952D02*
X11671095Y-12733428D01*
X11671095Y-12733428D02*
X11671095Y-12752476D01*
X11804428Y-12552476D02*
X11823476Y-12552476D01*
X11823476Y-12552476D02*
X11842524Y-12562000D01*
X11842524Y-12562000D02*
X11852048Y-12571524D01*
X11852048Y-12571524D02*
X11861571Y-12590571D01*
X11861571Y-12590571D02*
X11871095Y-12628667D01*
X11871095Y-12628667D02*
X11871095Y-12676286D01*
X11871095Y-12676286D02*
X11861571Y-12714381D01*
X11861571Y-12714381D02*
X11852048Y-12733428D01*
X11852048Y-12733428D02*
X11842524Y-12742952D01*
X11842524Y-12742952D02*
X11823476Y-12752476D01*
X11823476Y-12752476D02*
X11804428Y-12752476D01*
X11804428Y-12752476D02*
X11785381Y-12742952D01*
X11785381Y-12742952D02*
X11775857Y-12733428D01*
X11775857Y-12733428D02*
X11766333Y-12714381D01*
X11766333Y-12714381D02*
X11756809Y-12676286D01*
X11756809Y-12676286D02*
X11756809Y-12628667D01*
X11756809Y-12628667D02*
X11766333Y-12590571D01*
X11766333Y-12590571D02*
X11775857Y-12571524D01*
X11775857Y-12571524D02*
X11785381Y-12562000D01*
X11785381Y-12562000D02*
X11804428Y-12552476D01*
X11994905Y-12552476D02*
X12013952Y-12552476D01*
X12013952Y-12552476D02*
X12033000Y-12562000D01*
X12033000Y-12562000D02*
X12042524Y-12571524D01*
X12042524Y-12571524D02*
X12052048Y-12590571D01*
X12052048Y-12590571D02*
X12061571Y-12628667D01*
X12061571Y-12628667D02*
X12061571Y-12676286D01*
X12061571Y-12676286D02*
X12052048Y-12714381D01*
X12052048Y-12714381D02*
X12042524Y-12733428D01*
X12042524Y-12733428D02*
X12033000Y-12742952D01*
X12033000Y-12742952D02*
X12013952Y-12752476D01*
X12013952Y-12752476D02*
X11994905Y-12752476D01*
X11994905Y-12752476D02*
X11975857Y-12742952D01*
X11975857Y-12742952D02*
X11966333Y-12733428D01*
X11966333Y-12733428D02*
X11956809Y-12714381D01*
X11956809Y-12714381D02*
X11947286Y-12676286D01*
X11947286Y-12676286D02*
X11947286Y-12628667D01*
X11947286Y-12628667D02*
X11956809Y-12590571D01*
X11956809Y-12590571D02*
X11966333Y-12571524D01*
X11966333Y-12571524D02*
X11975857Y-12562000D01*
X11975857Y-12562000D02*
X11994905Y-12552476D01*
X12185381Y-12552476D02*
X12204429Y-12552476D01*
X12204429Y-12552476D02*
X12223476Y-12562000D01*
X12223476Y-12562000D02*
X12233000Y-12571524D01*
X12233000Y-12571524D02*
X12242524Y-12590571D01*
X12242524Y-12590571D02*
X12252048Y-12628667D01*
X12252048Y-12628667D02*
X12252048Y-12676286D01*
X12252048Y-12676286D02*
X12242524Y-12714381D01*
X12242524Y-12714381D02*
X12233000Y-12733428D01*
X12233000Y-12733428D02*
X12223476Y-12742952D01*
X12223476Y-12742952D02*
X12204429Y-12752476D01*
X12204429Y-12752476D02*
X12185381Y-12752476D01*
X12185381Y-12752476D02*
X12166333Y-12742952D01*
X12166333Y-12742952D02*
X12156809Y-12733428D01*
X12156809Y-12733428D02*
X12147286Y-12714381D01*
X12147286Y-12714381D02*
X12137762Y-12676286D01*
X12137762Y-12676286D02*
X12137762Y-12628667D01*
X12137762Y-12628667D02*
X12147286Y-12590571D01*
X12147286Y-12590571D02*
X12156809Y-12571524D01*
X12156809Y-12571524D02*
X12166333Y-12562000D01*
X12166333Y-12562000D02*
X12185381Y-12552476D01*
X12337762Y-12752476D02*
X12337762Y-12619143D01*
X12337762Y-12638190D02*
X12347286Y-12628667D01*
X12347286Y-12628667D02*
X12366333Y-12619143D01*
X12366333Y-12619143D02*
X12394905Y-12619143D01*
X12394905Y-12619143D02*
X12413952Y-12628667D01*
X12413952Y-12628667D02*
X12423476Y-12647714D01*
X12423476Y-12647714D02*
X12423476Y-12752476D01*
X12423476Y-12647714D02*
X12433000Y-12628667D01*
X12433000Y-12628667D02*
X12452048Y-12619143D01*
X12452048Y-12619143D02*
X12480619Y-12619143D01*
X12480619Y-12619143D02*
X12499667Y-12628667D01*
X12499667Y-12628667D02*
X12509190Y-12647714D01*
X12509190Y-12647714D02*
X12509190Y-12752476D01*
X12604429Y-12752476D02*
X12604429Y-12619143D01*
X12604429Y-12638190D02*
X12613952Y-12628667D01*
X12613952Y-12628667D02*
X12633000Y-12619143D01*
X12633000Y-12619143D02*
X12661571Y-12619143D01*
X12661571Y-12619143D02*
X12680619Y-12628667D01*
X12680619Y-12628667D02*
X12690143Y-12647714D01*
X12690143Y-12647714D02*
X12690143Y-12752476D01*
X12690143Y-12647714D02*
X12699667Y-12628667D01*
X12699667Y-12628667D02*
X12718714Y-12619143D01*
X12718714Y-12619143D02*
X12747286Y-12619143D01*
X12747286Y-12619143D02*
X12766333Y-12628667D01*
X12766333Y-12628667D02*
X12775857Y-12647714D01*
X12775857Y-12647714D02*
X12775857Y-12752476D01*
X13133952Y-12542952D02*
X12962524Y-12800095D01*
X13358714Y-12552476D02*
X13377762Y-12552476D01*
X13377762Y-12552476D02*
X13396810Y-12562000D01*
X13396810Y-12562000D02*
X13406333Y-12571524D01*
X13406333Y-12571524D02*
X13415857Y-12590571D01*
X13415857Y-12590571D02*
X13425381Y-12628667D01*
X13425381Y-12628667D02*
X13425381Y-12676286D01*
X13425381Y-12676286D02*
X13415857Y-12714381D01*
X13415857Y-12714381D02*
X13406333Y-12733428D01*
X13406333Y-12733428D02*
X13396810Y-12742952D01*
X13396810Y-12742952D02*
X13377762Y-12752476D01*
X13377762Y-12752476D02*
X13358714Y-12752476D01*
X13358714Y-12752476D02*
X13339667Y-12742952D01*
X13339667Y-12742952D02*
X13330143Y-12733428D01*
X13330143Y-12733428D02*
X13320619Y-12714381D01*
X13320619Y-12714381D02*
X13311095Y-12676286D01*
X13311095Y-12676286D02*
X13311095Y-12628667D01*
X13311095Y-12628667D02*
X13320619Y-12590571D01*
X13320619Y-12590571D02*
X13330143Y-12571524D01*
X13330143Y-12571524D02*
X13339667Y-12562000D01*
X13339667Y-12562000D02*
X13358714Y-12552476D01*
X13511095Y-12733428D02*
X13520619Y-12742952D01*
X13520619Y-12742952D02*
X13511095Y-12752476D01*
X13511095Y-12752476D02*
X13501571Y-12742952D01*
X13501571Y-12742952D02*
X13511095Y-12733428D01*
X13511095Y-12733428D02*
X13511095Y-12752476D01*
X13644429Y-12552476D02*
X13663476Y-12552476D01*
X13663476Y-12552476D02*
X13682524Y-12562000D01*
X13682524Y-12562000D02*
X13692048Y-12571524D01*
X13692048Y-12571524D02*
X13701571Y-12590571D01*
X13701571Y-12590571D02*
X13711095Y-12628667D01*
X13711095Y-12628667D02*
X13711095Y-12676286D01*
X13711095Y-12676286D02*
X13701571Y-12714381D01*
X13701571Y-12714381D02*
X13692048Y-12733428D01*
X13692048Y-12733428D02*
X13682524Y-12742952D01*
X13682524Y-12742952D02*
X13663476Y-12752476D01*
X13663476Y-12752476D02*
X13644429Y-12752476D01*
X13644429Y-12752476D02*
X13625381Y-12742952D01*
X13625381Y-12742952D02*
X13615857Y-12733428D01*
X13615857Y-12733428D02*
X13606333Y-12714381D01*
X13606333Y-12714381D02*
X13596810Y-12676286D01*
X13596810Y-12676286D02*
X13596810Y-12628667D01*
X13596810Y-12628667D02*
X13606333Y-12590571D01*
X13606333Y-12590571D02*
X13615857Y-12571524D01*
X13615857Y-12571524D02*
X13625381Y-12562000D01*
X13625381Y-12562000D02*
X13644429Y-12552476D01*
X13777762Y-12552476D02*
X13901571Y-12552476D01*
X13901571Y-12552476D02*
X13834905Y-12628667D01*
X13834905Y-12628667D02*
X13863476Y-12628667D01*
X13863476Y-12628667D02*
X13882524Y-12638190D01*
X13882524Y-12638190D02*
X13892048Y-12647714D01*
X13892048Y-12647714D02*
X13901571Y-12666762D01*
X13901571Y-12666762D02*
X13901571Y-12714381D01*
X13901571Y-12714381D02*
X13892048Y-12733428D01*
X13892048Y-12733428D02*
X13882524Y-12742952D01*
X13882524Y-12742952D02*
X13863476Y-12752476D01*
X13863476Y-12752476D02*
X13806333Y-12752476D01*
X13806333Y-12752476D02*
X13787286Y-12742952D01*
X13787286Y-12742952D02*
X13777762Y-12733428D01*
X13996810Y-12752476D02*
X14034905Y-12752476D01*
X14034905Y-12752476D02*
X14053952Y-12742952D01*
X14053952Y-12742952D02*
X14063476Y-12733428D01*
X14063476Y-12733428D02*
X14082524Y-12704857D01*
X14082524Y-12704857D02*
X14092048Y-12666762D01*
X14092048Y-12666762D02*
X14092048Y-12590571D01*
X14092048Y-12590571D02*
X14082524Y-12571524D01*
X14082524Y-12571524D02*
X14073000Y-12562000D01*
X14073000Y-12562000D02*
X14053952Y-12552476D01*
X14053952Y-12552476D02*
X14015857Y-12552476D01*
X14015857Y-12552476D02*
X13996810Y-12562000D01*
X13996810Y-12562000D02*
X13987286Y-12571524D01*
X13987286Y-12571524D02*
X13977762Y-12590571D01*
X13977762Y-12590571D02*
X13977762Y-12638190D01*
X13977762Y-12638190D02*
X13987286Y-12657238D01*
X13987286Y-12657238D02*
X13996810Y-12666762D01*
X13996810Y-12666762D02*
X14015857Y-12676286D01*
X14015857Y-12676286D02*
X14053952Y-12676286D01*
X14053952Y-12676286D02*
X14073000Y-12666762D01*
X14073000Y-12666762D02*
X14082524Y-12657238D01*
X14082524Y-12657238D02*
X14092048Y-12638190D01*
X14263476Y-12619143D02*
X14263476Y-12752476D01*
X14215857Y-12542952D02*
X14168238Y-12685809D01*
X14168238Y-12685809D02*
X14292048Y-12685809D01*
X14358714Y-12552476D02*
X14358714Y-12590571D01*
X14434905Y-12552476D02*
X14434905Y-12590571D01*
X14697762Y-12828667D02*
X14688238Y-12819143D01*
X14688238Y-12819143D02*
X14669191Y-12790571D01*
X14669191Y-12790571D02*
X14659667Y-12771524D01*
X14659667Y-12771524D02*
X14650143Y-12742952D01*
X14650143Y-12742952D02*
X14640619Y-12695333D01*
X14640619Y-12695333D02*
X14640619Y-12657238D01*
X14640619Y-12657238D02*
X14650143Y-12609619D01*
X14650143Y-12609619D02*
X14659667Y-12581048D01*
X14659667Y-12581048D02*
X14669191Y-12562000D01*
X14669191Y-12562000D02*
X14688238Y-12533428D01*
X14688238Y-12533428D02*
X14697762Y-12523905D01*
X14754905Y-12552476D02*
X14878714Y-12552476D01*
X14878714Y-12552476D02*
X14812048Y-12628667D01*
X14812048Y-12628667D02*
X14840619Y-12628667D01*
X14840619Y-12628667D02*
X14859667Y-12638190D01*
X14859667Y-12638190D02*
X14869191Y-12647714D01*
X14869191Y-12647714D02*
X14878714Y-12666762D01*
X14878714Y-12666762D02*
X14878714Y-12714381D01*
X14878714Y-12714381D02*
X14869191Y-12733428D01*
X14869191Y-12733428D02*
X14859667Y-12742952D01*
X14859667Y-12742952D02*
X14840619Y-12752476D01*
X14840619Y-12752476D02*
X14783476Y-12752476D01*
X14783476Y-12752476D02*
X14764429Y-12742952D01*
X14764429Y-12742952D02*
X14754905Y-12733428D01*
X14993000Y-12638190D02*
X14973952Y-12628667D01*
X14973952Y-12628667D02*
X14964429Y-12619143D01*
X14964429Y-12619143D02*
X14954905Y-12600095D01*
X14954905Y-12600095D02*
X14954905Y-12590571D01*
X14954905Y-12590571D02*
X14964429Y-12571524D01*
X14964429Y-12571524D02*
X14973952Y-12562000D01*
X14973952Y-12562000D02*
X14993000Y-12552476D01*
X14993000Y-12552476D02*
X15031095Y-12552476D01*
X15031095Y-12552476D02*
X15050143Y-12562000D01*
X15050143Y-12562000D02*
X15059667Y-12571524D01*
X15059667Y-12571524D02*
X15069191Y-12590571D01*
X15069191Y-12590571D02*
X15069191Y-12600095D01*
X15069191Y-12600095D02*
X15059667Y-12619143D01*
X15059667Y-12619143D02*
X15050143Y-12628667D01*
X15050143Y-12628667D02*
X15031095Y-12638190D01*
X15031095Y-12638190D02*
X14993000Y-12638190D01*
X14993000Y-12638190D02*
X14973952Y-12647714D01*
X14973952Y-12647714D02*
X14964429Y-12657238D01*
X14964429Y-12657238D02*
X14954905Y-12676286D01*
X14954905Y-12676286D02*
X14954905Y-12714381D01*
X14954905Y-12714381D02*
X14964429Y-12733428D01*
X14964429Y-12733428D02*
X14973952Y-12742952D01*
X14973952Y-12742952D02*
X14993000Y-12752476D01*
X14993000Y-12752476D02*
X15031095Y-12752476D01*
X15031095Y-12752476D02*
X15050143Y-12742952D01*
X15050143Y-12742952D02*
X15059667Y-12733428D01*
X15059667Y-12733428D02*
X15069191Y-12714381D01*
X15069191Y-12714381D02*
X15069191Y-12676286D01*
X15069191Y-12676286D02*
X15059667Y-12657238D01*
X15059667Y-12657238D02*
X15050143Y-12647714D01*
X15050143Y-12647714D02*
X15031095Y-12638190D01*
X15274905Y-12752476D02*
X15274905Y-12552476D01*
X15360619Y-12752476D02*
X15360619Y-12647714D01*
X15360619Y-12647714D02*
X15351095Y-12628667D01*
X15351095Y-12628667D02*
X15332048Y-12619143D01*
X15332048Y-12619143D02*
X15303476Y-12619143D01*
X15303476Y-12619143D02*
X15284429Y-12628667D01*
X15284429Y-12628667D02*
X15274905Y-12638190D01*
X15484429Y-12752476D02*
X15465381Y-12742952D01*
X15465381Y-12742952D02*
X15455857Y-12733428D01*
X15455857Y-12733428D02*
X15446333Y-12714381D01*
X15446333Y-12714381D02*
X15446333Y-12657238D01*
X15446333Y-12657238D02*
X15455857Y-12638190D01*
X15455857Y-12638190D02*
X15465381Y-12628667D01*
X15465381Y-12628667D02*
X15484429Y-12619143D01*
X15484429Y-12619143D02*
X15513000Y-12619143D01*
X15513000Y-12619143D02*
X15532048Y-12628667D01*
X15532048Y-12628667D02*
X15541572Y-12638190D01*
X15541572Y-12638190D02*
X15551095Y-12657238D01*
X15551095Y-12657238D02*
X15551095Y-12714381D01*
X15551095Y-12714381D02*
X15541572Y-12733428D01*
X15541572Y-12733428D02*
X15532048Y-12742952D01*
X15532048Y-12742952D02*
X15513000Y-12752476D01*
X15513000Y-12752476D02*
X15484429Y-12752476D01*
X15665381Y-12752476D02*
X15646333Y-12742952D01*
X15646333Y-12742952D02*
X15636810Y-12723905D01*
X15636810Y-12723905D02*
X15636810Y-12552476D01*
X15817762Y-12742952D02*
X15798714Y-12752476D01*
X15798714Y-12752476D02*
X15760619Y-12752476D01*
X15760619Y-12752476D02*
X15741572Y-12742952D01*
X15741572Y-12742952D02*
X15732048Y-12723905D01*
X15732048Y-12723905D02*
X15732048Y-12647714D01*
X15732048Y-12647714D02*
X15741572Y-12628667D01*
X15741572Y-12628667D02*
X15760619Y-12619143D01*
X15760619Y-12619143D02*
X15798714Y-12619143D01*
X15798714Y-12619143D02*
X15817762Y-12628667D01*
X15817762Y-12628667D02*
X15827286Y-12647714D01*
X15827286Y-12647714D02*
X15827286Y-12666762D01*
X15827286Y-12666762D02*
X15732048Y-12685809D01*
X15903476Y-12742952D02*
X15922524Y-12752476D01*
X15922524Y-12752476D02*
X15960619Y-12752476D01*
X15960619Y-12752476D02*
X15979667Y-12742952D01*
X15979667Y-12742952D02*
X15989191Y-12723905D01*
X15989191Y-12723905D02*
X15989191Y-12714381D01*
X15989191Y-12714381D02*
X15979667Y-12695333D01*
X15979667Y-12695333D02*
X15960619Y-12685809D01*
X15960619Y-12685809D02*
X15932048Y-12685809D01*
X15932048Y-12685809D02*
X15913000Y-12676286D01*
X15913000Y-12676286D02*
X15903476Y-12657238D01*
X15903476Y-12657238D02*
X15903476Y-12647714D01*
X15903476Y-12647714D02*
X15913000Y-12628667D01*
X15913000Y-12628667D02*
X15932048Y-12619143D01*
X15932048Y-12619143D02*
X15960619Y-12619143D01*
X15960619Y-12619143D02*
X15979667Y-12628667D01*
X16055857Y-12828667D02*
X16065381Y-12819143D01*
X16065381Y-12819143D02*
X16084429Y-12790571D01*
X16084429Y-12790571D02*
X16093953Y-12771524D01*
X16093953Y-12771524D02*
X16103476Y-12742952D01*
X16103476Y-12742952D02*
X16113000Y-12695333D01*
X16113000Y-12695333D02*
X16113000Y-12657238D01*
X16113000Y-12657238D02*
X16103476Y-12609619D01*
X16103476Y-12609619D02*
X16093953Y-12581048D01*
X16093953Y-12581048D02*
X16084429Y-12562000D01*
X16084429Y-12562000D02*
X16065381Y-12533428D01*
X16065381Y-12533428D02*
X16055857Y-12523905D01*
D15*
X11182000Y-12994000D02*
X11233000Y-12943000D01*
X11182000Y-12892000D01*
X11131000Y-12943000D01*
X11182000Y-12994000D01*
D11*
X11585381Y-13016476D02*
X11471095Y-13016476D01*
X11528238Y-13016476D02*
X11528238Y-12816476D01*
X11528238Y-12816476D02*
X11509190Y-12845048D01*
X11509190Y-12845048D02*
X11490143Y-12864095D01*
X11490143Y-12864095D02*
X11471095Y-12873619D01*
X11671095Y-12997428D02*
X11680619Y-13006952D01*
X11680619Y-13006952D02*
X11671095Y-13016476D01*
X11671095Y-13016476D02*
X11661571Y-13006952D01*
X11661571Y-13006952D02*
X11671095Y-12997428D01*
X11671095Y-12997428D02*
X11671095Y-13016476D01*
X11804428Y-12816476D02*
X11823476Y-12816476D01*
X11823476Y-12816476D02*
X11842524Y-12826000D01*
X11842524Y-12826000D02*
X11852048Y-12835524D01*
X11852048Y-12835524D02*
X11861571Y-12854571D01*
X11861571Y-12854571D02*
X11871095Y-12892667D01*
X11871095Y-12892667D02*
X11871095Y-12940286D01*
X11871095Y-12940286D02*
X11861571Y-12978381D01*
X11861571Y-12978381D02*
X11852048Y-12997428D01*
X11852048Y-12997428D02*
X11842524Y-13006952D01*
X11842524Y-13006952D02*
X11823476Y-13016476D01*
X11823476Y-13016476D02*
X11804428Y-13016476D01*
X11804428Y-13016476D02*
X11785381Y-13006952D01*
X11785381Y-13006952D02*
X11775857Y-12997428D01*
X11775857Y-12997428D02*
X11766333Y-12978381D01*
X11766333Y-12978381D02*
X11756809Y-12940286D01*
X11756809Y-12940286D02*
X11756809Y-12892667D01*
X11756809Y-12892667D02*
X11766333Y-12854571D01*
X11766333Y-12854571D02*
X11775857Y-12835524D01*
X11775857Y-12835524D02*
X11785381Y-12826000D01*
X11785381Y-12826000D02*
X11804428Y-12816476D01*
X11947286Y-12835524D02*
X11956809Y-12826000D01*
X11956809Y-12826000D02*
X11975857Y-12816476D01*
X11975857Y-12816476D02*
X12023476Y-12816476D01*
X12023476Y-12816476D02*
X12042524Y-12826000D01*
X12042524Y-12826000D02*
X12052048Y-12835524D01*
X12052048Y-12835524D02*
X12061571Y-12854571D01*
X12061571Y-12854571D02*
X12061571Y-12873619D01*
X12061571Y-12873619D02*
X12052048Y-12902190D01*
X12052048Y-12902190D02*
X11937762Y-13016476D01*
X11937762Y-13016476D02*
X12061571Y-13016476D01*
X12185381Y-12816476D02*
X12204429Y-12816476D01*
X12204429Y-12816476D02*
X12223476Y-12826000D01*
X12223476Y-12826000D02*
X12233000Y-12835524D01*
X12233000Y-12835524D02*
X12242524Y-12854571D01*
X12242524Y-12854571D02*
X12252048Y-12892667D01*
X12252048Y-12892667D02*
X12252048Y-12940286D01*
X12252048Y-12940286D02*
X12242524Y-12978381D01*
X12242524Y-12978381D02*
X12233000Y-12997428D01*
X12233000Y-12997428D02*
X12223476Y-13006952D01*
X12223476Y-13006952D02*
X12204429Y-13016476D01*
X12204429Y-13016476D02*
X12185381Y-13016476D01*
X12185381Y-13016476D02*
X12166333Y-13006952D01*
X12166333Y-13006952D02*
X12156809Y-12997428D01*
X12156809Y-12997428D02*
X12147286Y-12978381D01*
X12147286Y-12978381D02*
X12137762Y-12940286D01*
X12137762Y-12940286D02*
X12137762Y-12892667D01*
X12137762Y-12892667D02*
X12147286Y-12854571D01*
X12147286Y-12854571D02*
X12156809Y-12835524D01*
X12156809Y-12835524D02*
X12166333Y-12826000D01*
X12166333Y-12826000D02*
X12185381Y-12816476D01*
X12337762Y-13016476D02*
X12337762Y-12883143D01*
X12337762Y-12902190D02*
X12347286Y-12892667D01*
X12347286Y-12892667D02*
X12366333Y-12883143D01*
X12366333Y-12883143D02*
X12394905Y-12883143D01*
X12394905Y-12883143D02*
X12413952Y-12892667D01*
X12413952Y-12892667D02*
X12423476Y-12911714D01*
X12423476Y-12911714D02*
X12423476Y-13016476D01*
X12423476Y-12911714D02*
X12433000Y-12892667D01*
X12433000Y-12892667D02*
X12452048Y-12883143D01*
X12452048Y-12883143D02*
X12480619Y-12883143D01*
X12480619Y-12883143D02*
X12499667Y-12892667D01*
X12499667Y-12892667D02*
X12509190Y-12911714D01*
X12509190Y-12911714D02*
X12509190Y-13016476D01*
X12604429Y-13016476D02*
X12604429Y-12883143D01*
X12604429Y-12902190D02*
X12613952Y-12892667D01*
X12613952Y-12892667D02*
X12633000Y-12883143D01*
X12633000Y-12883143D02*
X12661571Y-12883143D01*
X12661571Y-12883143D02*
X12680619Y-12892667D01*
X12680619Y-12892667D02*
X12690143Y-12911714D01*
X12690143Y-12911714D02*
X12690143Y-13016476D01*
X12690143Y-12911714D02*
X12699667Y-12892667D01*
X12699667Y-12892667D02*
X12718714Y-12883143D01*
X12718714Y-12883143D02*
X12747286Y-12883143D01*
X12747286Y-12883143D02*
X12766333Y-12892667D01*
X12766333Y-12892667D02*
X12775857Y-12911714D01*
X12775857Y-12911714D02*
X12775857Y-13016476D01*
X13133952Y-12806952D02*
X12962524Y-13064095D01*
X13358714Y-12816476D02*
X13377762Y-12816476D01*
X13377762Y-12816476D02*
X13396810Y-12826000D01*
X13396810Y-12826000D02*
X13406333Y-12835524D01*
X13406333Y-12835524D02*
X13415857Y-12854571D01*
X13415857Y-12854571D02*
X13425381Y-12892667D01*
X13425381Y-12892667D02*
X13425381Y-12940286D01*
X13425381Y-12940286D02*
X13415857Y-12978381D01*
X13415857Y-12978381D02*
X13406333Y-12997428D01*
X13406333Y-12997428D02*
X13396810Y-13006952D01*
X13396810Y-13006952D02*
X13377762Y-13016476D01*
X13377762Y-13016476D02*
X13358714Y-13016476D01*
X13358714Y-13016476D02*
X13339667Y-13006952D01*
X13339667Y-13006952D02*
X13330143Y-12997428D01*
X13330143Y-12997428D02*
X13320619Y-12978381D01*
X13320619Y-12978381D02*
X13311095Y-12940286D01*
X13311095Y-12940286D02*
X13311095Y-12892667D01*
X13311095Y-12892667D02*
X13320619Y-12854571D01*
X13320619Y-12854571D02*
X13330143Y-12835524D01*
X13330143Y-12835524D02*
X13339667Y-12826000D01*
X13339667Y-12826000D02*
X13358714Y-12816476D01*
X13511095Y-12997428D02*
X13520619Y-13006952D01*
X13520619Y-13006952D02*
X13511095Y-13016476D01*
X13511095Y-13016476D02*
X13501571Y-13006952D01*
X13501571Y-13006952D02*
X13511095Y-12997428D01*
X13511095Y-12997428D02*
X13511095Y-13016476D01*
X13644429Y-12816476D02*
X13663476Y-12816476D01*
X13663476Y-12816476D02*
X13682524Y-12826000D01*
X13682524Y-12826000D02*
X13692048Y-12835524D01*
X13692048Y-12835524D02*
X13701571Y-12854571D01*
X13701571Y-12854571D02*
X13711095Y-12892667D01*
X13711095Y-12892667D02*
X13711095Y-12940286D01*
X13711095Y-12940286D02*
X13701571Y-12978381D01*
X13701571Y-12978381D02*
X13692048Y-12997428D01*
X13692048Y-12997428D02*
X13682524Y-13006952D01*
X13682524Y-13006952D02*
X13663476Y-13016476D01*
X13663476Y-13016476D02*
X13644429Y-13016476D01*
X13644429Y-13016476D02*
X13625381Y-13006952D01*
X13625381Y-13006952D02*
X13615857Y-12997428D01*
X13615857Y-12997428D02*
X13606333Y-12978381D01*
X13606333Y-12978381D02*
X13596810Y-12940286D01*
X13596810Y-12940286D02*
X13596810Y-12892667D01*
X13596810Y-12892667D02*
X13606333Y-12854571D01*
X13606333Y-12854571D02*
X13615857Y-12835524D01*
X13615857Y-12835524D02*
X13625381Y-12826000D01*
X13625381Y-12826000D02*
X13644429Y-12816476D01*
X13882524Y-12883143D02*
X13882524Y-13016476D01*
X13834905Y-12806952D02*
X13787286Y-12949809D01*
X13787286Y-12949809D02*
X13911095Y-12949809D01*
X14025381Y-12816476D02*
X14044429Y-12816476D01*
X14044429Y-12816476D02*
X14063476Y-12826000D01*
X14063476Y-12826000D02*
X14073000Y-12835524D01*
X14073000Y-12835524D02*
X14082524Y-12854571D01*
X14082524Y-12854571D02*
X14092048Y-12892667D01*
X14092048Y-12892667D02*
X14092048Y-12940286D01*
X14092048Y-12940286D02*
X14082524Y-12978381D01*
X14082524Y-12978381D02*
X14073000Y-12997428D01*
X14073000Y-12997428D02*
X14063476Y-13006952D01*
X14063476Y-13006952D02*
X14044429Y-13016476D01*
X14044429Y-13016476D02*
X14025381Y-13016476D01*
X14025381Y-13016476D02*
X14006333Y-13006952D01*
X14006333Y-13006952D02*
X13996810Y-12997428D01*
X13996810Y-12997428D02*
X13987286Y-12978381D01*
X13987286Y-12978381D02*
X13977762Y-12940286D01*
X13977762Y-12940286D02*
X13977762Y-12892667D01*
X13977762Y-12892667D02*
X13987286Y-12854571D01*
X13987286Y-12854571D02*
X13996810Y-12835524D01*
X13996810Y-12835524D02*
X14006333Y-12826000D01*
X14006333Y-12826000D02*
X14025381Y-12816476D01*
X14168238Y-12835524D02*
X14177762Y-12826000D01*
X14177762Y-12826000D02*
X14196810Y-12816476D01*
X14196810Y-12816476D02*
X14244429Y-12816476D01*
X14244429Y-12816476D02*
X14263476Y-12826000D01*
X14263476Y-12826000D02*
X14273000Y-12835524D01*
X14273000Y-12835524D02*
X14282524Y-12854571D01*
X14282524Y-12854571D02*
X14282524Y-12873619D01*
X14282524Y-12873619D02*
X14273000Y-12902190D01*
X14273000Y-12902190D02*
X14158714Y-13016476D01*
X14158714Y-13016476D02*
X14282524Y-13016476D01*
X14358714Y-12816476D02*
X14358714Y-12854571D01*
X14434905Y-12816476D02*
X14434905Y-12854571D01*
X14697762Y-13092667D02*
X14688238Y-13083143D01*
X14688238Y-13083143D02*
X14669191Y-13054571D01*
X14669191Y-13054571D02*
X14659667Y-13035524D01*
X14659667Y-13035524D02*
X14650143Y-13006952D01*
X14650143Y-13006952D02*
X14640619Y-12959333D01*
X14640619Y-12959333D02*
X14640619Y-12921238D01*
X14640619Y-12921238D02*
X14650143Y-12873619D01*
X14650143Y-12873619D02*
X14659667Y-12845048D01*
X14659667Y-12845048D02*
X14669191Y-12826000D01*
X14669191Y-12826000D02*
X14688238Y-12797428D01*
X14688238Y-12797428D02*
X14697762Y-12787905D01*
X14802524Y-12902190D02*
X14783476Y-12892667D01*
X14783476Y-12892667D02*
X14773952Y-12883143D01*
X14773952Y-12883143D02*
X14764429Y-12864095D01*
X14764429Y-12864095D02*
X14764429Y-12854571D01*
X14764429Y-12854571D02*
X14773952Y-12835524D01*
X14773952Y-12835524D02*
X14783476Y-12826000D01*
X14783476Y-12826000D02*
X14802524Y-12816476D01*
X14802524Y-12816476D02*
X14840619Y-12816476D01*
X14840619Y-12816476D02*
X14859667Y-12826000D01*
X14859667Y-12826000D02*
X14869191Y-12835524D01*
X14869191Y-12835524D02*
X14878714Y-12854571D01*
X14878714Y-12854571D02*
X14878714Y-12864095D01*
X14878714Y-12864095D02*
X14869191Y-12883143D01*
X14869191Y-12883143D02*
X14859667Y-12892667D01*
X14859667Y-12892667D02*
X14840619Y-12902190D01*
X14840619Y-12902190D02*
X14802524Y-12902190D01*
X14802524Y-12902190D02*
X14783476Y-12911714D01*
X14783476Y-12911714D02*
X14773952Y-12921238D01*
X14773952Y-12921238D02*
X14764429Y-12940286D01*
X14764429Y-12940286D02*
X14764429Y-12978381D01*
X14764429Y-12978381D02*
X14773952Y-12997428D01*
X14773952Y-12997428D02*
X14783476Y-13006952D01*
X14783476Y-13006952D02*
X14802524Y-13016476D01*
X14802524Y-13016476D02*
X14840619Y-13016476D01*
X14840619Y-13016476D02*
X14859667Y-13006952D01*
X14859667Y-13006952D02*
X14869191Y-12997428D01*
X14869191Y-12997428D02*
X14878714Y-12978381D01*
X14878714Y-12978381D02*
X14878714Y-12940286D01*
X14878714Y-12940286D02*
X14869191Y-12921238D01*
X14869191Y-12921238D02*
X14859667Y-12911714D01*
X14859667Y-12911714D02*
X14840619Y-12902190D01*
X15084429Y-13016476D02*
X15084429Y-12816476D01*
X15170143Y-13016476D02*
X15170143Y-12911714D01*
X15170143Y-12911714D02*
X15160619Y-12892667D01*
X15160619Y-12892667D02*
X15141572Y-12883143D01*
X15141572Y-12883143D02*
X15113000Y-12883143D01*
X15113000Y-12883143D02*
X15093952Y-12892667D01*
X15093952Y-12892667D02*
X15084429Y-12902190D01*
X15293952Y-13016476D02*
X15274905Y-13006952D01*
X15274905Y-13006952D02*
X15265381Y-12997428D01*
X15265381Y-12997428D02*
X15255857Y-12978381D01*
X15255857Y-12978381D02*
X15255857Y-12921238D01*
X15255857Y-12921238D02*
X15265381Y-12902190D01*
X15265381Y-12902190D02*
X15274905Y-12892667D01*
X15274905Y-12892667D02*
X15293952Y-12883143D01*
X15293952Y-12883143D02*
X15322524Y-12883143D01*
X15322524Y-12883143D02*
X15341572Y-12892667D01*
X15341572Y-12892667D02*
X15351095Y-12902190D01*
X15351095Y-12902190D02*
X15360619Y-12921238D01*
X15360619Y-12921238D02*
X15360619Y-12978381D01*
X15360619Y-12978381D02*
X15351095Y-12997428D01*
X15351095Y-12997428D02*
X15341572Y-13006952D01*
X15341572Y-13006952D02*
X15322524Y-13016476D01*
X15322524Y-13016476D02*
X15293952Y-13016476D01*
X15474905Y-13016476D02*
X15455857Y-13006952D01*
X15455857Y-13006952D02*
X15446333Y-12987905D01*
X15446333Y-12987905D02*
X15446333Y-12816476D01*
X15627286Y-13006952D02*
X15608238Y-13016476D01*
X15608238Y-13016476D02*
X15570143Y-13016476D01*
X15570143Y-13016476D02*
X15551095Y-13006952D01*
X15551095Y-13006952D02*
X15541572Y-12987905D01*
X15541572Y-12987905D02*
X15541572Y-12911714D01*
X15541572Y-12911714D02*
X15551095Y-12892667D01*
X15551095Y-12892667D02*
X15570143Y-12883143D01*
X15570143Y-12883143D02*
X15608238Y-12883143D01*
X15608238Y-12883143D02*
X15627286Y-12892667D01*
X15627286Y-12892667D02*
X15636810Y-12911714D01*
X15636810Y-12911714D02*
X15636810Y-12930762D01*
X15636810Y-12930762D02*
X15541572Y-12949809D01*
X15713000Y-13006952D02*
X15732048Y-13016476D01*
X15732048Y-13016476D02*
X15770143Y-13016476D01*
X15770143Y-13016476D02*
X15789191Y-13006952D01*
X15789191Y-13006952D02*
X15798714Y-12987905D01*
X15798714Y-12987905D02*
X15798714Y-12978381D01*
X15798714Y-12978381D02*
X15789191Y-12959333D01*
X15789191Y-12959333D02*
X15770143Y-12949809D01*
X15770143Y-12949809D02*
X15741572Y-12949809D01*
X15741572Y-12949809D02*
X15722524Y-12940286D01*
X15722524Y-12940286D02*
X15713000Y-12921238D01*
X15713000Y-12921238D02*
X15713000Y-12911714D01*
X15713000Y-12911714D02*
X15722524Y-12892667D01*
X15722524Y-12892667D02*
X15741572Y-12883143D01*
X15741572Y-12883143D02*
X15770143Y-12883143D01*
X15770143Y-12883143D02*
X15789191Y-12892667D01*
X15865381Y-13092667D02*
X15874905Y-13083143D01*
X15874905Y-13083143D02*
X15893953Y-13054571D01*
X15893953Y-13054571D02*
X15903476Y-13035524D01*
X15903476Y-13035524D02*
X15913000Y-13006952D01*
X15913000Y-13006952D02*
X15922524Y-12959333D01*
X15922524Y-12959333D02*
X15922524Y-12921238D01*
X15922524Y-12921238D02*
X15913000Y-12873619D01*
X15913000Y-12873619D02*
X15903476Y-12845048D01*
X15903476Y-12845048D02*
X15893953Y-12826000D01*
X15893953Y-12826000D02*
X15874905Y-12797428D01*
X15874905Y-12797428D02*
X15865381Y-12787905D01*
D16*
X11079000Y-13130000D02*
X11233000Y-13284000D01*
X11233000Y-13130000D02*
X11079000Y-13284000D01*
X11233000Y-13207000D02*
G75*
G03*
X11233000Y-13207000I-77000J0D01*
G01*
D11*
X11585381Y-13280476D02*
X11471095Y-13280476D01*
X11528238Y-13280476D02*
X11528238Y-13080476D01*
X11528238Y-13080476D02*
X11509190Y-13109048D01*
X11509190Y-13109048D02*
X11490143Y-13128095D01*
X11490143Y-13128095D02*
X11471095Y-13137619D01*
X11671095Y-13261428D02*
X11680619Y-13270952D01*
X11680619Y-13270952D02*
X11671095Y-13280476D01*
X11671095Y-13280476D02*
X11661571Y-13270952D01*
X11661571Y-13270952D02*
X11671095Y-13261428D01*
X11671095Y-13261428D02*
X11671095Y-13280476D01*
X11861571Y-13080476D02*
X11766333Y-13080476D01*
X11766333Y-13080476D02*
X11756809Y-13175714D01*
X11756809Y-13175714D02*
X11766333Y-13166190D01*
X11766333Y-13166190D02*
X11785381Y-13156667D01*
X11785381Y-13156667D02*
X11833000Y-13156667D01*
X11833000Y-13156667D02*
X11852048Y-13166190D01*
X11852048Y-13166190D02*
X11861571Y-13175714D01*
X11861571Y-13175714D02*
X11871095Y-13194762D01*
X11871095Y-13194762D02*
X11871095Y-13242381D01*
X11871095Y-13242381D02*
X11861571Y-13261428D01*
X11861571Y-13261428D02*
X11852048Y-13270952D01*
X11852048Y-13270952D02*
X11833000Y-13280476D01*
X11833000Y-13280476D02*
X11785381Y-13280476D01*
X11785381Y-13280476D02*
X11766333Y-13270952D01*
X11766333Y-13270952D02*
X11756809Y-13261428D01*
X12042524Y-13147143D02*
X12042524Y-13280476D01*
X11994905Y-13070952D02*
X11947286Y-13213809D01*
X11947286Y-13213809D02*
X12071095Y-13213809D01*
X12185381Y-13080476D02*
X12204429Y-13080476D01*
X12204429Y-13080476D02*
X12223476Y-13090000D01*
X12223476Y-13090000D02*
X12233000Y-13099524D01*
X12233000Y-13099524D02*
X12242524Y-13118571D01*
X12242524Y-13118571D02*
X12252048Y-13156667D01*
X12252048Y-13156667D02*
X12252048Y-13204286D01*
X12252048Y-13204286D02*
X12242524Y-13242381D01*
X12242524Y-13242381D02*
X12233000Y-13261428D01*
X12233000Y-13261428D02*
X12223476Y-13270952D01*
X12223476Y-13270952D02*
X12204429Y-13280476D01*
X12204429Y-13280476D02*
X12185381Y-13280476D01*
X12185381Y-13280476D02*
X12166333Y-13270952D01*
X12166333Y-13270952D02*
X12156809Y-13261428D01*
X12156809Y-13261428D02*
X12147286Y-13242381D01*
X12147286Y-13242381D02*
X12137762Y-13204286D01*
X12137762Y-13204286D02*
X12137762Y-13156667D01*
X12137762Y-13156667D02*
X12147286Y-13118571D01*
X12147286Y-13118571D02*
X12156809Y-13099524D01*
X12156809Y-13099524D02*
X12166333Y-13090000D01*
X12166333Y-13090000D02*
X12185381Y-13080476D01*
X12337762Y-13280476D02*
X12337762Y-13147143D01*
X12337762Y-13166190D02*
X12347286Y-13156667D01*
X12347286Y-13156667D02*
X12366333Y-13147143D01*
X12366333Y-13147143D02*
X12394905Y-13147143D01*
X12394905Y-13147143D02*
X12413952Y-13156667D01*
X12413952Y-13156667D02*
X12423476Y-13175714D01*
X12423476Y-13175714D02*
X12423476Y-13280476D01*
X12423476Y-13175714D02*
X12433000Y-13156667D01*
X12433000Y-13156667D02*
X12452048Y-13147143D01*
X12452048Y-13147143D02*
X12480619Y-13147143D01*
X12480619Y-13147143D02*
X12499667Y-13156667D01*
X12499667Y-13156667D02*
X12509190Y-13175714D01*
X12509190Y-13175714D02*
X12509190Y-13280476D01*
X12604429Y-13280476D02*
X12604429Y-13147143D01*
X12604429Y-13166190D02*
X12613952Y-13156667D01*
X12613952Y-13156667D02*
X12633000Y-13147143D01*
X12633000Y-13147143D02*
X12661571Y-13147143D01*
X12661571Y-13147143D02*
X12680619Y-13156667D01*
X12680619Y-13156667D02*
X12690143Y-13175714D01*
X12690143Y-13175714D02*
X12690143Y-13280476D01*
X12690143Y-13175714D02*
X12699667Y-13156667D01*
X12699667Y-13156667D02*
X12718714Y-13147143D01*
X12718714Y-13147143D02*
X12747286Y-13147143D01*
X12747286Y-13147143D02*
X12766333Y-13156667D01*
X12766333Y-13156667D02*
X12775857Y-13175714D01*
X12775857Y-13175714D02*
X12775857Y-13280476D01*
X13133952Y-13070952D02*
X12962524Y-13328095D01*
X13358714Y-13080476D02*
X13377762Y-13080476D01*
X13377762Y-13080476D02*
X13396810Y-13090000D01*
X13396810Y-13090000D02*
X13406333Y-13099524D01*
X13406333Y-13099524D02*
X13415857Y-13118571D01*
X13415857Y-13118571D02*
X13425381Y-13156667D01*
X13425381Y-13156667D02*
X13425381Y-13204286D01*
X13425381Y-13204286D02*
X13415857Y-13242381D01*
X13415857Y-13242381D02*
X13406333Y-13261428D01*
X13406333Y-13261428D02*
X13396810Y-13270952D01*
X13396810Y-13270952D02*
X13377762Y-13280476D01*
X13377762Y-13280476D02*
X13358714Y-13280476D01*
X13358714Y-13280476D02*
X13339667Y-13270952D01*
X13339667Y-13270952D02*
X13330143Y-13261428D01*
X13330143Y-13261428D02*
X13320619Y-13242381D01*
X13320619Y-13242381D02*
X13311095Y-13204286D01*
X13311095Y-13204286D02*
X13311095Y-13156667D01*
X13311095Y-13156667D02*
X13320619Y-13118571D01*
X13320619Y-13118571D02*
X13330143Y-13099524D01*
X13330143Y-13099524D02*
X13339667Y-13090000D01*
X13339667Y-13090000D02*
X13358714Y-13080476D01*
X13511095Y-13261428D02*
X13520619Y-13270952D01*
X13520619Y-13270952D02*
X13511095Y-13280476D01*
X13511095Y-13280476D02*
X13501571Y-13270952D01*
X13501571Y-13270952D02*
X13511095Y-13261428D01*
X13511095Y-13261428D02*
X13511095Y-13280476D01*
X13644429Y-13080476D02*
X13663476Y-13080476D01*
X13663476Y-13080476D02*
X13682524Y-13090000D01*
X13682524Y-13090000D02*
X13692048Y-13099524D01*
X13692048Y-13099524D02*
X13701571Y-13118571D01*
X13701571Y-13118571D02*
X13711095Y-13156667D01*
X13711095Y-13156667D02*
X13711095Y-13204286D01*
X13711095Y-13204286D02*
X13701571Y-13242381D01*
X13701571Y-13242381D02*
X13692048Y-13261428D01*
X13692048Y-13261428D02*
X13682524Y-13270952D01*
X13682524Y-13270952D02*
X13663476Y-13280476D01*
X13663476Y-13280476D02*
X13644429Y-13280476D01*
X13644429Y-13280476D02*
X13625381Y-13270952D01*
X13625381Y-13270952D02*
X13615857Y-13261428D01*
X13615857Y-13261428D02*
X13606333Y-13242381D01*
X13606333Y-13242381D02*
X13596810Y-13204286D01*
X13596810Y-13204286D02*
X13596810Y-13156667D01*
X13596810Y-13156667D02*
X13606333Y-13118571D01*
X13606333Y-13118571D02*
X13615857Y-13099524D01*
X13615857Y-13099524D02*
X13625381Y-13090000D01*
X13625381Y-13090000D02*
X13644429Y-13080476D01*
X13882524Y-13080476D02*
X13844429Y-13080476D01*
X13844429Y-13080476D02*
X13825381Y-13090000D01*
X13825381Y-13090000D02*
X13815857Y-13099524D01*
X13815857Y-13099524D02*
X13796810Y-13128095D01*
X13796810Y-13128095D02*
X13787286Y-13166190D01*
X13787286Y-13166190D02*
X13787286Y-13242381D01*
X13787286Y-13242381D02*
X13796810Y-13261428D01*
X13796810Y-13261428D02*
X13806333Y-13270952D01*
X13806333Y-13270952D02*
X13825381Y-13280476D01*
X13825381Y-13280476D02*
X13863476Y-13280476D01*
X13863476Y-13280476D02*
X13882524Y-13270952D01*
X13882524Y-13270952D02*
X13892048Y-13261428D01*
X13892048Y-13261428D02*
X13901571Y-13242381D01*
X13901571Y-13242381D02*
X13901571Y-13194762D01*
X13901571Y-13194762D02*
X13892048Y-13175714D01*
X13892048Y-13175714D02*
X13882524Y-13166190D01*
X13882524Y-13166190D02*
X13863476Y-13156667D01*
X13863476Y-13156667D02*
X13825381Y-13156667D01*
X13825381Y-13156667D02*
X13806333Y-13166190D01*
X13806333Y-13166190D02*
X13796810Y-13175714D01*
X13796810Y-13175714D02*
X13787286Y-13194762D01*
X14025381Y-13080476D02*
X14044429Y-13080476D01*
X14044429Y-13080476D02*
X14063476Y-13090000D01*
X14063476Y-13090000D02*
X14073000Y-13099524D01*
X14073000Y-13099524D02*
X14082524Y-13118571D01*
X14082524Y-13118571D02*
X14092048Y-13156667D01*
X14092048Y-13156667D02*
X14092048Y-13204286D01*
X14092048Y-13204286D02*
X14082524Y-13242381D01*
X14082524Y-13242381D02*
X14073000Y-13261428D01*
X14073000Y-13261428D02*
X14063476Y-13270952D01*
X14063476Y-13270952D02*
X14044429Y-13280476D01*
X14044429Y-13280476D02*
X14025381Y-13280476D01*
X14025381Y-13280476D02*
X14006333Y-13270952D01*
X14006333Y-13270952D02*
X13996810Y-13261428D01*
X13996810Y-13261428D02*
X13987286Y-13242381D01*
X13987286Y-13242381D02*
X13977762Y-13204286D01*
X13977762Y-13204286D02*
X13977762Y-13156667D01*
X13977762Y-13156667D02*
X13987286Y-13118571D01*
X13987286Y-13118571D02*
X13996810Y-13099524D01*
X13996810Y-13099524D02*
X14006333Y-13090000D01*
X14006333Y-13090000D02*
X14025381Y-13080476D01*
X14263476Y-13080476D02*
X14225381Y-13080476D01*
X14225381Y-13080476D02*
X14206333Y-13090000D01*
X14206333Y-13090000D02*
X14196810Y-13099524D01*
X14196810Y-13099524D02*
X14177762Y-13128095D01*
X14177762Y-13128095D02*
X14168238Y-13166190D01*
X14168238Y-13166190D02*
X14168238Y-13242381D01*
X14168238Y-13242381D02*
X14177762Y-13261428D01*
X14177762Y-13261428D02*
X14187286Y-13270952D01*
X14187286Y-13270952D02*
X14206333Y-13280476D01*
X14206333Y-13280476D02*
X14244429Y-13280476D01*
X14244429Y-13280476D02*
X14263476Y-13270952D01*
X14263476Y-13270952D02*
X14273000Y-13261428D01*
X14273000Y-13261428D02*
X14282524Y-13242381D01*
X14282524Y-13242381D02*
X14282524Y-13194762D01*
X14282524Y-13194762D02*
X14273000Y-13175714D01*
X14273000Y-13175714D02*
X14263476Y-13166190D01*
X14263476Y-13166190D02*
X14244429Y-13156667D01*
X14244429Y-13156667D02*
X14206333Y-13156667D01*
X14206333Y-13156667D02*
X14187286Y-13166190D01*
X14187286Y-13166190D02*
X14177762Y-13175714D01*
X14177762Y-13175714D02*
X14168238Y-13194762D01*
X14358714Y-13080476D02*
X14358714Y-13118571D01*
X14434905Y-13080476D02*
X14434905Y-13118571D01*
X14697762Y-13356667D02*
X14688238Y-13347143D01*
X14688238Y-13347143D02*
X14669191Y-13318571D01*
X14669191Y-13318571D02*
X14659667Y-13299524D01*
X14659667Y-13299524D02*
X14650143Y-13270952D01*
X14650143Y-13270952D02*
X14640619Y-13223333D01*
X14640619Y-13223333D02*
X14640619Y-13185238D01*
X14640619Y-13185238D02*
X14650143Y-13137619D01*
X14650143Y-13137619D02*
X14659667Y-13109048D01*
X14659667Y-13109048D02*
X14669191Y-13090000D01*
X14669191Y-13090000D02*
X14688238Y-13061428D01*
X14688238Y-13061428D02*
X14697762Y-13051905D01*
X14859667Y-13080476D02*
X14821571Y-13080476D01*
X14821571Y-13080476D02*
X14802524Y-13090000D01*
X14802524Y-13090000D02*
X14793000Y-13099524D01*
X14793000Y-13099524D02*
X14773952Y-13128095D01*
X14773952Y-13128095D02*
X14764429Y-13166190D01*
X14764429Y-13166190D02*
X14764429Y-13242381D01*
X14764429Y-13242381D02*
X14773952Y-13261428D01*
X14773952Y-13261428D02*
X14783476Y-13270952D01*
X14783476Y-13270952D02*
X14802524Y-13280476D01*
X14802524Y-13280476D02*
X14840619Y-13280476D01*
X14840619Y-13280476D02*
X14859667Y-13270952D01*
X14859667Y-13270952D02*
X14869191Y-13261428D01*
X14869191Y-13261428D02*
X14878714Y-13242381D01*
X14878714Y-13242381D02*
X14878714Y-13194762D01*
X14878714Y-13194762D02*
X14869191Y-13175714D01*
X14869191Y-13175714D02*
X14859667Y-13166190D01*
X14859667Y-13166190D02*
X14840619Y-13156667D01*
X14840619Y-13156667D02*
X14802524Y-13156667D01*
X14802524Y-13156667D02*
X14783476Y-13166190D01*
X14783476Y-13166190D02*
X14773952Y-13175714D01*
X14773952Y-13175714D02*
X14764429Y-13194762D01*
X15084429Y-13280476D02*
X15084429Y-13080476D01*
X15170143Y-13280476D02*
X15170143Y-13175714D01*
X15170143Y-13175714D02*
X15160619Y-13156667D01*
X15160619Y-13156667D02*
X15141572Y-13147143D01*
X15141572Y-13147143D02*
X15113000Y-13147143D01*
X15113000Y-13147143D02*
X15093952Y-13156667D01*
X15093952Y-13156667D02*
X15084429Y-13166190D01*
X15293952Y-13280476D02*
X15274905Y-13270952D01*
X15274905Y-13270952D02*
X15265381Y-13261428D01*
X15265381Y-13261428D02*
X15255857Y-13242381D01*
X15255857Y-13242381D02*
X15255857Y-13185238D01*
X15255857Y-13185238D02*
X15265381Y-13166190D01*
X15265381Y-13166190D02*
X15274905Y-13156667D01*
X15274905Y-13156667D02*
X15293952Y-13147143D01*
X15293952Y-13147143D02*
X15322524Y-13147143D01*
X15322524Y-13147143D02*
X15341572Y-13156667D01*
X15341572Y-13156667D02*
X15351095Y-13166190D01*
X15351095Y-13166190D02*
X15360619Y-13185238D01*
X15360619Y-13185238D02*
X15360619Y-13242381D01*
X15360619Y-13242381D02*
X15351095Y-13261428D01*
X15351095Y-13261428D02*
X15341572Y-13270952D01*
X15341572Y-13270952D02*
X15322524Y-13280476D01*
X15322524Y-13280476D02*
X15293952Y-13280476D01*
X15474905Y-13280476D02*
X15455857Y-13270952D01*
X15455857Y-13270952D02*
X15446333Y-13251905D01*
X15446333Y-13251905D02*
X15446333Y-13080476D01*
X15627286Y-13270952D02*
X15608238Y-13280476D01*
X15608238Y-13280476D02*
X15570143Y-13280476D01*
X15570143Y-13280476D02*
X15551095Y-13270952D01*
X15551095Y-13270952D02*
X15541572Y-13251905D01*
X15541572Y-13251905D02*
X15541572Y-13175714D01*
X15541572Y-13175714D02*
X15551095Y-13156667D01*
X15551095Y-13156667D02*
X15570143Y-13147143D01*
X15570143Y-13147143D02*
X15608238Y-13147143D01*
X15608238Y-13147143D02*
X15627286Y-13156667D01*
X15627286Y-13156667D02*
X15636810Y-13175714D01*
X15636810Y-13175714D02*
X15636810Y-13194762D01*
X15636810Y-13194762D02*
X15541572Y-13213809D01*
X15713000Y-13270952D02*
X15732048Y-13280476D01*
X15732048Y-13280476D02*
X15770143Y-13280476D01*
X15770143Y-13280476D02*
X15789191Y-13270952D01*
X15789191Y-13270952D02*
X15798714Y-13251905D01*
X15798714Y-13251905D02*
X15798714Y-13242381D01*
X15798714Y-13242381D02*
X15789191Y-13223333D01*
X15789191Y-13223333D02*
X15770143Y-13213809D01*
X15770143Y-13213809D02*
X15741572Y-13213809D01*
X15741572Y-13213809D02*
X15722524Y-13204286D01*
X15722524Y-13204286D02*
X15713000Y-13185238D01*
X15713000Y-13185238D02*
X15713000Y-13175714D01*
X15713000Y-13175714D02*
X15722524Y-13156667D01*
X15722524Y-13156667D02*
X15741572Y-13147143D01*
X15741572Y-13147143D02*
X15770143Y-13147143D01*
X15770143Y-13147143D02*
X15789191Y-13156667D01*
X15865381Y-13356667D02*
X15874905Y-13347143D01*
X15874905Y-13347143D02*
X15893953Y-13318571D01*
X15893953Y-13318571D02*
X15903476Y-13299524D01*
X15903476Y-13299524D02*
X15913000Y-13270952D01*
X15913000Y-13270952D02*
X15922524Y-13223333D01*
X15922524Y-13223333D02*
X15922524Y-13185238D01*
X15922524Y-13185238D02*
X15913000Y-13137619D01*
X15913000Y-13137619D02*
X15903476Y-13109048D01*
X15903476Y-13109048D02*
X15893953Y-13090000D01*
X15893953Y-13090000D02*
X15874905Y-13061428D01*
X15874905Y-13061428D02*
X15865381Y-13051905D01*
M02*
