%TF.GenerationSoftware,KiCad,Pcbnew,(7.0.0)*%
%TF.CreationDate,2023-03-13T08:12:35+05:30*%
%TF.ProjectId,Stem,5374656d-2e6b-4696-9361-645f70636258,1.0*%
%TF.SameCoordinates,Original*%
%TF.FileFunction,AssemblyDrawing,Top*%
%FSLAX46Y46*%
G04 Gerber Fmt 4.6, Leading zero omitted, Abs format (unit mm)*
G04 Created by KiCad (PCBNEW (7.0.0)) date 2023-03-13 08:12:35*
%MOMM*%
%LPD*%
G01*
G04 APERTURE LIST*
%ADD10C,0.150000*%
%ADD11C,0.100000*%
G04 APERTURE END LIST*
D10*
%TO.C,H3*%
X177218095Y-108187380D02*
X177218095Y-107187380D01*
X177218095Y-107663571D02*
X177789523Y-107663571D01*
X177789523Y-108187380D02*
X177789523Y-107187380D01*
X178170476Y-107187380D02*
X178789523Y-107187380D01*
X178789523Y-107187380D02*
X178456190Y-107568333D01*
X178456190Y-107568333D02*
X178599047Y-107568333D01*
X178599047Y-107568333D02*
X178694285Y-107615952D01*
X178694285Y-107615952D02*
X178741904Y-107663571D01*
X178741904Y-107663571D02*
X178789523Y-107758809D01*
X178789523Y-107758809D02*
X178789523Y-107996904D01*
X178789523Y-107996904D02*
X178741904Y-108092142D01*
X178741904Y-108092142D02*
X178694285Y-108139761D01*
X178694285Y-108139761D02*
X178599047Y-108187380D01*
X178599047Y-108187380D02*
X178313333Y-108187380D01*
X178313333Y-108187380D02*
X178218095Y-108139761D01*
X178218095Y-108139761D02*
X178170476Y-108092142D01*
%TO.C,J3*%
X166140880Y-64433333D02*
X166855166Y-64433333D01*
X166855166Y-64433333D02*
X166998023Y-64480952D01*
X166998023Y-64480952D02*
X167093261Y-64576190D01*
X167093261Y-64576190D02*
X167140880Y-64719047D01*
X167140880Y-64719047D02*
X167140880Y-64814285D01*
X166140880Y-64052380D02*
X166140880Y-63433333D01*
X166140880Y-63433333D02*
X166521833Y-63766666D01*
X166521833Y-63766666D02*
X166521833Y-63623809D01*
X166521833Y-63623809D02*
X166569452Y-63528571D01*
X166569452Y-63528571D02*
X166617071Y-63480952D01*
X166617071Y-63480952D02*
X166712309Y-63433333D01*
X166712309Y-63433333D02*
X166950404Y-63433333D01*
X166950404Y-63433333D02*
X167045642Y-63480952D01*
X167045642Y-63480952D02*
X167093261Y-63528571D01*
X167093261Y-63528571D02*
X167140880Y-63623809D01*
X167140880Y-63623809D02*
X167140880Y-63909523D01*
X167140880Y-63909523D02*
X167093261Y-64004761D01*
X167093261Y-64004761D02*
X167045642Y-64052380D01*
%TO.C,U2*%
X139063333Y-54853571D02*
X139396666Y-54853571D01*
X139539523Y-55377380D02*
X139063333Y-55377380D01*
X139063333Y-55377380D02*
X139063333Y-54377380D01*
X139063333Y-54377380D02*
X139539523Y-54377380D01*
X139920476Y-55329761D02*
X140063333Y-55377380D01*
X140063333Y-55377380D02*
X140301428Y-55377380D01*
X140301428Y-55377380D02*
X140396666Y-55329761D01*
X140396666Y-55329761D02*
X140444285Y-55282142D01*
X140444285Y-55282142D02*
X140491904Y-55186904D01*
X140491904Y-55186904D02*
X140491904Y-55091666D01*
X140491904Y-55091666D02*
X140444285Y-54996428D01*
X140444285Y-54996428D02*
X140396666Y-54948809D01*
X140396666Y-54948809D02*
X140301428Y-54901190D01*
X140301428Y-54901190D02*
X140110952Y-54853571D01*
X140110952Y-54853571D02*
X140015714Y-54805952D01*
X140015714Y-54805952D02*
X139968095Y-54758333D01*
X139968095Y-54758333D02*
X139920476Y-54663095D01*
X139920476Y-54663095D02*
X139920476Y-54567857D01*
X139920476Y-54567857D02*
X139968095Y-54472619D01*
X139968095Y-54472619D02*
X140015714Y-54425000D01*
X140015714Y-54425000D02*
X140110952Y-54377380D01*
X140110952Y-54377380D02*
X140349047Y-54377380D01*
X140349047Y-54377380D02*
X140491904Y-54425000D01*
X140920476Y-55377380D02*
X140920476Y-54377380D01*
X140920476Y-54377380D02*
X141301428Y-54377380D01*
X141301428Y-54377380D02*
X141396666Y-54425000D01*
X141396666Y-54425000D02*
X141444285Y-54472619D01*
X141444285Y-54472619D02*
X141491904Y-54567857D01*
X141491904Y-54567857D02*
X141491904Y-54710714D01*
X141491904Y-54710714D02*
X141444285Y-54805952D01*
X141444285Y-54805952D02*
X141396666Y-54853571D01*
X141396666Y-54853571D02*
X141301428Y-54901190D01*
X141301428Y-54901190D02*
X140920476Y-54901190D01*
X141825238Y-54377380D02*
X142444285Y-54377380D01*
X142444285Y-54377380D02*
X142110952Y-54758333D01*
X142110952Y-54758333D02*
X142253809Y-54758333D01*
X142253809Y-54758333D02*
X142349047Y-54805952D01*
X142349047Y-54805952D02*
X142396666Y-54853571D01*
X142396666Y-54853571D02*
X142444285Y-54948809D01*
X142444285Y-54948809D02*
X142444285Y-55186904D01*
X142444285Y-55186904D02*
X142396666Y-55282142D01*
X142396666Y-55282142D02*
X142349047Y-55329761D01*
X142349047Y-55329761D02*
X142253809Y-55377380D01*
X142253809Y-55377380D02*
X141968095Y-55377380D01*
X141968095Y-55377380D02*
X141872857Y-55329761D01*
X141872857Y-55329761D02*
X141825238Y-55282142D01*
X142825238Y-54472619D02*
X142872857Y-54425000D01*
X142872857Y-54425000D02*
X142968095Y-54377380D01*
X142968095Y-54377380D02*
X143206190Y-54377380D01*
X143206190Y-54377380D02*
X143301428Y-54425000D01*
X143301428Y-54425000D02*
X143349047Y-54472619D01*
X143349047Y-54472619D02*
X143396666Y-54567857D01*
X143396666Y-54567857D02*
X143396666Y-54663095D01*
X143396666Y-54663095D02*
X143349047Y-54805952D01*
X143349047Y-54805952D02*
X142777619Y-55377380D01*
X142777619Y-55377380D02*
X143396666Y-55377380D01*
X143587143Y-55472619D02*
X144349047Y-55472619D01*
X144587143Y-55377380D02*
X144587143Y-54377380D01*
X144587143Y-54377380D02*
X144825238Y-54377380D01*
X144825238Y-54377380D02*
X144968095Y-54425000D01*
X144968095Y-54425000D02*
X145063333Y-54520238D01*
X145063333Y-54520238D02*
X145110952Y-54615476D01*
X145110952Y-54615476D02*
X145158571Y-54805952D01*
X145158571Y-54805952D02*
X145158571Y-54948809D01*
X145158571Y-54948809D02*
X145110952Y-55139285D01*
X145110952Y-55139285D02*
X145063333Y-55234523D01*
X145063333Y-55234523D02*
X144968095Y-55329761D01*
X144968095Y-55329761D02*
X144825238Y-55377380D01*
X144825238Y-55377380D02*
X144587143Y-55377380D01*
X145968095Y-55329761D02*
X145872857Y-55377380D01*
X145872857Y-55377380D02*
X145682381Y-55377380D01*
X145682381Y-55377380D02*
X145587143Y-55329761D01*
X145587143Y-55329761D02*
X145539524Y-55234523D01*
X145539524Y-55234523D02*
X145539524Y-54853571D01*
X145539524Y-54853571D02*
X145587143Y-54758333D01*
X145587143Y-54758333D02*
X145682381Y-54710714D01*
X145682381Y-54710714D02*
X145872857Y-54710714D01*
X145872857Y-54710714D02*
X145968095Y-54758333D01*
X145968095Y-54758333D02*
X146015714Y-54853571D01*
X146015714Y-54853571D02*
X146015714Y-54948809D01*
X146015714Y-54948809D02*
X145539524Y-55044047D01*
X146349048Y-54710714D02*
X146587143Y-55377380D01*
X146587143Y-55377380D02*
X146825238Y-54710714D01*
X147206191Y-55377380D02*
X147206191Y-54377380D01*
X147777619Y-55377380D02*
X147349048Y-54805952D01*
X147777619Y-54377380D02*
X147206191Y-54948809D01*
X148206191Y-55377380D02*
X148206191Y-54710714D01*
X148206191Y-54377380D02*
X148158572Y-54425000D01*
X148158572Y-54425000D02*
X148206191Y-54472619D01*
X148206191Y-54472619D02*
X148253810Y-54425000D01*
X148253810Y-54425000D02*
X148206191Y-54377380D01*
X148206191Y-54377380D02*
X148206191Y-54472619D01*
X148539524Y-54710714D02*
X148920476Y-54710714D01*
X148682381Y-54377380D02*
X148682381Y-55234523D01*
X148682381Y-55234523D02*
X148730000Y-55329761D01*
X148730000Y-55329761D02*
X148825238Y-55377380D01*
X148825238Y-55377380D02*
X148920476Y-55377380D01*
X149015715Y-55472619D02*
X149777619Y-55472619D01*
X149872858Y-54377380D02*
X150206191Y-55377380D01*
X150206191Y-55377380D02*
X150539524Y-54377380D01*
X151396667Y-55377380D02*
X150825239Y-55377380D01*
X151110953Y-55377380D02*
X151110953Y-54377380D01*
X151110953Y-54377380D02*
X151015715Y-54520238D01*
X151015715Y-54520238D02*
X150920477Y-54615476D01*
X150920477Y-54615476D02*
X150825239Y-54663095D01*
X151587144Y-55472619D02*
X152349048Y-55472619D01*
X152587144Y-55377380D02*
X152587144Y-54377380D01*
X152587144Y-54377380D02*
X152825239Y-54377380D01*
X152825239Y-54377380D02*
X152968096Y-54425000D01*
X152968096Y-54425000D02*
X153063334Y-54520238D01*
X153063334Y-54520238D02*
X153110953Y-54615476D01*
X153110953Y-54615476D02*
X153158572Y-54805952D01*
X153158572Y-54805952D02*
X153158572Y-54948809D01*
X153158572Y-54948809D02*
X153110953Y-55139285D01*
X153110953Y-55139285D02*
X153063334Y-55234523D01*
X153063334Y-55234523D02*
X152968096Y-55329761D01*
X152968096Y-55329761D02*
X152825239Y-55377380D01*
X152825239Y-55377380D02*
X152587144Y-55377380D01*
X153777620Y-54377380D02*
X153968096Y-54377380D01*
X153968096Y-54377380D02*
X154063334Y-54425000D01*
X154063334Y-54425000D02*
X154158572Y-54520238D01*
X154158572Y-54520238D02*
X154206191Y-54710714D01*
X154206191Y-54710714D02*
X154206191Y-55044047D01*
X154206191Y-55044047D02*
X154158572Y-55234523D01*
X154158572Y-55234523D02*
X154063334Y-55329761D01*
X154063334Y-55329761D02*
X153968096Y-55377380D01*
X153968096Y-55377380D02*
X153777620Y-55377380D01*
X153777620Y-55377380D02*
X153682382Y-55329761D01*
X153682382Y-55329761D02*
X153587144Y-55234523D01*
X153587144Y-55234523D02*
X153539525Y-55044047D01*
X153539525Y-55044047D02*
X153539525Y-54710714D01*
X153539525Y-54710714D02*
X153587144Y-54520238D01*
X153587144Y-54520238D02*
X153682382Y-54425000D01*
X153682382Y-54425000D02*
X153777620Y-54377380D01*
X154634763Y-55377380D02*
X154634763Y-54377380D01*
X154968096Y-54377380D02*
X155539524Y-54377380D01*
X155253810Y-55377380D02*
X155253810Y-54377380D01*
%TO.C,H7*%
X177218095Y-88054046D02*
X177218095Y-87054046D01*
X177218095Y-87530237D02*
X177789523Y-87530237D01*
X177789523Y-88054046D02*
X177789523Y-87054046D01*
X178170476Y-87054046D02*
X178837142Y-87054046D01*
X178837142Y-87054046D02*
X178408571Y-88054046D01*
%TO.C,H8*%
X177218095Y-67920713D02*
X177218095Y-66920713D01*
X177218095Y-67396904D02*
X177789523Y-67396904D01*
X177789523Y-67920713D02*
X177789523Y-66920713D01*
X178408571Y-67349285D02*
X178313333Y-67301666D01*
X178313333Y-67301666D02*
X178265714Y-67254047D01*
X178265714Y-67254047D02*
X178218095Y-67158809D01*
X178218095Y-67158809D02*
X178218095Y-67111190D01*
X178218095Y-67111190D02*
X178265714Y-67015952D01*
X178265714Y-67015952D02*
X178313333Y-66968333D01*
X178313333Y-66968333D02*
X178408571Y-66920713D01*
X178408571Y-66920713D02*
X178599047Y-66920713D01*
X178599047Y-66920713D02*
X178694285Y-66968333D01*
X178694285Y-66968333D02*
X178741904Y-67015952D01*
X178741904Y-67015952D02*
X178789523Y-67111190D01*
X178789523Y-67111190D02*
X178789523Y-67158809D01*
X178789523Y-67158809D02*
X178741904Y-67254047D01*
X178741904Y-67254047D02*
X178694285Y-67301666D01*
X178694285Y-67301666D02*
X178599047Y-67349285D01*
X178599047Y-67349285D02*
X178408571Y-67349285D01*
X178408571Y-67349285D02*
X178313333Y-67396904D01*
X178313333Y-67396904D02*
X178265714Y-67444523D01*
X178265714Y-67444523D02*
X178218095Y-67539761D01*
X178218095Y-67539761D02*
X178218095Y-67730237D01*
X178218095Y-67730237D02*
X178265714Y-67825475D01*
X178265714Y-67825475D02*
X178313333Y-67873094D01*
X178313333Y-67873094D02*
X178408571Y-67920713D01*
X178408571Y-67920713D02*
X178599047Y-67920713D01*
X178599047Y-67920713D02*
X178694285Y-67873094D01*
X178694285Y-67873094D02*
X178741904Y-67825475D01*
X178741904Y-67825475D02*
X178789523Y-67730237D01*
X178789523Y-67730237D02*
X178789523Y-67539761D01*
X178789523Y-67539761D02*
X178741904Y-67444523D01*
X178741904Y-67444523D02*
X178694285Y-67396904D01*
X178694285Y-67396904D02*
X178599047Y-67349285D01*
%TO.C,H4*%
X177218095Y-47787380D02*
X177218095Y-46787380D01*
X177218095Y-47263571D02*
X177789523Y-47263571D01*
X177789523Y-47787380D02*
X177789523Y-46787380D01*
X178694285Y-47120714D02*
X178694285Y-47787380D01*
X178456190Y-46739761D02*
X178218095Y-47454047D01*
X178218095Y-47454047D02*
X178837142Y-47454047D01*
%TO.C,H2*%
X116318095Y-108187380D02*
X116318095Y-107187380D01*
X116318095Y-107663571D02*
X116889523Y-107663571D01*
X116889523Y-108187380D02*
X116889523Y-107187380D01*
X117318095Y-107282619D02*
X117365714Y-107235000D01*
X117365714Y-107235000D02*
X117460952Y-107187380D01*
X117460952Y-107187380D02*
X117699047Y-107187380D01*
X117699047Y-107187380D02*
X117794285Y-107235000D01*
X117794285Y-107235000D02*
X117841904Y-107282619D01*
X117841904Y-107282619D02*
X117889523Y-107377857D01*
X117889523Y-107377857D02*
X117889523Y-107473095D01*
X117889523Y-107473095D02*
X117841904Y-107615952D01*
X117841904Y-107615952D02*
X117270476Y-108187380D01*
X117270476Y-108187380D02*
X117889523Y-108187380D01*
%TO.C,H1*%
X116318095Y-47787380D02*
X116318095Y-46787380D01*
X116318095Y-47263571D02*
X116889523Y-47263571D01*
X116889523Y-47787380D02*
X116889523Y-46787380D01*
X117889523Y-47787380D02*
X117318095Y-47787380D01*
X117603809Y-47787380D02*
X117603809Y-46787380D01*
X117603809Y-46787380D02*
X117508571Y-46930238D01*
X117508571Y-46930238D02*
X117413333Y-47025476D01*
X117413333Y-47025476D02*
X117318095Y-47073095D01*
%TO.C,H5*%
X116318095Y-67920713D02*
X116318095Y-66920713D01*
X116318095Y-67396904D02*
X116889523Y-67396904D01*
X116889523Y-67920713D02*
X116889523Y-66920713D01*
X117841904Y-66920713D02*
X117365714Y-66920713D01*
X117365714Y-66920713D02*
X117318095Y-67396904D01*
X117318095Y-67396904D02*
X117365714Y-67349285D01*
X117365714Y-67349285D02*
X117460952Y-67301666D01*
X117460952Y-67301666D02*
X117699047Y-67301666D01*
X117699047Y-67301666D02*
X117794285Y-67349285D01*
X117794285Y-67349285D02*
X117841904Y-67396904D01*
X117841904Y-67396904D02*
X117889523Y-67492142D01*
X117889523Y-67492142D02*
X117889523Y-67730237D01*
X117889523Y-67730237D02*
X117841904Y-67825475D01*
X117841904Y-67825475D02*
X117794285Y-67873094D01*
X117794285Y-67873094D02*
X117699047Y-67920713D01*
X117699047Y-67920713D02*
X117460952Y-67920713D01*
X117460952Y-67920713D02*
X117365714Y-67873094D01*
X117365714Y-67873094D02*
X117318095Y-67825475D01*
%TO.C,H6*%
X116318095Y-88054046D02*
X116318095Y-87054046D01*
X116318095Y-87530237D02*
X116889523Y-87530237D01*
X116889523Y-88054046D02*
X116889523Y-87054046D01*
X117794285Y-87054046D02*
X117603809Y-87054046D01*
X117603809Y-87054046D02*
X117508571Y-87101666D01*
X117508571Y-87101666D02*
X117460952Y-87149285D01*
X117460952Y-87149285D02*
X117365714Y-87292142D01*
X117365714Y-87292142D02*
X117318095Y-87482618D01*
X117318095Y-87482618D02*
X117318095Y-87863570D01*
X117318095Y-87863570D02*
X117365714Y-87958808D01*
X117365714Y-87958808D02*
X117413333Y-88006427D01*
X117413333Y-88006427D02*
X117508571Y-88054046D01*
X117508571Y-88054046D02*
X117699047Y-88054046D01*
X117699047Y-88054046D02*
X117794285Y-88006427D01*
X117794285Y-88006427D02*
X117841904Y-87958808D01*
X117841904Y-87958808D02*
X117889523Y-87863570D01*
X117889523Y-87863570D02*
X117889523Y-87625475D01*
X117889523Y-87625475D02*
X117841904Y-87530237D01*
X117841904Y-87530237D02*
X117794285Y-87482618D01*
X117794285Y-87482618D02*
X117699047Y-87434999D01*
X117699047Y-87434999D02*
X117508571Y-87434999D01*
X117508571Y-87434999D02*
X117413333Y-87482618D01*
X117413333Y-87482618D02*
X117365714Y-87530237D01*
X117365714Y-87530237D02*
X117318095Y-87625475D01*
%TO.C,MA*%
X126924595Y-93062380D02*
X126924595Y-92062380D01*
X126924595Y-92062380D02*
X127257928Y-92776666D01*
X127257928Y-92776666D02*
X127591261Y-92062380D01*
X127591261Y-92062380D02*
X127591261Y-93062380D01*
X128019833Y-92776666D02*
X128496023Y-92776666D01*
X127924595Y-93062380D02*
X128257928Y-92062380D01*
X128257928Y-92062380D02*
X128591261Y-93062380D01*
%TO.C,J4*%
X130247380Y-106988333D02*
X130961666Y-106988333D01*
X130961666Y-106988333D02*
X131104523Y-107035952D01*
X131104523Y-107035952D02*
X131199761Y-107131190D01*
X131199761Y-107131190D02*
X131247380Y-107274047D01*
X131247380Y-107274047D02*
X131247380Y-107369285D01*
X130580714Y-106083571D02*
X131247380Y-106083571D01*
X130199761Y-106321666D02*
X130914047Y-106559761D01*
X130914047Y-106559761D02*
X130914047Y-105940714D01*
%TO.C,J5*%
X163247380Y-106988333D02*
X163961666Y-106988333D01*
X163961666Y-106988333D02*
X164104523Y-107035952D01*
X164104523Y-107035952D02*
X164199761Y-107131190D01*
X164199761Y-107131190D02*
X164247380Y-107274047D01*
X164247380Y-107274047D02*
X164247380Y-107369285D01*
X163247380Y-106035952D02*
X163247380Y-106512142D01*
X163247380Y-106512142D02*
X163723571Y-106559761D01*
X163723571Y-106559761D02*
X163675952Y-106512142D01*
X163675952Y-106512142D02*
X163628333Y-106416904D01*
X163628333Y-106416904D02*
X163628333Y-106178809D01*
X163628333Y-106178809D02*
X163675952Y-106083571D01*
X163675952Y-106083571D02*
X163723571Y-106035952D01*
X163723571Y-106035952D02*
X163818809Y-105988333D01*
X163818809Y-105988333D02*
X164056904Y-105988333D01*
X164056904Y-105988333D02*
X164152142Y-106035952D01*
X164152142Y-106035952D02*
X164199761Y-106083571D01*
X164199761Y-106083571D02*
X164247380Y-106178809D01*
X164247380Y-106178809D02*
X164247380Y-106416904D01*
X164247380Y-106416904D02*
X164199761Y-106512142D01*
X164199761Y-106512142D02*
X164152142Y-106559761D01*
%TO.C,U1*%
X145600952Y-69077380D02*
X145124762Y-69077380D01*
X145124762Y-69077380D02*
X145124762Y-68077380D01*
X145886667Y-68172619D02*
X145934286Y-68125000D01*
X145934286Y-68125000D02*
X146029524Y-68077380D01*
X146029524Y-68077380D02*
X146267619Y-68077380D01*
X146267619Y-68077380D02*
X146362857Y-68125000D01*
X146362857Y-68125000D02*
X146410476Y-68172619D01*
X146410476Y-68172619D02*
X146458095Y-68267857D01*
X146458095Y-68267857D02*
X146458095Y-68363095D01*
X146458095Y-68363095D02*
X146410476Y-68505952D01*
X146410476Y-68505952D02*
X145839048Y-69077380D01*
X145839048Y-69077380D02*
X146458095Y-69077380D01*
X146934286Y-69077380D02*
X147124762Y-69077380D01*
X147124762Y-69077380D02*
X147220000Y-69029761D01*
X147220000Y-69029761D02*
X147267619Y-68982142D01*
X147267619Y-68982142D02*
X147362857Y-68839285D01*
X147362857Y-68839285D02*
X147410476Y-68648809D01*
X147410476Y-68648809D02*
X147410476Y-68267857D01*
X147410476Y-68267857D02*
X147362857Y-68172619D01*
X147362857Y-68172619D02*
X147315238Y-68125000D01*
X147315238Y-68125000D02*
X147220000Y-68077380D01*
X147220000Y-68077380D02*
X147029524Y-68077380D01*
X147029524Y-68077380D02*
X146934286Y-68125000D01*
X146934286Y-68125000D02*
X146886667Y-68172619D01*
X146886667Y-68172619D02*
X146839048Y-68267857D01*
X146839048Y-68267857D02*
X146839048Y-68505952D01*
X146839048Y-68505952D02*
X146886667Y-68601190D01*
X146886667Y-68601190D02*
X146934286Y-68648809D01*
X146934286Y-68648809D02*
X147029524Y-68696428D01*
X147029524Y-68696428D02*
X147220000Y-68696428D01*
X147220000Y-68696428D02*
X147315238Y-68648809D01*
X147315238Y-68648809D02*
X147362857Y-68601190D01*
X147362857Y-68601190D02*
X147410476Y-68505952D01*
X147743810Y-68077380D02*
X148362857Y-68077380D01*
X148362857Y-68077380D02*
X148029524Y-68458333D01*
X148029524Y-68458333D02*
X148172381Y-68458333D01*
X148172381Y-68458333D02*
X148267619Y-68505952D01*
X148267619Y-68505952D02*
X148315238Y-68553571D01*
X148315238Y-68553571D02*
X148362857Y-68648809D01*
X148362857Y-68648809D02*
X148362857Y-68886904D01*
X148362857Y-68886904D02*
X148315238Y-68982142D01*
X148315238Y-68982142D02*
X148267619Y-69029761D01*
X148267619Y-69029761D02*
X148172381Y-69077380D01*
X148172381Y-69077380D02*
X147886667Y-69077380D01*
X147886667Y-69077380D02*
X147791429Y-69029761D01*
X147791429Y-69029761D02*
X147743810Y-68982142D01*
X148791429Y-69077380D02*
X148791429Y-68077380D01*
X148791429Y-68077380D02*
X149029524Y-68077380D01*
X149029524Y-68077380D02*
X149172381Y-68125000D01*
X149172381Y-68125000D02*
X149267619Y-68220238D01*
X149267619Y-68220238D02*
X149315238Y-68315476D01*
X149315238Y-68315476D02*
X149362857Y-68505952D01*
X149362857Y-68505952D02*
X149362857Y-68648809D01*
X149362857Y-68648809D02*
X149315238Y-68839285D01*
X149315238Y-68839285D02*
X149267619Y-68934523D01*
X149267619Y-68934523D02*
X149172381Y-69029761D01*
X149172381Y-69029761D02*
X149029524Y-69077380D01*
X149029524Y-69077380D02*
X148791429Y-69077380D01*
%TO.C,J2*%
X127053880Y-64443333D02*
X127768166Y-64443333D01*
X127768166Y-64443333D02*
X127911023Y-64490952D01*
X127911023Y-64490952D02*
X128006261Y-64586190D01*
X128006261Y-64586190D02*
X128053880Y-64729047D01*
X128053880Y-64729047D02*
X128053880Y-64824285D01*
X127149119Y-64014761D02*
X127101500Y-63967142D01*
X127101500Y-63967142D02*
X127053880Y-63871904D01*
X127053880Y-63871904D02*
X127053880Y-63633809D01*
X127053880Y-63633809D02*
X127101500Y-63538571D01*
X127101500Y-63538571D02*
X127149119Y-63490952D01*
X127149119Y-63490952D02*
X127244357Y-63443333D01*
X127244357Y-63443333D02*
X127339595Y-63443333D01*
X127339595Y-63443333D02*
X127482452Y-63490952D01*
X127482452Y-63490952D02*
X128053880Y-64062380D01*
X128053880Y-64062380D02*
X128053880Y-63443333D01*
%TO.C,MB*%
X165940167Y-88712380D02*
X165940167Y-87712380D01*
X165940167Y-87712380D02*
X166273500Y-88426666D01*
X166273500Y-88426666D02*
X166606833Y-87712380D01*
X166606833Y-87712380D02*
X166606833Y-88712380D01*
X167416357Y-88188571D02*
X167559214Y-88236190D01*
X167559214Y-88236190D02*
X167606833Y-88283809D01*
X167606833Y-88283809D02*
X167654452Y-88379047D01*
X167654452Y-88379047D02*
X167654452Y-88521904D01*
X167654452Y-88521904D02*
X167606833Y-88617142D01*
X167606833Y-88617142D02*
X167559214Y-88664761D01*
X167559214Y-88664761D02*
X167463976Y-88712380D01*
X167463976Y-88712380D02*
X167083024Y-88712380D01*
X167083024Y-88712380D02*
X167083024Y-87712380D01*
X167083024Y-87712380D02*
X167416357Y-87712380D01*
X167416357Y-87712380D02*
X167511595Y-87760000D01*
X167511595Y-87760000D02*
X167559214Y-87807619D01*
X167559214Y-87807619D02*
X167606833Y-87902857D01*
X167606833Y-87902857D02*
X167606833Y-87998095D01*
X167606833Y-87998095D02*
X167559214Y-88093333D01*
X167559214Y-88093333D02*
X167511595Y-88140952D01*
X167511595Y-88140952D02*
X167416357Y-88188571D01*
X167416357Y-88188571D02*
X167083024Y-88188571D01*
D11*
%TO.C,J3*%
X168043500Y-82515000D02*
X167408500Y-83150000D01*
X168043500Y-45050000D02*
X168043500Y-82515000D01*
X165503500Y-83150000D02*
X165503500Y-45050000D01*
X167408500Y-83150000D02*
X165503500Y-83150000D01*
X165503500Y-45050000D02*
X168043500Y-45050000D01*
%TO.C,MA*%
X125811500Y-87645000D02*
X126436500Y-88645000D01*
X131386500Y-87645000D02*
X123986500Y-87645000D01*
X123986500Y-93395000D02*
X131386500Y-93395000D01*
X131386500Y-93395000D02*
X131386500Y-87645000D01*
X123986500Y-87645000D02*
X123986500Y-93395000D01*
X126436500Y-88645000D02*
X127061500Y-87645000D01*
%TO.C,J4*%
X127710000Y-112025000D02*
X127710000Y-102015000D01*
X127710000Y-112025000D02*
X134050000Y-112025000D01*
X127710000Y-102015000D02*
X134050000Y-102015000D01*
X134050000Y-112025000D02*
X134050000Y-102015000D01*
%TO.C,J5*%
X160710000Y-102015000D02*
X167050000Y-102015000D01*
X160710000Y-112025000D02*
X160710000Y-102015000D01*
X167050000Y-112025000D02*
X167050000Y-102015000D01*
X160710000Y-112025000D02*
X167050000Y-112025000D01*
%TO.C,U1*%
X150395000Y-69770000D02*
X150395000Y-89090000D01*
X149395000Y-90090000D02*
X144045000Y-90090000D01*
X144045000Y-90090000D02*
X144045000Y-69770000D01*
X150395000Y-89090000D02*
X149395000Y-90090000D01*
X144045000Y-69770000D02*
X150395000Y-69770000D01*
%TO.C,J2*%
X126416500Y-83160000D02*
X126416500Y-45695000D01*
X126416500Y-45695000D02*
X127051500Y-45060000D01*
X128956500Y-83160000D02*
X126416500Y-83160000D01*
X128956500Y-45060000D02*
X128956500Y-83160000D01*
X127051500Y-45060000D02*
X128956500Y-45060000D01*
%TO.C,MB*%
X170473500Y-87645000D02*
X163073500Y-87645000D01*
X170473500Y-93395000D02*
X170473500Y-87645000D01*
X163073500Y-93395000D02*
X170473500Y-93395000D01*
X168023500Y-92395000D02*
X167398500Y-93395000D01*
X163073500Y-87645000D02*
X163073500Y-93395000D01*
X168648500Y-93395000D02*
X168023500Y-92395000D01*
%TD*%
M02*
