%TF.GenerationSoftware,KiCad,Pcbnew,(7.0.0)*%
%TF.CreationDate,2023-03-13T08:12:35+05:30*%
%TF.ProjectId,Stem,5374656d-2e6b-4696-9361-645f70636258,1.0*%
%TF.SameCoordinates,Original*%
%TF.FileFunction,AssemblyDrawing,Bot*%
%FSLAX46Y46*%
G04 Gerber Fmt 4.6, Leading zero omitted, Abs format (unit mm)*
G04 Created by KiCad (PCBNEW (7.0.0)) date 2023-03-13 08:12:35*
%MOMM*%
%LPD*%
G01*
G04 APERTURE LIST*
%ADD10C,0.120000*%
%ADD11C,0.150000*%
%ADD12C,0.100000*%
G04 APERTURE END LIST*
D10*
%TO.C,R2*%
X137173904Y-67486667D02*
X136792952Y-67220000D01*
X137173904Y-67029524D02*
X136373904Y-67029524D01*
X136373904Y-67029524D02*
X136373904Y-67334286D01*
X136373904Y-67334286D02*
X136412000Y-67410476D01*
X136412000Y-67410476D02*
X136450095Y-67448571D01*
X136450095Y-67448571D02*
X136526285Y-67486667D01*
X136526285Y-67486667D02*
X136640571Y-67486667D01*
X136640571Y-67486667D02*
X136716761Y-67448571D01*
X136716761Y-67448571D02*
X136754857Y-67410476D01*
X136754857Y-67410476D02*
X136792952Y-67334286D01*
X136792952Y-67334286D02*
X136792952Y-67029524D01*
X136450095Y-67791428D02*
X136412000Y-67829524D01*
X136412000Y-67829524D02*
X136373904Y-67905714D01*
X136373904Y-67905714D02*
X136373904Y-68096190D01*
X136373904Y-68096190D02*
X136412000Y-68172381D01*
X136412000Y-68172381D02*
X136450095Y-68210476D01*
X136450095Y-68210476D02*
X136526285Y-68248571D01*
X136526285Y-68248571D02*
X136602476Y-68248571D01*
X136602476Y-68248571D02*
X136716761Y-68210476D01*
X136716761Y-68210476D02*
X137173904Y-67753333D01*
X137173904Y-67753333D02*
X137173904Y-68248571D01*
%TO.C,R3*%
X157673904Y-74886667D02*
X157292952Y-74620000D01*
X157673904Y-74429524D02*
X156873904Y-74429524D01*
X156873904Y-74429524D02*
X156873904Y-74734286D01*
X156873904Y-74734286D02*
X156912000Y-74810476D01*
X156912000Y-74810476D02*
X156950095Y-74848571D01*
X156950095Y-74848571D02*
X157026285Y-74886667D01*
X157026285Y-74886667D02*
X157140571Y-74886667D01*
X157140571Y-74886667D02*
X157216761Y-74848571D01*
X157216761Y-74848571D02*
X157254857Y-74810476D01*
X157254857Y-74810476D02*
X157292952Y-74734286D01*
X157292952Y-74734286D02*
X157292952Y-74429524D01*
X156873904Y-75153333D02*
X156873904Y-75648571D01*
X156873904Y-75648571D02*
X157178666Y-75381905D01*
X157178666Y-75381905D02*
X157178666Y-75496190D01*
X157178666Y-75496190D02*
X157216761Y-75572381D01*
X157216761Y-75572381D02*
X157254857Y-75610476D01*
X157254857Y-75610476D02*
X157331047Y-75648571D01*
X157331047Y-75648571D02*
X157521523Y-75648571D01*
X157521523Y-75648571D02*
X157597714Y-75610476D01*
X157597714Y-75610476D02*
X157635809Y-75572381D01*
X157635809Y-75572381D02*
X157673904Y-75496190D01*
X157673904Y-75496190D02*
X157673904Y-75267619D01*
X157673904Y-75267619D02*
X157635809Y-75191428D01*
X157635809Y-75191428D02*
X157597714Y-75153333D01*
%TO.C,C2*%
X164213332Y-98637714D02*
X164251428Y-98675809D01*
X164251428Y-98675809D02*
X164365713Y-98713904D01*
X164365713Y-98713904D02*
X164441904Y-98713904D01*
X164441904Y-98713904D02*
X164556190Y-98675809D01*
X164556190Y-98675809D02*
X164632380Y-98599619D01*
X164632380Y-98599619D02*
X164670475Y-98523428D01*
X164670475Y-98523428D02*
X164708571Y-98371047D01*
X164708571Y-98371047D02*
X164708571Y-98256761D01*
X164708571Y-98256761D02*
X164670475Y-98104380D01*
X164670475Y-98104380D02*
X164632380Y-98028190D01*
X164632380Y-98028190D02*
X164556190Y-97952000D01*
X164556190Y-97952000D02*
X164441904Y-97913904D01*
X164441904Y-97913904D02*
X164365713Y-97913904D01*
X164365713Y-97913904D02*
X164251428Y-97952000D01*
X164251428Y-97952000D02*
X164213332Y-97990095D01*
X163908571Y-97990095D02*
X163870475Y-97952000D01*
X163870475Y-97952000D02*
X163794285Y-97913904D01*
X163794285Y-97913904D02*
X163603809Y-97913904D01*
X163603809Y-97913904D02*
X163527618Y-97952000D01*
X163527618Y-97952000D02*
X163489523Y-97990095D01*
X163489523Y-97990095D02*
X163451428Y-98066285D01*
X163451428Y-98066285D02*
X163451428Y-98142476D01*
X163451428Y-98142476D02*
X163489523Y-98256761D01*
X163489523Y-98256761D02*
X163946666Y-98713904D01*
X163946666Y-98713904D02*
X163451428Y-98713904D01*
D11*
%TO.C,J1*%
X150291905Y-56163571D02*
X150149048Y-56211190D01*
X150149048Y-56211190D02*
X150101429Y-56258809D01*
X150101429Y-56258809D02*
X150053810Y-56354047D01*
X150053810Y-56354047D02*
X150053810Y-56496904D01*
X150053810Y-56496904D02*
X150101429Y-56592142D01*
X150101429Y-56592142D02*
X150149048Y-56639761D01*
X150149048Y-56639761D02*
X150244286Y-56687380D01*
X150244286Y-56687380D02*
X150625238Y-56687380D01*
X150625238Y-56687380D02*
X150625238Y-55687380D01*
X150625238Y-55687380D02*
X150291905Y-55687380D01*
X150291905Y-55687380D02*
X150196667Y-55735000D01*
X150196667Y-55735000D02*
X150149048Y-55782619D01*
X150149048Y-55782619D02*
X150101429Y-55877857D01*
X150101429Y-55877857D02*
X150101429Y-55973095D01*
X150101429Y-55973095D02*
X150149048Y-56068333D01*
X150149048Y-56068333D02*
X150196667Y-56115952D01*
X150196667Y-56115952D02*
X150291905Y-56163571D01*
X150291905Y-56163571D02*
X150625238Y-56163571D01*
X149196667Y-56687380D02*
X149196667Y-56163571D01*
X149196667Y-56163571D02*
X149244286Y-56068333D01*
X149244286Y-56068333D02*
X149339524Y-56020714D01*
X149339524Y-56020714D02*
X149530000Y-56020714D01*
X149530000Y-56020714D02*
X149625238Y-56068333D01*
X149196667Y-56639761D02*
X149291905Y-56687380D01*
X149291905Y-56687380D02*
X149530000Y-56687380D01*
X149530000Y-56687380D02*
X149625238Y-56639761D01*
X149625238Y-56639761D02*
X149672857Y-56544523D01*
X149672857Y-56544523D02*
X149672857Y-56449285D01*
X149672857Y-56449285D02*
X149625238Y-56354047D01*
X149625238Y-56354047D02*
X149530000Y-56306428D01*
X149530000Y-56306428D02*
X149291905Y-56306428D01*
X149291905Y-56306428D02*
X149196667Y-56258809D01*
X148863333Y-56020714D02*
X148482381Y-56020714D01*
X148720476Y-55687380D02*
X148720476Y-56544523D01*
X148720476Y-56544523D02*
X148672857Y-56639761D01*
X148672857Y-56639761D02*
X148577619Y-56687380D01*
X148577619Y-56687380D02*
X148482381Y-56687380D01*
X148291904Y-56020714D02*
X147910952Y-56020714D01*
X148149047Y-55687380D02*
X148149047Y-56544523D01*
X148149047Y-56544523D02*
X148101428Y-56639761D01*
X148101428Y-56639761D02*
X148006190Y-56687380D01*
X148006190Y-56687380D02*
X147910952Y-56687380D01*
X147196666Y-56639761D02*
X147291904Y-56687380D01*
X147291904Y-56687380D02*
X147482380Y-56687380D01*
X147482380Y-56687380D02*
X147577618Y-56639761D01*
X147577618Y-56639761D02*
X147625237Y-56544523D01*
X147625237Y-56544523D02*
X147625237Y-56163571D01*
X147625237Y-56163571D02*
X147577618Y-56068333D01*
X147577618Y-56068333D02*
X147482380Y-56020714D01*
X147482380Y-56020714D02*
X147291904Y-56020714D01*
X147291904Y-56020714D02*
X147196666Y-56068333D01*
X147196666Y-56068333D02*
X147149047Y-56163571D01*
X147149047Y-56163571D02*
X147149047Y-56258809D01*
X147149047Y-56258809D02*
X147625237Y-56354047D01*
X146720475Y-56687380D02*
X146720475Y-56020714D01*
X146720475Y-56211190D02*
X146672856Y-56115952D01*
X146672856Y-56115952D02*
X146625237Y-56068333D01*
X146625237Y-56068333D02*
X146529999Y-56020714D01*
X146529999Y-56020714D02*
X146434761Y-56020714D01*
X146196665Y-56020714D02*
X145958570Y-56687380D01*
X145720475Y-56020714D02*
X145958570Y-56687380D01*
X145958570Y-56687380D02*
X146053808Y-56925476D01*
X146053808Y-56925476D02*
X146101427Y-56973095D01*
X146101427Y-56973095D02*
X146196665Y-57020714D01*
X144739522Y-56687380D02*
X144739522Y-55687380D01*
X144263332Y-56020714D02*
X144263332Y-56687380D01*
X144263332Y-56115952D02*
X144215713Y-56068333D01*
X144215713Y-56068333D02*
X144120475Y-56020714D01*
X144120475Y-56020714D02*
X143977618Y-56020714D01*
X143977618Y-56020714D02*
X143882380Y-56068333D01*
X143882380Y-56068333D02*
X143834761Y-56163571D01*
X143834761Y-56163571D02*
X143834761Y-56687380D01*
X147563333Y-57587380D02*
X147563333Y-58301666D01*
X147563333Y-58301666D02*
X147610952Y-58444523D01*
X147610952Y-58444523D02*
X147706190Y-58539761D01*
X147706190Y-58539761D02*
X147849047Y-58587380D01*
X147849047Y-58587380D02*
X147944285Y-58587380D01*
X146563333Y-58587380D02*
X147134761Y-58587380D01*
X146849047Y-58587380D02*
X146849047Y-57587380D01*
X146849047Y-57587380D02*
X146944285Y-57730238D01*
X146944285Y-57730238D02*
X147039523Y-57825476D01*
X147039523Y-57825476D02*
X147134761Y-57873095D01*
D10*
%TO.C,C1*%
X127413332Y-98637714D02*
X127451428Y-98675809D01*
X127451428Y-98675809D02*
X127565713Y-98713904D01*
X127565713Y-98713904D02*
X127641904Y-98713904D01*
X127641904Y-98713904D02*
X127756190Y-98675809D01*
X127756190Y-98675809D02*
X127832380Y-98599619D01*
X127832380Y-98599619D02*
X127870475Y-98523428D01*
X127870475Y-98523428D02*
X127908571Y-98371047D01*
X127908571Y-98371047D02*
X127908571Y-98256761D01*
X127908571Y-98256761D02*
X127870475Y-98104380D01*
X127870475Y-98104380D02*
X127832380Y-98028190D01*
X127832380Y-98028190D02*
X127756190Y-97952000D01*
X127756190Y-97952000D02*
X127641904Y-97913904D01*
X127641904Y-97913904D02*
X127565713Y-97913904D01*
X127565713Y-97913904D02*
X127451428Y-97952000D01*
X127451428Y-97952000D02*
X127413332Y-97990095D01*
X126651428Y-98713904D02*
X127108571Y-98713904D01*
X126879999Y-98713904D02*
X126879999Y-97913904D01*
X126879999Y-97913904D02*
X126956190Y-98028190D01*
X126956190Y-98028190D02*
X127032380Y-98104380D01*
X127032380Y-98104380D02*
X127108571Y-98142476D01*
D11*
%TO.C,NT1*%
X159842380Y-54815238D02*
X158842380Y-54815238D01*
X158842380Y-54815238D02*
X159842380Y-55386666D01*
X159842380Y-55386666D02*
X158842380Y-55386666D01*
X159794761Y-56243809D02*
X159842380Y-56148571D01*
X159842380Y-56148571D02*
X159842380Y-55958095D01*
X159842380Y-55958095D02*
X159794761Y-55862857D01*
X159794761Y-55862857D02*
X159699523Y-55815238D01*
X159699523Y-55815238D02*
X159318571Y-55815238D01*
X159318571Y-55815238D02*
X159223333Y-55862857D01*
X159223333Y-55862857D02*
X159175714Y-55958095D01*
X159175714Y-55958095D02*
X159175714Y-56148571D01*
X159175714Y-56148571D02*
X159223333Y-56243809D01*
X159223333Y-56243809D02*
X159318571Y-56291428D01*
X159318571Y-56291428D02*
X159413809Y-56291428D01*
X159413809Y-56291428D02*
X159509047Y-55815238D01*
X159175714Y-56577143D02*
X159175714Y-56958095D01*
X158842380Y-56720000D02*
X159699523Y-56720000D01*
X159699523Y-56720000D02*
X159794761Y-56767619D01*
X159794761Y-56767619D02*
X159842380Y-56862857D01*
X159842380Y-56862857D02*
X159842380Y-56958095D01*
X158842380Y-57148572D02*
X158842380Y-57720000D01*
X159842380Y-57434286D02*
X158842380Y-57434286D01*
X159842380Y-58053334D02*
X159175714Y-58053334D01*
X158842380Y-58053334D02*
X158890000Y-58005715D01*
X158890000Y-58005715D02*
X158937619Y-58053334D01*
X158937619Y-58053334D02*
X158890000Y-58100953D01*
X158890000Y-58100953D02*
X158842380Y-58053334D01*
X158842380Y-58053334D02*
X158937619Y-58053334D01*
X159794761Y-58910476D02*
X159842380Y-58815238D01*
X159842380Y-58815238D02*
X159842380Y-58624762D01*
X159842380Y-58624762D02*
X159794761Y-58529524D01*
X159794761Y-58529524D02*
X159699523Y-58481905D01*
X159699523Y-58481905D02*
X159318571Y-58481905D01*
X159318571Y-58481905D02*
X159223333Y-58529524D01*
X159223333Y-58529524D02*
X159175714Y-58624762D01*
X159175714Y-58624762D02*
X159175714Y-58815238D01*
X159175714Y-58815238D02*
X159223333Y-58910476D01*
X159223333Y-58910476D02*
X159318571Y-58958095D01*
X159318571Y-58958095D02*
X159413809Y-58958095D01*
X159413809Y-58958095D02*
X159509047Y-58481905D01*
X159937619Y-59148572D02*
X159937619Y-59910476D01*
X158937619Y-60100953D02*
X158890000Y-60148572D01*
X158890000Y-60148572D02*
X158842380Y-60243810D01*
X158842380Y-60243810D02*
X158842380Y-60481905D01*
X158842380Y-60481905D02*
X158890000Y-60577143D01*
X158890000Y-60577143D02*
X158937619Y-60624762D01*
X158937619Y-60624762D02*
X159032857Y-60672381D01*
X159032857Y-60672381D02*
X159128095Y-60672381D01*
X159128095Y-60672381D02*
X159270952Y-60624762D01*
X159270952Y-60624762D02*
X159842380Y-60053334D01*
X159842380Y-60053334D02*
X159842380Y-60672381D01*
D10*
%TO.C,R6*%
X155213332Y-98713904D02*
X155479999Y-98332952D01*
X155670475Y-98713904D02*
X155670475Y-97913904D01*
X155670475Y-97913904D02*
X155365713Y-97913904D01*
X155365713Y-97913904D02*
X155289523Y-97952000D01*
X155289523Y-97952000D02*
X155251428Y-97990095D01*
X155251428Y-97990095D02*
X155213332Y-98066285D01*
X155213332Y-98066285D02*
X155213332Y-98180571D01*
X155213332Y-98180571D02*
X155251428Y-98256761D01*
X155251428Y-98256761D02*
X155289523Y-98294857D01*
X155289523Y-98294857D02*
X155365713Y-98332952D01*
X155365713Y-98332952D02*
X155670475Y-98332952D01*
X154527618Y-97913904D02*
X154679999Y-97913904D01*
X154679999Y-97913904D02*
X154756190Y-97952000D01*
X154756190Y-97952000D02*
X154794285Y-97990095D01*
X154794285Y-97990095D02*
X154870475Y-98104380D01*
X154870475Y-98104380D02*
X154908571Y-98256761D01*
X154908571Y-98256761D02*
X154908571Y-98561523D01*
X154908571Y-98561523D02*
X154870475Y-98637714D01*
X154870475Y-98637714D02*
X154832380Y-98675809D01*
X154832380Y-98675809D02*
X154756190Y-98713904D01*
X154756190Y-98713904D02*
X154603809Y-98713904D01*
X154603809Y-98713904D02*
X154527618Y-98675809D01*
X154527618Y-98675809D02*
X154489523Y-98637714D01*
X154489523Y-98637714D02*
X154451428Y-98561523D01*
X154451428Y-98561523D02*
X154451428Y-98371047D01*
X154451428Y-98371047D02*
X154489523Y-98294857D01*
X154489523Y-98294857D02*
X154527618Y-98256761D01*
X154527618Y-98256761D02*
X154603809Y-98218666D01*
X154603809Y-98218666D02*
X154756190Y-98218666D01*
X154756190Y-98218666D02*
X154832380Y-98256761D01*
X154832380Y-98256761D02*
X154870475Y-98294857D01*
X154870475Y-98294857D02*
X154908571Y-98371047D01*
%TO.C,R5*%
X146313332Y-98713904D02*
X146579999Y-98332952D01*
X146770475Y-98713904D02*
X146770475Y-97913904D01*
X146770475Y-97913904D02*
X146465713Y-97913904D01*
X146465713Y-97913904D02*
X146389523Y-97952000D01*
X146389523Y-97952000D02*
X146351428Y-97990095D01*
X146351428Y-97990095D02*
X146313332Y-98066285D01*
X146313332Y-98066285D02*
X146313332Y-98180571D01*
X146313332Y-98180571D02*
X146351428Y-98256761D01*
X146351428Y-98256761D02*
X146389523Y-98294857D01*
X146389523Y-98294857D02*
X146465713Y-98332952D01*
X146465713Y-98332952D02*
X146770475Y-98332952D01*
X145589523Y-97913904D02*
X145970475Y-97913904D01*
X145970475Y-97913904D02*
X146008571Y-98294857D01*
X146008571Y-98294857D02*
X145970475Y-98256761D01*
X145970475Y-98256761D02*
X145894285Y-98218666D01*
X145894285Y-98218666D02*
X145703809Y-98218666D01*
X145703809Y-98218666D02*
X145627618Y-98256761D01*
X145627618Y-98256761D02*
X145589523Y-98294857D01*
X145589523Y-98294857D02*
X145551428Y-98371047D01*
X145551428Y-98371047D02*
X145551428Y-98561523D01*
X145551428Y-98561523D02*
X145589523Y-98637714D01*
X145589523Y-98637714D02*
X145627618Y-98675809D01*
X145627618Y-98675809D02*
X145703809Y-98713904D01*
X145703809Y-98713904D02*
X145894285Y-98713904D01*
X145894285Y-98713904D02*
X145970475Y-98675809D01*
X145970475Y-98675809D02*
X146008571Y-98637714D01*
%TO.C,R4*%
X158913332Y-86513904D02*
X159179999Y-86132952D01*
X159370475Y-86513904D02*
X159370475Y-85713904D01*
X159370475Y-85713904D02*
X159065713Y-85713904D01*
X159065713Y-85713904D02*
X158989523Y-85752000D01*
X158989523Y-85752000D02*
X158951428Y-85790095D01*
X158951428Y-85790095D02*
X158913332Y-85866285D01*
X158913332Y-85866285D02*
X158913332Y-85980571D01*
X158913332Y-85980571D02*
X158951428Y-86056761D01*
X158951428Y-86056761D02*
X158989523Y-86094857D01*
X158989523Y-86094857D02*
X159065713Y-86132952D01*
X159065713Y-86132952D02*
X159370475Y-86132952D01*
X158227618Y-85980571D02*
X158227618Y-86513904D01*
X158418094Y-85675809D02*
X158608571Y-86247238D01*
X158608571Y-86247238D02*
X158113332Y-86247238D01*
D12*
%TO.C,R2*%
X136080000Y-66020000D02*
X136080000Y-69220000D01*
X136080000Y-69220000D02*
X137680000Y-69220000D01*
X137680000Y-69220000D02*
X137680000Y-66020000D01*
X137680000Y-66020000D02*
X136080000Y-66020000D01*
%TO.C,R3*%
X158180000Y-73420000D02*
X156580000Y-73420000D01*
X158180000Y-76620000D02*
X158180000Y-73420000D01*
X156580000Y-73420000D02*
X156580000Y-76620000D01*
X156580000Y-76620000D02*
X158180000Y-76620000D01*
%TO.C,C2*%
X165680000Y-99220000D02*
X165680000Y-97620000D01*
X165680000Y-97620000D02*
X162480000Y-97620000D01*
X162480000Y-97620000D02*
X162480000Y-99220000D01*
X162480000Y-99220000D02*
X165680000Y-99220000D01*
%TO.C,R1*%
X137680000Y-73620000D02*
X136080000Y-73620000D01*
X136080000Y-76820000D02*
X137680000Y-76820000D01*
X136080000Y-73620000D02*
X136080000Y-76820000D01*
X137680000Y-76820000D02*
X137680000Y-73620000D01*
%TO.C,J1*%
X145980000Y-62270000D02*
X146605000Y-63270000D01*
X150930000Y-57520000D02*
X150930000Y-63270000D01*
X145355000Y-63270000D02*
X145980000Y-62270000D01*
X143530000Y-63270000D02*
X143530000Y-57520000D01*
X150930000Y-63270000D02*
X143530000Y-63270000D01*
X143530000Y-57520000D02*
X150930000Y-57520000D01*
%TO.C,C1*%
X125680000Y-97620000D02*
X125680000Y-99220000D01*
X125680000Y-99220000D02*
X128880000Y-99220000D01*
X128880000Y-97620000D02*
X125680000Y-97620000D01*
X128880000Y-99220000D02*
X128880000Y-97620000D01*
%TO.C,NT1*%
X158415000Y-56450000D02*
X153970000Y-56450000D01*
X153335000Y-58990000D02*
X158415000Y-58990000D01*
X158415000Y-58990000D02*
X158415000Y-56450000D01*
X153970000Y-56450000D02*
X153335000Y-57085000D01*
X153335000Y-57085000D02*
X153335000Y-58990000D01*
%TO.C,R6*%
X156680000Y-97620000D02*
X153480000Y-97620000D01*
X156680000Y-99220000D02*
X156680000Y-97620000D01*
X153480000Y-97620000D02*
X153480000Y-99220000D01*
X153480000Y-99220000D02*
X156680000Y-99220000D01*
%TO.C,R5*%
X147780000Y-99220000D02*
X147780000Y-97620000D01*
X147780000Y-97620000D02*
X144580000Y-97620000D01*
X144580000Y-97620000D02*
X144580000Y-99220000D01*
X144580000Y-99220000D02*
X147780000Y-99220000D01*
%TO.C,R4*%
X157180000Y-85420000D02*
X157180000Y-87020000D01*
X160380000Y-85420000D02*
X157180000Y-85420000D01*
X160380000Y-87020000D02*
X160380000Y-85420000D01*
X157180000Y-87020000D02*
X160380000Y-87020000D01*
%TD*%
M02*
