M48
; DRILL file {KiCad (7.0.0)} date Mon Mar 13 08:12:32 2023
; FORMAT={-:-/ absolute / metric / decimal}
; #@! TF.CreationDate,2023-03-13T08:12:32+05:30
; #@! TF.GenerationSoftware,Kicad,Pcbnew,(7.0.0)
; #@! TF.FileFunction,Plated,1,2,PTH
FMAT,2
METRIC
; #@! TA.AperFunction,Plated,PTH,ViaDrill
T1C0.400
; #@! TA.AperFunction,Plated,PTH,ComponentDrill
T2C0.762
; #@! TA.AperFunction,Plated,PTH,ComponentDrill
T3C0.800
; #@! TA.AperFunction,Plated,PTH,ComponentDrill
T4C1.000
; #@! TA.AperFunction,Plated,PTH,ComponentDrill
T5C1.020
; #@! TA.AperFunction,Plated,PTH,ComponentDrill
T6C1.540
%
G90
G05
T1
X130.28Y-98.42
X137.08Y-98.42
X137.28Y-71.72
X139.88Y-69.62
X147.88Y-91.72
X147.88Y-95.32
X152.28Y-93.62
X155.18Y-98.42
X157.38Y-80.12
T2
X134.53Y-46.31
X134.53Y-48.85
X134.53Y-51.39
X134.53Y-53.93
X134.53Y-56.47
X134.53Y-59.01
X134.53Y-61.55
X134.53Y-64.09
X134.53Y-66.63
X134.53Y-69.17
X134.53Y-71.71
X134.53Y-74.25
X134.53Y-76.79
X134.53Y-79.33
X134.53Y-81.87
X159.93Y-46.31
X159.93Y-48.85
X159.93Y-51.39
X159.93Y-53.93
X159.93Y-56.47
X159.93Y-59.01
X159.93Y-61.55
X159.93Y-64.09
X159.93Y-66.63
X159.93Y-69.17
X159.93Y-71.71
X159.93Y-74.25
X159.93Y-76.79
X159.93Y-79.33
X159.93Y-81.87
T3
X143.41Y-71.04
X143.41Y-73.58
X143.41Y-76.12
X143.41Y-78.66
X143.41Y-81.2
X143.41Y-83.74
X143.41Y-86.28
X143.41Y-88.82
X151.03Y-71.04
X151.03Y-73.58
X151.03Y-76.12
X151.03Y-78.66
X151.03Y-81.2
X151.03Y-83.74
X151.03Y-86.28
X151.03Y-88.82
T4
X126.436Y-89.995
X127.686Y-46.33
X127.686Y-48.87
X127.686Y-51.41
X127.686Y-53.95
X127.686Y-56.49
X127.686Y-59.03
X127.686Y-61.57
X127.686Y-64.11
X127.686Y-66.65
X127.686Y-69.19
X127.686Y-71.73
X127.686Y-74.27
X127.686Y-76.81
X127.686Y-79.35
X127.686Y-81.89
X128.936Y-89.995
X145.98Y-60.92
X148.48Y-60.92
X154.605Y-57.72
X157.145Y-57.72
X165.523Y-91.045
X166.773Y-46.32
X166.773Y-48.86
X166.773Y-51.4
X166.773Y-53.94
X166.773Y-56.48
X166.773Y-59.02
X166.773Y-61.56
X166.773Y-64.1
X166.773Y-66.64
X166.773Y-69.18
X166.773Y-71.72
X166.773Y-74.26
X166.773Y-76.8
X166.773Y-79.34
X166.773Y-81.88
X168.023Y-91.045
T5
X130.88Y-103.205
X130.88Y-105.745
X130.88Y-108.285
X130.88Y-110.825
X163.88Y-103.205
X163.88Y-105.745
X163.88Y-108.285
X163.88Y-110.825
T6
X139.843Y-66.733
X140.142Y-89.632
X143.243Y-66.733
X150.843Y-66.733
X154.343Y-66.733
X154.343Y-89.632
T0
M30
