%TF.GenerationSoftware,KiCad,Pcbnew,(7.0.0)*%
%TF.CreationDate,2023-03-13T08:12:35+05:30*%
%TF.ProjectId,Stem,5374656d-2e6b-4696-9361-645f70636258,1.0*%
%TF.SameCoordinates,Original*%
%TF.FileFunction,Soldermask,Bot*%
%TF.FilePolarity,Negative*%
%FSLAX46Y46*%
G04 Gerber Fmt 4.6, Leading zero omitted, Abs format (unit mm)*
G04 Created by KiCad (PCBNEW (7.0.0)) date 2023-03-13 08:12:35*
%MOMM*%
%LPD*%
G01*
G04 APERTURE LIST*
G04 Aperture macros list*
%AMRoundRect*
0 Rectangle with rounded corners*
0 $1 Rounding radius*
0 $2 $3 $4 $5 $6 $7 $8 $9 X,Y pos of 4 corners*
0 Add a 4 corners polygon primitive as box body*
4,1,4,$2,$3,$4,$5,$6,$7,$8,$9,$2,$3,0*
0 Add four circle primitives for the rounded corners*
1,1,$1+$1,$2,$3*
1,1,$1+$1,$4,$5*
1,1,$1+$1,$6,$7*
1,1,$1+$1,$8,$9*
0 Add four rect primitives between the rounded corners*
20,1,$1+$1,$2,$3,$4,$5,0*
20,1,$1+$1,$4,$5,$6,$7,0*
20,1,$1+$1,$6,$7,$8,$9,0*
20,1,$1+$1,$8,$9,$2,$3,0*%
G04 Aperture macros list end*
%ADD10C,4.300000*%
%ADD11R,1.700000X1.700000*%
%ADD12O,1.700000X1.700000*%
%ADD13R,1.524000X1.524000*%
%ADD14C,1.524000*%
%ADD15RoundRect,0.250000X-0.600000X-0.750000X0.600000X-0.750000X0.600000X0.750000X-0.600000X0.750000X0*%
%ADD16O,1.700000X2.000000*%
%ADD17C,2.020000*%
%ADD18R,1.600000X1.600000*%
%ADD19O,1.600000X1.600000*%
%ADD20RoundRect,0.250000X0.600000X0.750000X-0.600000X0.750000X-0.600000X-0.750000X0.600000X-0.750000X0*%
%ADD21RoundRect,0.250000X0.625000X-0.312500X0.625000X0.312500X-0.625000X0.312500X-0.625000X-0.312500X0*%
%ADD22RoundRect,0.250000X-0.625000X0.312500X-0.625000X-0.312500X0.625000X-0.312500X0.625000X0.312500X0*%
%ADD23RoundRect,0.250000X-0.325000X-0.650000X0.325000X-0.650000X0.325000X0.650000X-0.325000X0.650000X0*%
%ADD24RoundRect,0.250000X-0.312500X-0.625000X0.312500X-0.625000X0.312500X0.625000X-0.312500X0.625000X0*%
%ADD25RoundRect,0.250000X0.312500X0.625000X-0.312500X0.625000X-0.312500X-0.625000X0.312500X-0.625000X0*%
%ADD26R,2.800000X2.800000*%
G04 APERTURE END LIST*
D10*
%TO.C,H3*%
X177680000Y-107820000D03*
%TD*%
D11*
%TO.C,J3*%
X166773499Y-81879999D03*
D12*
X166773499Y-79339999D03*
X166773499Y-76799999D03*
X166773499Y-74259999D03*
X166773499Y-71719999D03*
X166773499Y-69179999D03*
X166773499Y-66639999D03*
X166773499Y-64099999D03*
X166773499Y-61559999D03*
X166773499Y-59019999D03*
X166773499Y-56479999D03*
X166773499Y-53939999D03*
X166773499Y-51399999D03*
X166773499Y-48859999D03*
X166773499Y-46319999D03*
%TD*%
D13*
%TO.C,U2*%
X134529999Y-46309999D03*
D14*
X134530000Y-48850000D03*
X134530000Y-51390000D03*
X134530000Y-53930000D03*
X134530000Y-56470000D03*
X134530000Y-59010000D03*
X134530000Y-61550000D03*
X134530000Y-64090000D03*
X134530000Y-66630000D03*
X134530000Y-69170000D03*
X134530000Y-71710000D03*
X134530000Y-74250000D03*
X134530000Y-76790000D03*
X134530000Y-79330000D03*
X134530000Y-81870000D03*
X159930000Y-81870000D03*
X159930000Y-79330000D03*
X159930000Y-76790000D03*
X159930000Y-74250000D03*
X159930000Y-71710000D03*
X159930000Y-69170000D03*
X159930000Y-66630000D03*
X159930000Y-64090000D03*
X159930000Y-61550000D03*
X159930000Y-59010000D03*
X159930000Y-56470000D03*
X159930000Y-53930000D03*
X159930000Y-51390000D03*
X159930000Y-48850000D03*
X159930000Y-46310000D03*
%TD*%
D10*
%TO.C,H7*%
X177680000Y-87686666D03*
%TD*%
%TO.C,H8*%
X177680000Y-67553333D03*
%TD*%
%TO.C,H4*%
X177680000Y-47420000D03*
%TD*%
%TO.C,H2*%
X116780000Y-107820000D03*
%TD*%
%TO.C,H1*%
X116780000Y-47420000D03*
%TD*%
%TO.C,H5*%
X116780000Y-67553333D03*
%TD*%
%TO.C,H6*%
X116780000Y-87686666D03*
%TD*%
D15*
%TO.C,MA*%
X126436500Y-89995000D03*
D16*
X128936499Y-89994999D03*
%TD*%
D17*
%TO.C,J4*%
X130880000Y-110825000D03*
X130880000Y-108285000D03*
X130880000Y-105745000D03*
X130880000Y-103205000D03*
%TD*%
%TO.C,J5*%
X163880000Y-110825000D03*
X163880000Y-108285000D03*
X163880000Y-105745000D03*
X163880000Y-103205000D03*
%TD*%
D18*
%TO.C,U1*%
X151029999Y-88819999D03*
D19*
X151029999Y-86279999D03*
X151029999Y-83739999D03*
X151029999Y-81199999D03*
X151029999Y-78659999D03*
X151029999Y-76119999D03*
X151029999Y-73579999D03*
X151029999Y-71039999D03*
X143409999Y-71039999D03*
X143409999Y-73579999D03*
X143409999Y-76119999D03*
X143409999Y-78659999D03*
X143409999Y-81199999D03*
X143409999Y-83739999D03*
X143409999Y-86279999D03*
X143409999Y-88819999D03*
%TD*%
D11*
%TO.C,J2*%
X127686499Y-46329999D03*
D12*
X127686499Y-48869999D03*
X127686499Y-51409999D03*
X127686499Y-53949999D03*
X127686499Y-56489999D03*
X127686499Y-59029999D03*
X127686499Y-61569999D03*
X127686499Y-64109999D03*
X127686499Y-66649999D03*
X127686499Y-69189999D03*
X127686499Y-71729999D03*
X127686499Y-74269999D03*
X127686499Y-76809999D03*
X127686499Y-79349999D03*
X127686499Y-81889999D03*
%TD*%
D20*
%TO.C,MB*%
X168023500Y-91045000D03*
D16*
X165523499Y-91044999D03*
%TD*%
D21*
%TO.C,R2*%
X136880000Y-69082500D03*
X136880000Y-66157500D03*
%TD*%
D22*
%TO.C,R3*%
X157380000Y-73557500D03*
X157380000Y-76482500D03*
%TD*%
D23*
%TO.C,C2*%
X162605000Y-98420000D03*
X165555000Y-98420000D03*
%TD*%
D21*
%TO.C,R1*%
X136880000Y-76682500D03*
X136880000Y-73757500D03*
%TD*%
D15*
%TO.C,J1*%
X145980000Y-60920000D03*
D16*
X148479999Y-60919999D03*
%TD*%
D23*
%TO.C,C1*%
X125805000Y-98420000D03*
X128755000Y-98420000D03*
%TD*%
D11*
%TO.C,NT1*%
X154604999Y-57719999D03*
D12*
X157144999Y-57719999D03*
%TD*%
D24*
%TO.C,R6*%
X153617500Y-98420000D03*
X156542500Y-98420000D03*
%TD*%
D25*
%TO.C,R5*%
X147642500Y-98420000D03*
X144717500Y-98420000D03*
%TD*%
D24*
%TO.C,R4*%
X157317500Y-86220000D03*
X160242500Y-86220000D03*
%TD*%
D26*
%TO.C,TP1*%
X154342499Y-89632499D03*
X140142499Y-89632499D03*
X154342499Y-66732499D03*
X139842499Y-66732499D03*
X150842499Y-66732499D03*
X143242499Y-66732499D03*
%TD*%
M02*
